M48
;Layer_Color=9474304
;FILE_FORMAT=4:4
METRIC,LZ
;TYPE=PLATED
T01F00S00C0.3000
T02F00S00C0.8000
T03F00S00C1.0000
T04F00S00C1.5000
T05F00S00C2.2000
T06F00S00C3.2000
%
T01
X0054Y00096
X00595Y001
X00615
X00612Y00134
X00585Y00215
X00595Y0023
X0074Y0027
X00785Y0032
X00732Y00392375
X0076Y00135
X00875
Y00165
X00838Y00179
X00849991Y00214991
X0085Y0023
X00837Y00253
X00873Y00284
X00884Y00335
X0086
X0082Y00305
X00974Y00303
X00984Y00283
X01041Y00244
X01067Y00256
X01075Y00325
X011
X01125
X0111Y0036
X0109
X0107
X0105Y0037
Y00325
X00897Y00211
X00955Y00119
X0121Y0051
X0123
X012508Y005218
X0113Y00522
X01165Y0044
X0118Y0045
X0103675Y004525
X01006Y00424
X00994Y0047
X00975Y00487
X00944Y00432
X0093Y00421
Y00398
X00799Y00412
X0087Y00539
X00845Y00635
X0102
T02
X00673Y00353
X008638Y00084
X008892
X009146
X0094
X009654
X009908
X010162
X010416
X01067
X010924
Y000586
X01067
X010416
X010162
X009908
X009654
X0094
X009146
X008892
X008638
X0134Y00093
Y001184
Y001438
Y001692
Y001946
Y0022
Y002454
Y002708
Y002962
Y003216
Y003946
Y0042
Y004454
Y004708
Y0066
Y006854
X0126Y0067
X01235
X0121
X0123Y0056
X01182
X00673Y00401
X00445Y0056
Y005854
X00895Y00825
Y008504
X00975
Y00825
X010523Y0085
X01065
X010777
X01145
X011577
X011704
T03
X00935Y006896
Y00715
Y007404
X00765Y00737
Y007116
Y006862
Y006608
Y0061
Y005846
Y005592
X0064
Y005846
Y0061
Y006608
Y006862
Y007116
Y00737
X00888Y009965
Y010715
X011072Y011
X011326
X01158
X01336Y01189
Y00869
T04
X00585Y01015
X00717
Y01147
X00585
T05
X00465Y006708
Y007104
Y0075
Y008704
Y0091
Y009496
Y010654
Y01105
Y011446
X008884Y0118
X00928
X009676
T06
X0041Y0005
X014
Y0123
X0041
M30
