G04*
G04 #@! TF.GenerationSoftware,Altium Limited,Altium Designer,24.4.1 (13)*
G04*
G04 Layer_Physical_Order=2*
G04 Layer_Color=16711680*
%FSLAX44Y44*%
%MOMM*%
G71*
G04*
G04 #@! TF.SameCoordinates,7038094A-F867-4381-9EB3-738A195B408D*
G04*
G04*
G04 #@! TF.FilePolarity,Positive*
G04*
G01*
G75*
%ADD12C,0.2540*%
%ADD29C,0.1000*%
%ADD39C,0.3000*%
%ADD40C,0.5000*%
%ADD41C,0.8000*%
%ADD42C,1.0000*%
%ADD43O,1.0000X2.0000*%
%ADD44R,2.0000X2.0000*%
%ADD45C,2.0000*%
%ADD46R,2.5000X1.2000*%
%ADD47O,2.5000X1.2000*%
%ADD48O,1.2000X2.5000*%
%ADD49R,1.2000X2.5000*%
%ADD50R,3.0000X5.0000*%
%ADD51O,2.0000X2.5000*%
%ADD52C,3.0000*%
%ADD53R,5.0000X3.0000*%
%ADD54R,3.0000X3.0000*%
%ADD55O,2.5000X2.0000*%
%ADD56O,3.0000X2.0000*%
%ADD57R,3.0000X2.0000*%
%ADD58C,0.8000*%
%ADD59C,4.0000*%
%ADD60C,3.0000*%
%ADD61C,2.0000*%
G36*
X1442000Y882000D02*
X1442500Y881500D01*
Y770000D01*
X1340000D01*
X893272Y770000D01*
X926636Y803364D01*
X927678Y804722D01*
X927920Y805306D01*
X928333Y806303D01*
X928556Y808000D01*
Y848643D01*
X928333Y850340D01*
X928141Y850803D01*
X927678Y851921D01*
X926636Y853279D01*
X924878Y855036D01*
X923521Y856078D01*
X922594Y856461D01*
X921939Y856733D01*
X920243Y856956D01*
X912500D01*
Y861400D01*
X877500D01*
Y839400D01*
X912500D01*
Y843844D01*
X915444D01*
Y810716D01*
X878364Y773636D01*
X877322Y772278D01*
X876995Y771488D01*
X876667Y770697D01*
X876576Y770000D01*
X843334D01*
X727086Y770000D01*
Y995000D01*
X737000D01*
Y995927D01*
X789757D01*
X799342Y986342D01*
X801626Y984468D01*
X804232Y983075D01*
X807059Y982217D01*
X810000Y981927D01*
X810000Y981927D01*
X884366D01*
X885060Y981717D01*
X885796Y981645D01*
X886523Y981500D01*
X887263D01*
X888000Y981427D01*
X888737Y981500D01*
X889477D01*
X889734Y981551D01*
X1110922D01*
Y899078D01*
X1090000D01*
X1090000Y899078D01*
X1087651Y898768D01*
X1086368Y898237D01*
X1085461Y897861D01*
X1083581Y896419D01*
X1071281Y884119D01*
X1069839Y882239D01*
X1068932Y880049D01*
X1068622Y877700D01*
Y864324D01*
X1067610Y864743D01*
X1065000Y865086D01*
X1062390Y864743D01*
X1059957Y863735D01*
X1058650Y862732D01*
X1057343Y863735D01*
X1054911Y864743D01*
X1052300Y865086D01*
X1049689Y864743D01*
X1047257Y863735D01*
X1045168Y862132D01*
X1043565Y860043D01*
X1042557Y857610D01*
X1042214Y855000D01*
Y845000D01*
X1042557Y842390D01*
X1043565Y839957D01*
X1045168Y837868D01*
X1047257Y836265D01*
X1049689Y835257D01*
X1052300Y834914D01*
X1054911Y835257D01*
X1057343Y836265D01*
X1058650Y837268D01*
X1059957Y836265D01*
X1062390Y835257D01*
X1065000Y834914D01*
X1067610Y835257D01*
X1070043Y836265D01*
X1071350Y837268D01*
X1072657Y836265D01*
X1075089Y835257D01*
X1077700Y834914D01*
X1080311Y835257D01*
X1082743Y836265D01*
X1084832Y837868D01*
X1086435Y839957D01*
X1087443Y842390D01*
X1087786Y845000D01*
Y855000D01*
X1087443Y857610D01*
X1086778Y859216D01*
Y873940D01*
X1093760Y880922D01*
X1151240D01*
X1161322Y870840D01*
Y864324D01*
X1160311Y864743D01*
X1157700Y865086D01*
X1155089Y864743D01*
X1152657Y863735D01*
X1151350Y862732D01*
X1150043Y863735D01*
X1147610Y864743D01*
X1145000Y865086D01*
X1142390Y864743D01*
X1139957Y863735D01*
X1137868Y862132D01*
X1136265Y860043D01*
X1135257Y857610D01*
X1134914Y855000D01*
Y845000D01*
X1135257Y842390D01*
X1136265Y839957D01*
X1137868Y837868D01*
X1139957Y836265D01*
X1142390Y835257D01*
X1145000Y834914D01*
X1147610Y835257D01*
X1150043Y836265D01*
X1151350Y837268D01*
X1152657Y836265D01*
X1155089Y835257D01*
X1157700Y834914D01*
X1160311Y835257D01*
X1162743Y836265D01*
X1164050Y837268D01*
X1165357Y836265D01*
X1167790Y835257D01*
X1170400Y834914D01*
X1173010Y835257D01*
X1175443Y836265D01*
X1177532Y837868D01*
X1179135Y839957D01*
X1180143Y842390D01*
X1180486Y845000D01*
Y855000D01*
X1180143Y857610D01*
X1179478Y859216D01*
Y874600D01*
X1179168Y876949D01*
X1178261Y879139D01*
X1176819Y881019D01*
X1161419Y896419D01*
X1159539Y897861D01*
X1157349Y898768D01*
X1155000Y899078D01*
X1129078D01*
Y981551D01*
X1268133D01*
X1321927Y927757D01*
Y883212D01*
X1320465Y881749D01*
X1318276Y878474D01*
X1316769Y874834D01*
X1316000Y870970D01*
Y867030D01*
X1316769Y863166D01*
X1318276Y859526D01*
X1320465Y856251D01*
X1323251Y853465D01*
X1326526Y851276D01*
X1330166Y849769D01*
X1334030Y849000D01*
X1337970D01*
X1341834Y849769D01*
X1345473Y851276D01*
X1348749Y853465D01*
X1351535Y856251D01*
X1353724Y859526D01*
X1355231Y863166D01*
X1356000Y867030D01*
Y870970D01*
X1355231Y874834D01*
X1353724Y878474D01*
X1352073Y880945D01*
Y934000D01*
X1352073Y934000D01*
X1351783Y936941D01*
X1350925Y939768D01*
X1349532Y942374D01*
X1347658Y944658D01*
X1285034Y1007281D01*
X1282750Y1009156D01*
X1280145Y1010549D01*
X1277317Y1011406D01*
X1274377Y1011696D01*
X890727D01*
X890441Y1011783D01*
X887500Y1012073D01*
X816243D01*
X806658Y1021658D01*
X804374Y1023532D01*
X801768Y1024925D01*
X798941Y1025783D01*
X796000Y1026073D01*
X737000D01*
Y1035000D01*
X697000D01*
Y995000D01*
X706914D01*
Y761178D01*
X667422Y721686D01*
X656127D01*
X655658Y722258D01*
X653374Y724132D01*
X653060Y724300D01*
X653374Y724468D01*
X655658Y726342D01*
X657532Y728626D01*
X658925Y731232D01*
X659783Y734060D01*
X660072Y737000D01*
X659783Y739940D01*
X658925Y742768D01*
X657532Y745374D01*
X655658Y747658D01*
X653374Y749532D01*
X650768Y750925D01*
X647941Y751783D01*
X645000Y752073D01*
X635000D01*
X632060Y751783D01*
X629232Y750925D01*
X626626Y749532D01*
X624342Y747658D01*
X622468Y745374D01*
X621075Y742768D01*
X620217Y739940D01*
X619927Y737000D01*
X620217Y734060D01*
X621075Y731232D01*
X622468Y728626D01*
X624342Y726342D01*
X626626Y724468D01*
X626940Y724300D01*
X626626Y724132D01*
X624342Y722258D01*
X622468Y719974D01*
X621075Y717368D01*
X620217Y714540D01*
X619927Y711600D01*
X620217Y708660D01*
X621075Y705832D01*
X622468Y703226D01*
X624342Y700942D01*
X626626Y699068D01*
X626940Y698900D01*
X626626Y698732D01*
X624342Y696858D01*
X622468Y694574D01*
X621075Y691968D01*
X620217Y689140D01*
X619927Y686200D01*
X620217Y683260D01*
X621075Y680432D01*
X622468Y677826D01*
X624342Y675542D01*
X626626Y673668D01*
X626940Y673500D01*
X626626Y673332D01*
X624342Y671458D01*
X622468Y669174D01*
X621075Y666568D01*
X620217Y663740D01*
X619927Y660800D01*
X620217Y657859D01*
X621075Y655032D01*
X622468Y652426D01*
X624342Y650142D01*
X626626Y648268D01*
X629232Y646875D01*
X632060Y646017D01*
X635000Y645727D01*
X645000D01*
X647941Y646017D01*
X650768Y646875D01*
X653374Y648268D01*
X655658Y650142D01*
X657532Y652426D01*
X658925Y655032D01*
X659783Y657859D01*
X660072Y660800D01*
X659783Y663740D01*
X658925Y666568D01*
X657532Y669174D01*
X655658Y671458D01*
X653374Y673332D01*
X653060Y673500D01*
X653374Y673668D01*
X655658Y675542D01*
X657532Y677826D01*
X658925Y680432D01*
X659783Y683260D01*
X660072Y686200D01*
X659783Y689140D01*
X658925Y691968D01*
X657532Y694574D01*
X655658Y696858D01*
X653374Y698732D01*
X653060Y698900D01*
X653374Y699068D01*
X655658Y700942D01*
X656127Y701514D01*
X671600D01*
X674211Y701857D01*
X676643Y702865D01*
X678732Y704468D01*
X722500Y748236D01*
Y640000D01*
X743588D01*
X744172Y639758D01*
X744511Y639714D01*
X744539Y639702D01*
X745975Y639513D01*
X790393D01*
X790501Y639498D01*
X807500Y622500D01*
Y555000D01*
X777500Y525000D01*
X369000D01*
Y1272000D01*
X1442000D01*
Y882000D01*
D02*
G37*
%LPC*%
G36*
X1401967Y1255000D02*
X1398033D01*
X1394146Y1254384D01*
X1390403Y1253168D01*
X1386897Y1251382D01*
X1383714Y1249069D01*
X1380931Y1246286D01*
X1378618Y1243103D01*
X1376832Y1239597D01*
X1375616Y1235854D01*
X1375000Y1231967D01*
Y1228033D01*
X1375616Y1224146D01*
X1376832Y1220403D01*
X1378618Y1216897D01*
X1380931Y1213714D01*
X1383714Y1210931D01*
X1386897Y1208618D01*
X1390403Y1206832D01*
X1394146Y1205616D01*
X1398033Y1205000D01*
X1401967D01*
X1405854Y1205616D01*
X1409597Y1206832D01*
X1413103Y1208618D01*
X1416286Y1210931D01*
X1419069Y1213714D01*
X1421382Y1216897D01*
X1423168Y1220403D01*
X1424384Y1224146D01*
X1425000Y1228033D01*
Y1231967D01*
X1424384Y1235854D01*
X1423168Y1239597D01*
X1421382Y1243103D01*
X1419069Y1246286D01*
X1416286Y1249069D01*
X1413103Y1251382D01*
X1409597Y1253168D01*
X1405854Y1254384D01*
X1401967Y1255000D01*
D02*
G37*
G36*
X411968D02*
X408032D01*
X404146Y1254384D01*
X400403Y1253168D01*
X396897Y1251382D01*
X393714Y1249069D01*
X390931Y1246286D01*
X388618Y1243103D01*
X386832Y1239597D01*
X385616Y1235854D01*
X385000Y1231967D01*
Y1228033D01*
X385616Y1224146D01*
X386832Y1220403D01*
X388618Y1216897D01*
X390931Y1213714D01*
X393714Y1210931D01*
X396897Y1208618D01*
X400403Y1206832D01*
X404146Y1205616D01*
X408032Y1205000D01*
X411968D01*
X415854Y1205616D01*
X419597Y1206832D01*
X423103Y1208618D01*
X426286Y1210931D01*
X429069Y1213714D01*
X431382Y1216897D01*
X433168Y1220403D01*
X434384Y1224146D01*
X435000Y1228033D01*
Y1231967D01*
X434384Y1235854D01*
X433168Y1239597D01*
X431382Y1243103D01*
X429069Y1246286D01*
X426286Y1249069D01*
X423103Y1251382D01*
X419597Y1253168D01*
X415854Y1254384D01*
X411968Y1255000D01*
D02*
G37*
G36*
X987600Y1210000D02*
X947600D01*
Y1184285D01*
X946567Y1187691D01*
X945540Y1189612D01*
Y1207540D01*
X929270D01*
Y1180000D01*
X926730D01*
Y1207540D01*
X910460D01*
Y1189612D01*
X909433Y1187691D01*
X908400Y1184285D01*
Y1210000D01*
X868400D01*
Y1201073D01*
X626000D01*
X623060Y1200783D01*
X620232Y1199925D01*
X617626Y1198532D01*
X615342Y1196658D01*
X585684Y1167000D01*
X565000D01*
Y1127000D01*
X605000D01*
Y1143684D01*
X632243Y1170927D01*
X868400D01*
Y1150000D01*
X872927D01*
Y1071500D01*
X873000Y1070763D01*
Y1056500D01*
X887263D01*
X888000Y1056427D01*
X888737Y1056500D01*
X903000D01*
Y1070763D01*
X903073Y1071500D01*
Y1150000D01*
X907903D01*
Y1132000D01*
X908289Y1128079D01*
X909433Y1124309D01*
X911290Y1120835D01*
X913789Y1117789D01*
X925789Y1105789D01*
X928835Y1103290D01*
X932309Y1101433D01*
X936079Y1100289D01*
X940000Y1099903D01*
X943921Y1100289D01*
X947691Y1101433D01*
X951165Y1103290D01*
X954211Y1105789D01*
X956710Y1108835D01*
X958567Y1112309D01*
X959711Y1116079D01*
X960097Y1120000D01*
X959711Y1123921D01*
X958567Y1127691D01*
X956710Y1131165D01*
X954211Y1134211D01*
X948097Y1140324D01*
Y1150000D01*
X987600D01*
Y1154927D01*
X1108757D01*
X1117527Y1146157D01*
Y1113429D01*
X1115574Y1115032D01*
X1112968Y1116425D01*
X1110141Y1117283D01*
X1107200Y1117572D01*
X1104259Y1117283D01*
X1101432Y1116425D01*
X1098826Y1115032D01*
X1096542Y1113158D01*
X1094668Y1110874D01*
X1093275Y1108268D01*
X1092417Y1105441D01*
X1092127Y1102500D01*
Y1097500D01*
X1092417Y1094559D01*
X1093275Y1091732D01*
X1094668Y1089126D01*
X1096542Y1086842D01*
X1098826Y1084968D01*
X1101432Y1083575D01*
X1104259Y1082717D01*
X1107200Y1082427D01*
X1110141Y1082717D01*
X1112968Y1083575D01*
X1115574Y1084968D01*
X1117858Y1086842D01*
X1119732Y1089126D01*
X1119900Y1089440D01*
X1120068Y1089126D01*
X1121942Y1086842D01*
X1124226Y1084968D01*
X1126832Y1083575D01*
X1129660Y1082717D01*
X1132600Y1082427D01*
X1135540Y1082717D01*
X1138368Y1083575D01*
X1140974Y1084968D01*
X1143258Y1086842D01*
X1145132Y1089126D01*
X1145300Y1089440D01*
X1145468Y1089126D01*
X1147342Y1086842D01*
X1149626Y1084968D01*
X1152232Y1083575D01*
X1155060Y1082717D01*
X1158000Y1082427D01*
X1160940Y1082717D01*
X1163768Y1083575D01*
X1166374Y1084968D01*
X1168658Y1086842D01*
X1170532Y1089126D01*
X1171925Y1091732D01*
X1172783Y1094559D01*
X1173073Y1097500D01*
Y1102500D01*
Y1144757D01*
X1202243Y1173927D01*
X1322788D01*
X1323251Y1173465D01*
X1326526Y1171276D01*
X1330166Y1169769D01*
X1334030Y1169000D01*
X1337970D01*
X1341834Y1169769D01*
X1345473Y1171276D01*
X1348749Y1173465D01*
X1351535Y1176251D01*
X1353724Y1179526D01*
X1355231Y1183166D01*
X1356000Y1187030D01*
Y1190970D01*
X1355231Y1194834D01*
X1353724Y1198474D01*
X1351535Y1201749D01*
X1348749Y1204535D01*
X1345473Y1206724D01*
X1341834Y1208231D01*
X1337970Y1209000D01*
X1334030D01*
X1330166Y1208231D01*
X1326526Y1206724D01*
X1323251Y1204535D01*
X1322788Y1204072D01*
X1196000D01*
X1196000Y1204073D01*
X1193059Y1203783D01*
X1190232Y1202925D01*
X1187626Y1201532D01*
X1185342Y1199658D01*
X1147342Y1161658D01*
X1145718Y1159679D01*
X1145132Y1160774D01*
X1143258Y1163058D01*
X1125658Y1180658D01*
X1123374Y1182532D01*
X1120768Y1183925D01*
X1117941Y1184783D01*
X1115000Y1185073D01*
X987600D01*
Y1210000D01*
D02*
G37*
G36*
X737000Y1167000D02*
X697000D01*
Y1160073D01*
X655000D01*
X652059Y1159783D01*
X649232Y1158925D01*
X646626Y1157532D01*
X644342Y1155658D01*
X598757Y1110073D01*
X566243D01*
X521058Y1155258D01*
X518774Y1157132D01*
X516168Y1158525D01*
X513340Y1159383D01*
X510400Y1159673D01*
X495000D01*
Y1164600D01*
X435000D01*
Y1124600D01*
X495000D01*
Y1129527D01*
X504157D01*
X549342Y1084342D01*
X551626Y1082468D01*
X554232Y1081075D01*
X557060Y1080217D01*
X560000Y1079927D01*
X605000D01*
X607940Y1080217D01*
X610768Y1081075D01*
X613374Y1082468D01*
X615658Y1084342D01*
X661243Y1129927D01*
X697000D01*
Y1127000D01*
X701927D01*
Y1083243D01*
X634342Y1015658D01*
X632468Y1013374D01*
X631075Y1010768D01*
X630217Y1007941D01*
X629927Y1005000D01*
Y816243D01*
X500370Y686686D01*
X495000D01*
Y690800D01*
X435000D01*
Y650800D01*
X495000D01*
Y656541D01*
X506613D01*
X509554Y656830D01*
X512381Y657688D01*
X514987Y659081D01*
X517271Y660955D01*
X655658Y799342D01*
X657532Y801626D01*
X658925Y804232D01*
X659783Y807059D01*
X660073Y810000D01*
Y998757D01*
X727658Y1066342D01*
X729532Y1068626D01*
X730925Y1071232D01*
X731523Y1073202D01*
X731783Y1074060D01*
X732073Y1077000D01*
Y1127000D01*
X737000D01*
Y1167000D01*
D02*
G37*
G36*
X492540Y1122540D02*
X466270D01*
Y1106270D01*
X492540D01*
Y1122540D01*
D02*
G37*
G36*
X463730D02*
X437460D01*
Y1106270D01*
X463730D01*
Y1122540D01*
D02*
G37*
G36*
X492540Y1103730D02*
X466270D01*
Y1087460D01*
X492540D01*
Y1103730D01*
D02*
G37*
G36*
X463730D02*
X437460D01*
Y1087460D01*
X463730D01*
Y1103730D01*
D02*
G37*
G36*
X981500Y861495D02*
X968500D01*
X965628Y861117D01*
X962952Y860008D01*
X960655Y858245D01*
X958892Y855947D01*
X957783Y853272D01*
X957405Y850400D01*
X957783Y847528D01*
X958892Y844853D01*
X960655Y842555D01*
X962952Y840791D01*
X965628Y839683D01*
X968500Y839305D01*
X981500D01*
X984372Y839683D01*
X987048Y840791D01*
X989345Y842555D01*
X991108Y844853D01*
X992217Y847528D01*
X992595Y850400D01*
X992217Y853272D01*
X991108Y855947D01*
X989345Y858245D01*
X987048Y860008D01*
X984372Y861117D01*
X981500Y861495D01*
D02*
G37*
G36*
Y836095D02*
X968500D01*
X965628Y835717D01*
X962952Y834609D01*
X960655Y832845D01*
X958892Y830547D01*
X957783Y827872D01*
X957405Y825000D01*
X957783Y822128D01*
X958892Y819453D01*
X960655Y817155D01*
X962952Y815391D01*
X965628Y814283D01*
X968500Y813905D01*
X981500D01*
X984372Y814283D01*
X987048Y815391D01*
X989345Y817155D01*
X991108Y819453D01*
X992217Y822128D01*
X992595Y825000D01*
X992217Y827872D01*
X991108Y830547D01*
X989345Y832845D01*
X987048Y834609D01*
X984372Y835717D01*
X981500Y836095D01*
D02*
G37*
G36*
X901500D02*
X888500D01*
X885628Y835717D01*
X882952Y834609D01*
X880655Y832845D01*
X878892Y830547D01*
X877783Y827872D01*
X877405Y825000D01*
X877783Y822128D01*
X878892Y819453D01*
X880655Y817155D01*
X882952Y815391D01*
X885628Y814283D01*
X888500Y813905D01*
X901500D01*
X904372Y814283D01*
X907048Y815391D01*
X909345Y817155D01*
X911108Y819453D01*
X912217Y822128D01*
X912595Y825000D01*
X912217Y827872D01*
X911108Y830547D01*
X909345Y832845D01*
X907048Y834609D01*
X904372Y835717D01*
X901500Y836095D01*
D02*
G37*
G36*
X495000Y1085400D02*
X435000D01*
Y1045400D01*
X449927D01*
Y969600D01*
X435000D01*
Y929600D01*
Y890000D01*
Y850400D01*
X449927D01*
Y770000D01*
X435000D01*
Y730000D01*
X495000D01*
Y770000D01*
X480073D01*
Y850400D01*
X495000D01*
Y855327D01*
X573284D01*
X576225Y855617D01*
X579052Y856475D01*
X581658Y857868D01*
X583942Y859742D01*
X595658Y871458D01*
X597532Y873742D01*
X598925Y876348D01*
X599783Y879175D01*
X600073Y882116D01*
Y995000D01*
X605000D01*
Y1035000D01*
X565000D01*
Y995000D01*
X569927D01*
Y888359D01*
X567041Y885473D01*
X495000D01*
Y890000D01*
Y929600D01*
Y969600D01*
X480073D01*
Y1045400D01*
X495000D01*
Y1085400D01*
D02*
G37*
G36*
X492540Y727940D02*
X466270D01*
Y711670D01*
X492540D01*
Y727940D01*
D02*
G37*
G36*
X463730D02*
X437460D01*
Y711670D01*
X463730D01*
Y727940D01*
D02*
G37*
G36*
X492540Y709130D02*
X466270D01*
Y692860D01*
X492540D01*
Y709130D01*
D02*
G37*
G36*
X463730D02*
X437460D01*
Y692860D01*
X463730D01*
Y709130D01*
D02*
G37*
G36*
X770000Y625073D02*
X760000D01*
X757059Y624783D01*
X754232Y623925D01*
X751626Y622532D01*
X749342Y620658D01*
X747468Y618374D01*
X746075Y615768D01*
X745217Y612940D01*
X744927Y610000D01*
X745217Y607060D01*
X746075Y604232D01*
X747468Y601626D01*
X749342Y599342D01*
X751626Y597468D01*
X751940Y597300D01*
X751626Y597132D01*
X749342Y595258D01*
X748873Y594686D01*
X656127D01*
X655658Y595258D01*
X653374Y597132D01*
X653060Y597300D01*
X653374Y597468D01*
X655658Y599342D01*
X657532Y601626D01*
X658925Y604232D01*
X659783Y607060D01*
X660072Y610000D01*
X659783Y612940D01*
X658925Y615768D01*
X657532Y618374D01*
X655658Y620658D01*
X653374Y622532D01*
X650768Y623925D01*
X647941Y624783D01*
X645000Y625073D01*
X635000D01*
X632060Y624783D01*
X629232Y623925D01*
X626626Y622532D01*
X624342Y620658D01*
X622468Y618374D01*
X621075Y615768D01*
X620217Y612940D01*
X619927Y610000D01*
X620217Y607060D01*
X621075Y604232D01*
X622468Y601626D01*
X624342Y599342D01*
X626626Y597468D01*
X626940Y597300D01*
X626626Y597132D01*
X624342Y595258D01*
X624201Y595086D01*
X462500D01*
Y596400D01*
X427500D01*
Y574400D01*
X462500D01*
Y574914D01*
X623545D01*
X624130Y574200D01*
X620000D01*
Y569704D01*
X456818D01*
X454372Y570717D01*
X451500Y571095D01*
X438500D01*
X435628Y570717D01*
X432953Y569608D01*
X430655Y567845D01*
X428891Y565547D01*
X427783Y562872D01*
X427405Y560000D01*
X427783Y557128D01*
X428891Y554453D01*
X430655Y552155D01*
X432953Y550392D01*
X435628Y549283D01*
X438500Y548905D01*
X451500D01*
X454372Y549283D01*
X454970Y549531D01*
X620000D01*
Y544200D01*
X660000D01*
Y549114D01*
X745000D01*
Y544200D01*
X785000D01*
Y574200D01*
X780870D01*
X782532Y576226D01*
X783925Y578832D01*
X784783Y581660D01*
X785072Y584600D01*
X784783Y587541D01*
X783925Y590368D01*
X782532Y592974D01*
X780658Y595258D01*
X778374Y597132D01*
X778060Y597300D01*
X778374Y597468D01*
X780658Y599342D01*
X782532Y601626D01*
X783925Y604232D01*
X784783Y607060D01*
X785072Y610000D01*
X784783Y612940D01*
X783925Y615768D01*
X782532Y618374D01*
X780658Y620658D01*
X778374Y622532D01*
X775768Y623925D01*
X772941Y624783D01*
X770000Y625073D01*
D02*
G37*
%LPD*%
G36*
X749130Y574200D02*
X745000D01*
Y569286D01*
X660000D01*
Y574200D01*
X655870D01*
X656127Y574514D01*
X748873D01*
X749130Y574200D01*
D02*
G37*
D12*
X889200Y46060D02*
Y58600D01*
X851260D02*
X863800D01*
Y46060D02*
Y58600D01*
X838000Y172460D02*
Y179000D01*
X844540D01*
X914600Y46060D02*
Y58600D01*
X940000Y46060D02*
Y58600D01*
X965400Y46060D02*
Y58600D01*
X948460Y119000D02*
X955000D01*
Y112460D02*
Y119000D01*
Y125540D01*
Y119000D02*
X961540D01*
X837000Y246460D02*
Y253000D01*
X830460D02*
X837000D01*
Y259540D01*
Y253000D02*
X843540D01*
X732000Y385835D02*
Y392375D01*
X725460D02*
X732000D01*
Y398915D01*
Y392375D02*
X738540D01*
X799000Y405460D02*
Y412000D01*
X792460D02*
X799000D01*
Y418540D01*
Y412000D02*
X805540D01*
X747460Y711600D02*
X765000D01*
X870000Y532460D02*
Y539000D01*
X863460D02*
X870000D01*
Y545540D01*
X765000Y711600D02*
X782540D01*
X990800Y46060D02*
Y58600D01*
X1016200Y46060D02*
Y58600D01*
X1041600Y46060D02*
Y58600D01*
X1067000Y46060D02*
Y58600D01*
X1324960Y143800D02*
X1340000D01*
Y152340D01*
X1324960Y194600D02*
X1340000D01*
X1324960Y93000D02*
X1340000D01*
Y101540D01*
Y93000D02*
X1355040D01*
X1340000Y143800D02*
X1355040D01*
X1340000Y135260D02*
Y143800D01*
Y194600D02*
Y203140D01*
Y194600D02*
X1355040D01*
X1340000Y186060D02*
Y194600D01*
X1324960Y245400D02*
X1340000D01*
Y236860D02*
Y245400D01*
X1355040D01*
X1340000D02*
Y253940D01*
X1324960Y296200D02*
X1340000D01*
Y287660D02*
Y296200D01*
Y304740D01*
Y296200D02*
X1355040D01*
X1036750Y445960D02*
Y452500D01*
X1030210D02*
X1036750D01*
X1043290D01*
X1036750D02*
Y459040D01*
X1130000Y522000D02*
Y528540D01*
X1123460Y522000D02*
X1130000D01*
Y515460D02*
Y522000D01*
X1136540D01*
X1210000Y654960D02*
Y670000D01*
X1218540D01*
X1201460D02*
X1210000D01*
X1250800Y521800D02*
X1257340D01*
X1250800D02*
Y528340D01*
Y515260D02*
Y521800D01*
X1244260D02*
X1250800D01*
X1324960Y470800D02*
X1340000D01*
X1355040D01*
X1340000Y462260D02*
Y470800D01*
Y479340D01*
X1226460Y670000D02*
X1235000D01*
Y654960D02*
Y670000D01*
X1243540D01*
D29*
X435500Y50000D02*
G03*
X435500Y50000I-25500J0D01*
G01*
X541353Y81212D02*
G03*
X548070Y78430I6718J6718D01*
G01*
X546717Y102718D02*
G03*
X533283Y89283I-6718J-6718D01*
G01*
X546727Y102708D02*
G03*
X533292Y89273I-6727J-6708D01*
G01*
X541353Y81212D02*
G03*
X548070Y78430I6718J6718D01*
G01*
X578000Y110000D02*
G03*
X580050Y105050I7000J0D01*
G01*
X578000Y110000D02*
G03*
X580050Y105050I7000J0D01*
G01*
X638172Y78430D02*
G03*
X644890Y81212I0J9500D01*
G01*
X638172Y78430D02*
G03*
X644890Y81212I0J9500D01*
G01*
X624146Y97430D02*
G03*
X624500Y100000I-9146J2570D01*
G01*
X604146Y97430D02*
G03*
X604500Y100000I-9146J2570D01*
G01*
X605509Y99592D02*
G03*
X605854Y97430I9491J408D01*
G01*
X646647Y82970D02*
G03*
X649430Y89687I-6718J6718D01*
G01*
X646647Y82970D02*
G03*
X649430Y89687I-6718J6718D01*
G01*
X585509Y99592D02*
G03*
X585854Y97430I9491J408D01*
G01*
X624500Y100000D02*
G03*
X615408Y109491I-9500J0D01*
G01*
X612000Y143500D02*
G03*
X612000Y124500I0J-9500D01*
G01*
X612022Y143500D02*
G03*
X612022Y124500I-22J-9500D01*
G01*
X758188D02*
G03*
X763657Y126232I0J9500D01*
G01*
X763657D02*
G03*
X769500Y135000I-3657J8768D01*
G01*
D02*
G03*
X755757Y143500I-9500J0D01*
G01*
X587504Y224164D02*
G03*
X578000Y208577I-2504J-9164D01*
G01*
X604500Y230000D02*
G03*
X587504Y224164I-9500J0D01*
G01*
X602000Y223577D02*
G03*
X604500Y230000I-7000J6423D01*
G01*
X733282Y309718D02*
G03*
X730500Y303000I6718J-6718D01*
G01*
X733282Y309718D02*
G03*
X730500Y303000I6718J-6718D01*
G01*
X857324Y69918D02*
G03*
X876500Y55642I6477J-11318D01*
G01*
Y92886D02*
G03*
X857324Y69918I-12700J-8886D01*
G01*
X876500Y61558D02*
G03*
X870276Y69918I-12700J-2958D01*
G01*
D02*
G03*
X876500Y75114I-6477J14082D01*
G01*
X832343Y173343D02*
G03*
X846000Y179000I5657J5657D01*
G01*
D02*
G03*
X843657Y184657I-8000J0D01*
G01*
X882723Y69918D02*
G03*
X876500Y61558I6477J-11318D01*
G01*
Y75114D02*
G03*
X882723Y69918I12700J8886D01*
G01*
X901900Y92886D02*
G03*
X876500Y92886I-12700J-8886D01*
G01*
X901900Y61558D02*
G03*
X895676Y69918I-12700J-2958D01*
G01*
X876500Y55642D02*
G03*
X901900Y55642I12700J2958D01*
G01*
X895676Y69918D02*
G03*
X901900Y75114I-6477J14082D01*
G01*
X868000Y141423D02*
G03*
X884500Y135000I7000J-6423D01*
G01*
X882000Y158577D02*
G03*
X884500Y165000I-7000J6423D01*
G01*
D02*
G03*
X868000Y158577I-9500J0D01*
G01*
X884500Y135000D02*
G03*
X882000Y141423I-9500J0D01*
G01*
X901900Y55642D02*
G03*
X927300Y55642I12700J2958D01*
G01*
D02*
G03*
X952700Y55642I12700J2958D01*
G01*
X908123Y69918D02*
G03*
X901900Y61558I6477J-11318D01*
G01*
X927300D02*
G03*
X921077Y69918I-12700J-2958D01*
G01*
X958923D02*
G03*
X952700Y61558I6477J-11318D01*
G01*
D02*
G03*
X946477Y69918I-12700J-2958D01*
G01*
X933523D02*
G03*
X927300Y61558I6477J-11318D01*
G01*
X952700Y55642D02*
G03*
X978100Y55642I12700J2958D01*
G01*
D02*
G03*
X1003500Y55642I12700J2958D01*
G01*
X978100Y61558D02*
G03*
X971877Y69918I-12700J-2958D01*
G01*
X984324D02*
G03*
X978100Y61558I6477J-11318D01*
G01*
X921077Y69918D02*
G03*
X927300Y75114I-6477J14082D01*
G01*
X901900D02*
G03*
X908123Y69918I12700J8886D01*
G01*
X952700Y75114D02*
G03*
X958923Y69918I12700J8886D01*
G01*
X927300Y75114D02*
G03*
X933523Y69918I12700J8886D01*
G01*
X946477D02*
G03*
X952700Y75114I-6477J14082D01*
G01*
X944829Y98729D02*
G03*
X927300Y92886I-4829J-14728D01*
G01*
D02*
G03*
X901900Y92886I-12700J-8886D01*
G01*
X962040Y119000D02*
G03*
X962040Y119000I-7040J0D01*
G01*
X978100Y92886D02*
G03*
X965399Y99500I-12700J-8886D01*
G01*
X971877Y69918D02*
G03*
X978100Y75114I-6477J14082D01*
G01*
D02*
G03*
X984324Y69918I12700J8886D01*
G01*
X989000Y99395D02*
G03*
X978100Y92886I1800J-15395D01*
G01*
X978950Y113050D02*
G03*
X981000Y118000I-4950J4950D01*
G01*
X978950Y113050D02*
G03*
X981000Y118000I-4950J4950D01*
G01*
X842657Y185657D02*
G03*
X831343Y174343I-5657J-5657D01*
G01*
X844170Y222499D02*
G03*
X856423Y208000I5821J-7508D01*
G01*
X844040Y253000D02*
G03*
X844040Y253000I-7040J0D01*
G01*
X812000Y310124D02*
G03*
X829500Y305000I8000J-5124D01*
G01*
X856405Y222000D02*
G03*
X855821Y222492I-6413J-7009D01*
G01*
Y222492D02*
G03*
X856423Y223000I-5821J7508D01*
G01*
X858243D02*
G03*
X863192Y225050I0J7000D01*
G01*
X858243Y223000D02*
G03*
X863192Y225050I0J7000D01*
G01*
X853000Y239014D02*
G03*
X844170Y222499I-3000J-9014D01*
G01*
X864950Y226808D02*
G03*
X867000Y231757I-4950J4950D01*
G01*
X864950Y226808D02*
G03*
X867000Y231757I-4950J4950D01*
G01*
X879000Y208000D02*
G03*
X883950Y210050I0J7000D01*
G01*
X879000Y208000D02*
G03*
X883950Y210050I0J7000D01*
G01*
X886500Y211000D02*
G03*
X907500Y211000I10500J0D01*
G01*
X867000Y276635D02*
G03*
X877000Y275383I6000J7365D01*
G01*
X977000Y289423D02*
G03*
X974520Y282379I7000J-6423D01*
G01*
X981000Y273000D02*
G03*
X980927Y274011I-7000J0D01*
G01*
X981000Y273000D02*
G03*
X980927Y274011I-7000J0D01*
G01*
X980927D02*
G03*
X989000Y274922I3073J8989D01*
G01*
X967000Y309423D02*
G03*
X977000Y293986I7000J-6423D01*
G01*
X688500Y353000D02*
G03*
X688500Y353000I-15500J0D01*
G01*
X719333Y339353D02*
G03*
X725000Y337000I5667J5647D01*
G01*
X707000Y355000D02*
G03*
X709353Y349333I8000J0D01*
G01*
X707000Y355000D02*
G03*
X709343Y349343I8000J0D01*
G01*
X688500Y401000D02*
G03*
X688500Y401000I-15500J0D01*
G01*
X719343Y339343D02*
G03*
X725000Y337000I5657J5657D01*
G01*
X739040Y392375D02*
G03*
X739040Y392375I-7040J0D01*
G01*
X709343Y435657D02*
G03*
X707000Y430000I5657J-5657D01*
G01*
X709353Y435667D02*
G03*
X707000Y430000I5647J-5667D01*
G01*
X758000Y330500D02*
G03*
X751283Y327718I0J-9500D01*
G01*
X758000Y330500D02*
G03*
X751283Y327718I0J-9500D01*
G01*
X780757Y311500D02*
G03*
X794500Y320000I4243J8500D01*
G01*
D02*
G03*
X791718Y326717I-9500J0D01*
G01*
X790717Y327718D02*
G03*
X784000Y330500I-6718J-6718D01*
G01*
X790717Y327718D02*
G03*
X784000Y330500I-6718J-6718D01*
G01*
X780757Y311500D02*
G03*
X794500Y320000I4243J8500D01*
G01*
D02*
G03*
X791708Y326727I-9500J0D01*
G01*
X829500Y305000D02*
G03*
X828000Y310124I-9500J0D01*
G01*
Y315000D02*
G03*
X825647Y320667I-8000J0D01*
G01*
X828000Y315000D02*
G03*
X825657Y320657I-8000J0D01*
G01*
X866000Y342365D02*
G03*
X853000Y328577I-6000J-7365D01*
G01*
X795657Y350657D02*
G03*
X790000Y353000I-5657J-5657D01*
G01*
X795667Y350647D02*
G03*
X790000Y353000I-5667J-5647D01*
G01*
X806040Y412000D02*
G03*
X806040Y412000I-7040J0D01*
G01*
X868050Y389950D02*
G03*
X866000Y385000I4950J-4950D01*
G01*
X868050Y389950D02*
G03*
X866000Y385000I4950J-4950D01*
G01*
X751114Y673500D02*
G03*
X760000Y645300I8886J-12700D01*
G01*
X753523Y700282D02*
G03*
X751114Y673500I6477J-14082D01*
G01*
X753523Y722918D02*
G03*
X753523Y700282I6477J-11318D01*
G01*
X760000Y752500D02*
G03*
X753523Y722918I0J-15500D01*
G01*
X850647Y554333D02*
G03*
X853000Y560000I-5647J5667D01*
G01*
X850657Y554343D02*
G03*
X853000Y560000I-5657J5657D01*
G01*
X770000Y645300D02*
G03*
X785500Y660800I0J15500D01*
G01*
Y686200D02*
G03*
X776477Y700282I-15500J0D01*
G01*
D02*
G03*
X783040Y711600I-6477J11318D01*
G01*
X785500Y660800D02*
G03*
X778886Y673500I-15500J0D01*
G01*
D02*
G03*
X785500Y686200I-8886J12700D01*
G01*
X776477Y722918D02*
G03*
X785500Y737000I-6477J14082D01*
G01*
D02*
G03*
X770000Y752500I-15500J0D01*
G01*
X783040Y711600D02*
G03*
X776477Y722918I-13040J0D01*
G01*
X853000Y629877D02*
G03*
X854500Y635000I-8000J5124D01*
G01*
D02*
G03*
X837000Y629877I-9500J0D01*
G01*
X886500Y344165D02*
G03*
X880000Y343617I-2500J-9165D01*
G01*
X908000Y332000D02*
G03*
X910050Y327050I7000J0D01*
G01*
X908000Y332000D02*
G03*
X910050Y327050I7000J0D01*
G01*
Y411950D02*
G03*
X908000Y407000I4950J-4950D01*
G01*
X910050Y411950D02*
G03*
X908000Y407000I4950J-4950D01*
G01*
X876000Y542683D02*
G03*
X876000Y535317I-6000J-3683D01*
G01*
X934951Y429108D02*
G03*
X920623Y422522I-4951J-8108D01*
G01*
X923000Y359000D02*
G03*
X925050Y354050I7000J0D01*
G01*
X923000Y359000D02*
G03*
X925050Y354050I7000J0D01*
G01*
X922000Y392877D02*
G03*
X923000Y391577I8000J5124D01*
G01*
X937000Y404423D02*
G03*
X922000Y403124I-7000J-6423D01*
G01*
X929417Y411518D02*
G03*
X937000Y414577I583J9482D01*
G01*
X953500Y432000D02*
G03*
X934951Y429108I-9500J0D01*
G01*
X951000Y425577D02*
G03*
X953500Y432000I-7000J6423D01*
G01*
X968000Y467000D02*
G03*
X970050Y462050I7000J0D01*
G01*
X968000Y467000D02*
G03*
X970050Y462050I7000J0D01*
G01*
X983500Y491243D02*
G03*
X968000Y480577I-8500J-4243D01*
G01*
X937500Y674100D02*
G03*
X953000Y689600I0J15500D01*
G01*
X923614Y702300D02*
G03*
X932500Y674100I8886J-12700D01*
G01*
X953000Y689600D02*
G03*
X946386Y702300I-15500J0D01*
G01*
X923614Y727700D02*
G03*
X923614Y702300I8886J-12700D01*
G01*
X932500Y755900D02*
G03*
X923614Y727700I0J-15500D01*
G01*
X953000Y740400D02*
G03*
X937500Y755900I-15500J0D01*
G01*
X946386Y702300D02*
G03*
X948902Y704500I-8886J12700D01*
G01*
Y725500D02*
G03*
X946386Y727700I-11402J-10500D01*
G01*
D02*
G03*
X953000Y740400I-8886J12700D01*
G01*
X1003500Y61558D02*
G03*
X997277Y69918I-12700J-2958D01*
G01*
X1003500Y55642D02*
G03*
X1028900Y55642I12700J2958D01*
G01*
Y61558D02*
G03*
X1022676Y69918I-12700J-2958D01*
G01*
X1009724D02*
G03*
X1003500Y61558I6477J-11318D01*
G01*
Y92886D02*
G03*
X1002996Y93566I-12700J-8886D01*
G01*
X997277Y69918D02*
G03*
X1003500Y75114I-6477J14082D01*
G01*
D02*
G03*
X1009724Y69918I12700J8886D01*
G01*
X1022676D02*
G03*
X1028900Y75114I-6477J14082D01*
G01*
Y92886D02*
G03*
X1023200Y97829I-12700J-8886D01*
G01*
X1009200D02*
G03*
X1003500Y92886I7000J-13829D01*
G01*
X1028900Y55642D02*
G03*
X1054300Y55642I12700J2958D01*
G01*
D02*
G03*
X1068717Y45673I12700J2958D01*
G01*
Y45673D02*
G03*
X1076014Y48438I579J9482D01*
G01*
X1076588Y49012D02*
G03*
X1078496Y51750I-6718J6718D01*
G01*
X1035124Y69918D02*
G03*
X1028900Y61558I6477J-11318D01*
G01*
X1054300D02*
G03*
X1048076Y69918I-12700J-2958D01*
G01*
X1060524D02*
G03*
X1054300Y61558I6477J-11318D01*
G01*
X1080474Y68500D02*
G03*
X1078318Y65077I11926J-9900D01*
G01*
D02*
G03*
X1073476Y69918I-11318J-6477D01*
G01*
X1107900Y58600D02*
G03*
X1104326Y68500I-15500J0D01*
G01*
X1078496Y51750D02*
G03*
X1107900Y58600I13904J6851D01*
G01*
X1048076Y69918D02*
G03*
X1054300Y75114I-6477J14082D01*
G01*
X1028900D02*
G03*
X1035124Y69918I12700J8886D01*
G01*
X1034600Y97829D02*
G03*
X1028900Y92886I7000J-13829D01*
G01*
X1054300D02*
G03*
X1048600Y97829I-12700J-8886D01*
G01*
X1054300Y75114D02*
G03*
X1060524Y69918I12700J8886D01*
G01*
X1073476D02*
G03*
X1076900Y72074I-6477J14082D01*
G01*
Y95926D02*
G03*
X1074000Y97829I-9900J-11926D01*
G01*
X1060000D02*
G03*
X1054300Y92886I7000J-13829D01*
G01*
X1050500Y244000D02*
G03*
X1034600Y236979I-9500J0D01*
G01*
X1048600Y237479D02*
G03*
X1049882Y240628I-6600J4521D01*
G01*
X1049881D02*
G03*
X1050500Y244000I-8881J3372D01*
G01*
X1043000Y331423D02*
G03*
X1059500Y325000I7000J-6423D01*
G01*
D02*
G03*
X1057000Y331423I-9500J0D01*
G01*
X1063000Y331353D02*
G03*
X1065050Y326403I7000J0D01*
G01*
X1063000Y331353D02*
G03*
X1065050Y326403I7000J0D01*
G01*
X1076500Y256000D02*
G03*
X1060000Y249577I-9500J0D01*
G01*
X1074000D02*
G03*
X1076500Y256000I-7000J6423D01*
G01*
X1065544Y325910D02*
G03*
X1084500Y325000I9456J-910D01*
G01*
X1115509Y324592D02*
G03*
X1134500Y325000I9491J408D01*
G01*
X1084500D02*
G03*
X1077000Y334287I-9500J0D01*
G01*
X1093000Y331423D02*
G03*
X1109500Y325000I7000J-6423D01*
G01*
D02*
G03*
X1107000Y331423I-9500J0D01*
G01*
X1134500Y325000D02*
G03*
X1125408Y334491I-9500J0D01*
G01*
X1333500Y152840D02*
G03*
X1333500Y134760I0J-9040D01*
G01*
Y129900D02*
G03*
X1333500Y106900I0J-11500D01*
G01*
Y203640D02*
G03*
X1333500Y185560I0J-9040D01*
G01*
Y180700D02*
G03*
X1333500Y157700I0J-11500D01*
G01*
Y231500D02*
G03*
X1333500Y208500I0J-11500D01*
G01*
X1330729Y83960D02*
G03*
X1342157Y83843I5771J5540D01*
G01*
X1425500Y50000D02*
G03*
X1425500Y50000I-25500J0D01*
G01*
X1346500Y134760D02*
G03*
X1355540Y143800I0J9040D01*
G01*
D02*
G03*
X1346500Y152840I-9040J0D01*
G01*
Y185560D02*
G03*
X1355540Y194600I0J9040D01*
G01*
X1346500Y157700D02*
G03*
X1358000Y169200I0J11500D01*
G01*
D02*
G03*
X1346500Y180700I-11500J0D01*
G01*
X1355540Y194600D02*
G03*
X1346500Y203640I-9040J0D01*
G01*
Y208500D02*
G03*
X1358000Y220000I0J11500D01*
G01*
D02*
G03*
X1346500Y231500I-11500J0D01*
G01*
X1358000Y118400D02*
G03*
X1346500Y129900I-11500J0D01*
G01*
Y106900D02*
G03*
X1358000Y118400I0J11500D01*
G01*
X1333500Y254440D02*
G03*
X1333500Y236360I0J-9040D01*
G01*
X1346500D02*
G03*
X1355540Y245400I0J9040D01*
G01*
D02*
G03*
X1346500Y254440I-9040J0D01*
G01*
X1333500Y282300D02*
G03*
X1333500Y259300I0J-11500D01*
G01*
X1346500D02*
G03*
X1358000Y270800I0J11500D01*
G01*
X1346500Y287160D02*
G03*
X1355540Y296200I0J9040D01*
G01*
X1333500Y305240D02*
G03*
X1333500Y287160I0J-9040D01*
G01*
Y333100D02*
G03*
X1333500Y310100I0J-11500D01*
G01*
X1355540Y296200D02*
G03*
X1346500Y305240I-9040J0D01*
G01*
Y310100D02*
G03*
X1358000Y321600I0J11500D01*
G01*
D02*
G03*
X1346500Y333100I-11500J0D01*
G01*
X1358000Y270800D02*
G03*
X1346500Y282300I-11500J0D01*
G01*
X983500Y470000D02*
G03*
X983646Y468253I10500J0D01*
G01*
X992253Y459646D02*
G03*
X1004500Y470000I1747J10354D01*
G01*
X1003000Y446000D02*
G03*
X1000950Y450950I-7000J0D01*
G01*
X1003000Y414986D02*
G03*
X1005592Y414509I3000J9014D01*
G01*
X1003000Y446000D02*
G03*
X1000950Y450950I-7000J0D01*
G01*
X982000Y480577D02*
G03*
X983500Y482757I-7000J6423D01*
G01*
X1004500Y502000D02*
G03*
X1001425Y509425I-10500J0D01*
G01*
X1004500Y502000D02*
G03*
X1001413Y509436I-10500J0D01*
G01*
X1003413Y564786D02*
G03*
X1006500Y572222I-7413J7436D01*
G01*
X1003425Y564798D02*
G03*
X1006500Y572222I-7425J7425D01*
G01*
X1015491Y424408D02*
G03*
X1003000Y433014I-9491J-408D01*
G01*
X1023200Y413800D02*
G03*
X1021150Y418750I-7000J0D01*
G01*
X1023200Y413800D02*
G03*
X1021150Y418750I-7000J0D01*
G01*
X1059500Y370000D02*
G03*
X1043000Y363577I-9500J0D01*
G01*
X1057000D02*
G03*
X1059500Y370000I-7000J6423D01*
G01*
X1077000Y353577D02*
G03*
X1079500Y360000I-7000J6423D01*
G01*
X1099491Y360408D02*
G03*
X1089592Y350509I-9491J-408D01*
G01*
X1079500Y360000D02*
G03*
X1063000Y353577I-9500J0D01*
G01*
X1119500Y360000D02*
G03*
X1100520Y359379I-9500J0D01*
G01*
X1117000Y353577D02*
G03*
X1119500Y360000I-7000J6423D01*
G01*
X1174500Y440000D02*
G03*
X1174164Y442504I-9500J0D01*
G01*
X1158000Y446423D02*
G03*
X1174500Y440000I7000J-6423D01*
G01*
X1174164Y442504D02*
G03*
X1186423Y443000I5836J7496D01*
G01*
X1212500D02*
G03*
X1217450Y445050I0J7000D01*
G01*
X1043790Y452500D02*
G03*
X1043790Y452500I-7040J0D01*
G01*
X1160050Y469950D02*
G03*
X1158000Y465000I4950J-4950D01*
G01*
X1160050Y469950D02*
G03*
X1158000Y465000I4950J-4950D01*
G01*
X1124443Y516243D02*
G03*
X1138100Y521900I5657J5657D01*
G01*
X1135657Y527657D02*
G03*
X1124343Y516343I-5657J-5657D01*
G01*
X1138100Y521900D02*
G03*
X1135757Y527557I-8000J0D01*
G01*
X1186423Y457000D02*
G03*
X1172000Y455123I-6423J-7000D01*
G01*
X1212500Y443000D02*
G03*
X1217450Y445050I0J7000D01*
G01*
X1197500Y560000D02*
G03*
X1197500Y560000I-15500J0D01*
G01*
X1219500Y510000D02*
G03*
X1200509Y510408I-9500J0D01*
G01*
X1210408Y500509D02*
G03*
X1219500Y510000I-408J9491D01*
G01*
X1017966Y644280D02*
G03*
X1029280Y632966I2034J-9280D01*
G01*
X1075000Y698000D02*
G03*
X1069343Y695657I0J-8000D01*
G01*
X1075000Y698000D02*
G03*
X1069333Y695647I0J-8000D01*
G01*
X1234950Y462550D02*
G03*
X1237000Y467500I-4950J4950D01*
G01*
X1234950Y462550D02*
G03*
X1237000Y467500I-4950J4950D01*
G01*
X1302343Y474657D02*
G03*
X1313657Y463343I5657J-5657D01*
G01*
X1239500Y510000D02*
G03*
X1223000Y503577I-9500J0D01*
G01*
X1237000D02*
G03*
X1239500Y510000I-7000J6423D01*
G01*
X1245143Y516143D02*
G03*
X1258800Y521800I5657J5657D01*
G01*
X1245500Y560000D02*
G03*
X1245500Y560000I-15500J0D01*
G01*
X1256357Y527557D02*
G03*
X1245043Y516243I-5657J-5657D01*
G01*
X1258800Y521800D02*
G03*
X1256457Y527457I-8000J0D01*
G01*
X1292575Y652575D02*
G03*
X1300000Y649500I7425J7425D01*
G01*
X1248500Y663500D02*
G03*
X1270782Y659500I11500J0D01*
G01*
X1292564Y652587D02*
G03*
X1300000Y649500I7436J7413D01*
G01*
X1333500Y431500D02*
G03*
X1333500Y408500I0J-11500D01*
G01*
Y456900D02*
G03*
X1333500Y433900I0J-11500D01*
G01*
X1358000Y445400D02*
G03*
X1346500Y456900I-11500J0D01*
G01*
X1358000Y420000D02*
G03*
X1346500Y431500I-11500J0D01*
G01*
Y408500D02*
G03*
X1358000Y420000I0J11500D01*
G01*
X1346500Y433900D02*
G03*
X1358000Y445400I0J11500D01*
G01*
X1315457Y465143D02*
G03*
X1317800Y470800I-5657J5657D01*
G01*
X1346500Y461760D02*
G03*
X1355540Y470800I0J9040D01*
G01*
X1317800D02*
G03*
X1304143Y476457I-8000J0D01*
G01*
X1333500Y479840D02*
G03*
X1333500Y461760I0J-9040D01*
G01*
X1355540Y470800D02*
G03*
X1346500Y479840I-9040J0D01*
G01*
X1225960Y663500D02*
G03*
X1244040Y663500I9040J0D01*
G01*
X1227826Y682000D02*
G03*
X1225960Y676500I7174J-5500D01*
G01*
X1244040D02*
G03*
X1242174Y682000I-9040J0D01*
G01*
X1249901D02*
G03*
X1248500Y676500I10100J-5500D01*
G01*
X1270782Y680500D02*
G03*
X1267974Y684787I-10782J-4000D01*
G01*
X1259799Y695657D02*
G03*
X1254142Y698000I-5657J-5657D01*
G01*
X1259809Y695647D02*
G03*
X1254142Y698000I-5667J-5647D01*
G01*
X1267974Y684787D02*
G03*
X1265647Y689809I-7974J-644D01*
G01*
X1267974Y684787D02*
G03*
X1265657Y689799I-7974J-644D01*
G01*
X1297425Y677425D02*
G03*
X1290000Y680500I-7425J-7425D01*
G01*
X1297436Y677413D02*
G03*
X1290000Y680500I-7436J-7413D01*
G01*
X1322759Y681292D02*
G03*
X1333500Y673900I10741J4108D01*
G01*
X1346500D02*
G03*
X1358000Y685400I0J11500D01*
G01*
D02*
G03*
X1346500Y696900I-11500J0D01*
G01*
X1311325Y722425D02*
G03*
X1303900Y725500I-7425J-7425D01*
G01*
X1311336Y722413D02*
G03*
X1303900Y725500I-7436J-7413D01*
G01*
X368989Y5777D02*
X374766Y0D01*
X368975Y12862D02*
X381837Y0D01*
X368961Y19947D02*
X388908Y0D01*
X368947Y27032D02*
X395979Y0D01*
X368934Y34116D02*
X403050Y0D01*
X394549Y29714D02*
X424263Y0D01*
X406608Y24727D02*
X431334Y0D01*
X395979D02*
X426764Y30785D01*
X374766Y0D02*
X400933Y26167D01*
X381837Y0D02*
X406569Y24732D01*
X388908Y0D02*
X413674Y24766D01*
X368920Y41201D02*
X410121Y0D01*
X368906Y48286D02*
X417192Y0D01*
X368741Y133304D02*
X502045Y0D01*
X368727Y140388D02*
X509116Y0D01*
X368714Y147473D02*
X516187Y0D01*
X368700Y154558D02*
X523258Y0D01*
X435134Y45697D02*
X480832Y0D01*
X435374Y52528D02*
X487903Y0D01*
X438405D02*
X531095Y92690D01*
X433547Y40213D02*
X473761Y0D01*
X431884Y63090D02*
X494974Y0D01*
X431334D02*
X531427Y100092D01*
X537400Y0D02*
X615830Y78430D01*
X544471Y0D02*
X622901Y78430D01*
X516187Y0D02*
X594617Y78430D01*
X530329Y0D02*
X608759Y78430D01*
X523258Y0D02*
X601688Y78430D01*
X558613Y0D02*
X637043Y78430D01*
X572107D02*
X650537Y0D01*
X565036Y78430D02*
X643466Y0D01*
X550894Y78430D02*
X629324Y0D01*
X557965Y78430D02*
X636395Y0D01*
X551542D02*
X629972Y78430D01*
X466690Y0D02*
X545479Y78790D01*
X480832Y0D02*
X559261Y78430D01*
X473761Y0D02*
X552190Y78430D01*
X445476Y0D02*
X534021Y88544D01*
X459618Y0D02*
X541092Y81473D01*
X452547Y0D02*
X537556Y85009D01*
X509116Y0D02*
X587546Y78430D01*
X572755Y0D02*
X697255Y124500D01*
X565684Y0D02*
X690184Y124500D01*
X487903Y0D02*
X566333Y78430D01*
X502045Y0D02*
X580475Y78430D01*
X494974Y0D02*
X573404Y78430D01*
X368956Y22475D02*
X386524Y40043D01*
X368970Y15417D02*
X389036Y35483D01*
X368929Y36589D02*
X384600Y52261D01*
X368943Y29532D02*
X384902Y45491D01*
X368893Y55371D02*
X389714Y34550D01*
X413644Y24762D02*
X438405Y0D01*
X419243Y26234D02*
X445476Y0D01*
X423916Y28632D02*
X452547Y0D01*
X368984Y8360D02*
X392283Y31660D01*
X368997Y1303D02*
X396231Y28537D01*
X368997Y1303D02*
X396231Y28537D01*
X368824Y90795D02*
X391779Y67839D01*
X368810Y97880D02*
X395626Y71063D01*
X368755Y126219D02*
X423090Y71884D01*
X368796Y104964D02*
X400213Y73547D01*
X368782Y112049D02*
X405697Y75134D01*
X368769Y119134D02*
X412528Y75374D01*
X368879Y62456D02*
X384727Y46608D01*
X368915Y43647D02*
X387781Y62512D01*
X368865Y69540D02*
X384762Y53644D01*
X368851Y76625D02*
X386234Y59243D01*
X368838Y83710D02*
X388632Y63916D01*
X427840Y31779D02*
X459618Y0D01*
X431063Y35626D02*
X466690Y0D01*
X533292Y89273D02*
X541353Y81212D01*
X548070Y78430D02*
X638172D01*
X578261Y97430D02*
X582966Y102134D01*
X546727Y102708D02*
X552005Y97430D01*
X585854D01*
X571190D02*
X579469Y105709D01*
X410121Y0D02*
X578000Y167879D01*
X424263Y0D02*
X578000Y153737D01*
X417192Y0D02*
X578000Y160808D01*
X368686Y161643D02*
X530329Y0D01*
X543310Y104905D02*
X578000Y139595D01*
X535908Y104573D02*
X578000Y146666D01*
X550991Y98444D02*
X578000Y125453D01*
X564119Y97430D02*
X578000Y111310D01*
X557048Y97430D02*
X578000Y118382D01*
X547456Y101979D02*
X578000Y132524D01*
X600392Y78430D02*
X678821Y0D01*
X607463Y78430D02*
X685892Y0D01*
X579178Y78430D02*
X657608Y0D01*
X593320Y78430D02*
X671750Y0D01*
X586249Y78430D02*
X664679Y0D01*
X614534Y78430D02*
X692963Y0D01*
X628676Y78430D02*
X707105Y0D01*
X621605Y78430D02*
X700034Y0D01*
X644890Y81212D02*
X646647Y82970D01*
X586898Y0D02*
X711397Y124500D01*
X579827Y0D02*
X704326Y124500D01*
X604146Y97430D02*
X605854D01*
X649430Y89687D02*
Y124500D01*
X627759Y97430D02*
X630430Y100101D01*
X649430Y90816D02*
X683113Y124500D01*
X630430Y97430D02*
Y124500D01*
X648882Y86508D02*
X735390Y0D01*
X649430Y114244D02*
X763674Y0D01*
X649430Y121315D02*
X770745Y0D01*
X635747Y78430D02*
X714176Y0D01*
X642009Y79239D02*
X721248Y0D01*
X645998Y82320D02*
X728319Y0D01*
X688671Y124500D02*
X813171Y0D01*
X702813Y124500D02*
X827313Y0D01*
X695742Y124500D02*
X820242Y0D01*
X649430Y93031D02*
X742461Y0D01*
X649430Y100102D02*
X749532Y0D01*
X649430Y107173D02*
X756603Y0D01*
X615182D02*
X739682Y124500D01*
X629324Y0D02*
X753824Y124500D01*
X622253Y0D02*
X746753Y124500D01*
X593969Y0D02*
X718469Y124500D01*
X608111Y0D02*
X732611Y124500D01*
X601040Y0D02*
X725540Y124500D01*
X667458D02*
X791958Y0D01*
X681600Y124500D02*
X806100Y0D01*
X674529Y124500D02*
X799029Y0D01*
X636395D02*
X761486Y125091D01*
X660387Y124500D02*
X784887Y0D01*
X653316Y124500D02*
X777816Y0D01*
X580050Y105050D02*
X585509Y99592D01*
X592000Y112900D02*
X595408Y109491D01*
X592000Y113101D02*
X595621Y109480D01*
X602000Y122900D02*
X615408Y109491D01*
X604480Y100621D02*
X605509Y99592D01*
X613472Y111427D02*
X626545Y124500D01*
X609937Y114963D02*
X619474Y124500D01*
X617961D02*
X630430Y112031D01*
X612022Y124500D02*
X630430D01*
X602000Y133390D02*
X602574Y132816D01*
X602000Y135310D02*
X602719Y136030D01*
X602000Y140461D02*
X603750Y138711D01*
X602000Y147532D02*
X607285Y142247D01*
X602000Y154603D02*
X613103Y143500D01*
X602000Y161674D02*
X620174Y143500D01*
X602866Y122034D02*
X606849Y126018D01*
X606401Y118498D02*
X612403Y124500D01*
X602000Y126319D02*
X620777Y107542D01*
X602000Y128239D02*
X603506Y129745D01*
X624428Y101170D02*
X630430Y107172D01*
X624146Y97430D02*
X630430D01*
X622542Y105777D02*
X630430Y97889D01*
X625032Y124500D02*
X630430Y119102D01*
X622285Y106098D02*
X630430Y114243D01*
X618097Y108981D02*
X630430Y121314D01*
X649430Y112030D02*
X661900Y124500D01*
X649430Y97887D02*
X676042Y124500D01*
X649430Y104958D02*
X668971Y124500D01*
X649430Y119101D02*
X654829Y124500D01*
X740000D02*
X758188D01*
X649430D02*
X740000D01*
X610816Y124574D02*
X630430Y104960D01*
X723326Y143500D02*
X730500Y150674D01*
X716255Y143500D02*
X730500Y157745D01*
X612022Y143500D02*
X639930D01*
X639930D02*
X730500D01*
X709184D02*
X730500Y164816D01*
X749500Y148524D02*
X754524Y143500D01*
X749500D02*
X755757D01*
X749500Y155595D02*
X760615Y144480D01*
X368604Y204152D02*
X572755Y0D01*
X368590Y211237D02*
X579827Y0D01*
X368493Y260830D02*
X530832Y98491D01*
X368480Y267915D02*
X533483Y102912D01*
X368466Y275000D02*
X538148Y105318D01*
X368672Y168728D02*
X537400Y0D01*
X403050D02*
X578000Y174950D01*
X368659Y175813D02*
X544471Y0D01*
X368645Y182897D02*
X551542Y0D01*
X368631Y189982D02*
X558613Y0D01*
X368617Y197067D02*
X565684Y0D01*
X368000Y515000D02*
X369000Y0D01*
X368370Y324594D02*
X578000Y114963D01*
X368356Y331678D02*
X578000Y122034D01*
X368315Y352933D02*
X578000Y143247D01*
X368342Y338763D02*
X578000Y129105D01*
X368328Y345848D02*
X578000Y136177D01*
X368452Y282085D02*
X553107Y97430D01*
X368438Y289170D02*
X560178Y97430D01*
X368425Y296254D02*
X567249Y97430D01*
X368411Y303339D02*
X574320Y97430D01*
X368397Y310424D02*
X581391Y97430D01*
X368383Y317509D02*
X578507Y107386D01*
X368576Y218321D02*
X586898Y0D01*
X368562Y225406D02*
X593969Y0D01*
X368549Y232491D02*
X601040Y0D01*
X368535Y239576D02*
X608111Y0D01*
X368521Y246661D02*
X615182Y0D01*
X368507Y253745D02*
X622253Y0D01*
X368874Y64819D02*
X657507Y353451D01*
X368901Y50704D02*
X661176Y342978D01*
X368888Y57762D02*
X658541Y347415D01*
X397488Y72219D02*
X664995Y339727D01*
X368847Y78934D02*
X675640Y385726D01*
X368833Y85991D02*
X668895Y386053D01*
X368723Y142450D02*
X741274Y515000D01*
X368751Y128335D02*
X755416Y515000D01*
X368737Y135392D02*
X748345Y515000D01*
X368081Y473375D02*
X697955Y143500D01*
X368067Y480460D02*
X705027Y143500D01*
X368053Y487544D02*
X712098Y143500D01*
X368806Y100106D02*
X660515Y391815D01*
X368819Y93048D02*
X664089Y388318D01*
X368860Y71876D02*
X707000Y410016D01*
X368778Y114220D02*
X657641Y403083D01*
X368792Y107163D02*
X658159Y396530D01*
X368764Y121278D02*
X762487Y515000D01*
X368205Y409611D02*
X578000Y199816D01*
X368218Y402527D02*
X578000Y192745D01*
X368177Y423781D02*
X575598Y216360D01*
X368191Y416696D02*
X578000Y206887D01*
X368163Y430866D02*
X577815Y221215D01*
X368273Y374187D02*
X578000Y164461D01*
X368301Y360018D02*
X578000Y150319D01*
X368287Y367103D02*
X578000Y157390D01*
X368232Y395442D02*
X578000Y185674D01*
X368260Y381272D02*
X578000Y171532D01*
X368246Y388357D02*
X578000Y178603D01*
X368150Y437951D02*
X582065Y224035D01*
X368136Y445035D02*
X585900Y227271D01*
X368122Y452120D02*
X586339Y233903D01*
X368408Y304769D02*
X578639Y515000D01*
X368108Y459205D02*
X589539Y237774D01*
X368095Y466290D02*
X594885Y239499D01*
X368463Y276539D02*
X606924Y515000D01*
X368490Y262425D02*
X621066Y515000D01*
X368477Y269482D02*
X613995Y515000D01*
X368422Y297711D02*
X585710Y515000D01*
X368449Y283597D02*
X599853Y515000D01*
X368436Y290654D02*
X592781Y515000D01*
X368040Y494629D02*
X719169Y143500D01*
X368026Y501714D02*
X726240Y143500D01*
X368012Y508799D02*
X730500Y146311D01*
X368669Y170679D02*
X712990Y515000D01*
X368696Y156564D02*
X727132Y515000D01*
X368682Y163622D02*
X720061Y515000D01*
X375953D02*
X730500Y160453D01*
X368710Y149507D02*
X734203Y515000D01*
X368882D02*
X730500Y153382D01*
X397166Y515000D02*
X730500Y181666D01*
X383024Y515000D02*
X730500Y167524D01*
X390095Y515000D02*
X730500Y174595D01*
X368545Y234195D02*
X649350Y515000D01*
X368573Y220081D02*
X663492Y515000D01*
X368559Y227138D02*
X656421Y515000D01*
X368504Y255367D02*
X628137Y515000D01*
X368531Y241253D02*
X642279Y515000D01*
X368518Y248310D02*
X635208Y515000D01*
X368628Y191851D02*
X691776Y515000D01*
X368655Y177736D02*
X705918Y515000D01*
X368641Y184794D02*
X698847Y515000D01*
X368586Y213023D02*
X670563Y515000D01*
X368614Y198909D02*
X684705Y515000D01*
X368600Y205966D02*
X677634Y515000D01*
X435234Y46326D02*
X578000Y189092D01*
X429215Y33236D02*
X578000Y182021D01*
Y110000D02*
Y208577D01*
X435268Y53431D02*
X578000Y196163D01*
X433833Y59068D02*
X578000Y203234D01*
X602000Y168745D02*
X627245Y143500D01*
X602000Y175816D02*
X634316Y143500D01*
X602000Y182887D02*
X641387Y143500D01*
X602000Y189958D02*
X648458Y143500D01*
X602000Y197029D02*
X655529Y143500D01*
X602000Y204100D02*
X662600Y143500D01*
X428340Y67717D02*
X575501Y214877D01*
X431463Y63769D02*
X577229Y209535D01*
X424517Y70964D02*
X585760Y232207D01*
X407739Y75400D02*
X670111Y337772D01*
X414509Y75098D02*
X677613Y338202D01*
X419957Y73476D02*
X707000Y360518D01*
X431463Y63769D02*
X577229Y209535D01*
X602000Y122900D02*
Y223577D01*
X604499Y229885D02*
X690884Y143500D01*
X602000Y211171D02*
X669671Y143500D01*
X602000Y218242D02*
X676742Y143500D01*
X602774Y224540D02*
X683813Y143500D01*
X652616D02*
X730500Y221384D01*
X650537Y0D02*
X829126Y178589D01*
X659687Y143500D02*
X730500Y214313D01*
X631403Y143500D02*
X730500Y242597D01*
X645545Y143500D02*
X730500Y228455D01*
X638474Y143500D02*
X730500Y235526D01*
X687971Y143500D02*
X730500Y186029D01*
X702113Y143500D02*
X730500Y171887D01*
X695042Y143500D02*
X730500Y178958D01*
X666758Y143500D02*
X730500Y207242D01*
X680900Y143500D02*
X730500Y193100D01*
X673829Y143500D02*
X730500Y200171D01*
X602000Y163595D02*
X730500Y292095D01*
X602000Y149452D02*
X730500Y277953D01*
X602000Y156524D02*
X730500Y285024D01*
X602000Y170666D02*
X730500Y299166D01*
X602000Y177737D02*
X731494Y307231D01*
X602000Y184808D02*
X754192Y337000D01*
X609970Y143281D02*
X730500Y263810D01*
X749500Y143500D02*
Y269978D01*
X602000Y142381D02*
X730500Y270882D01*
X617261Y143500D02*
X730500Y256739D01*
X624332Y143500D02*
X730500Y249668D01*
Y143500D02*
Y269978D01*
X602000Y213092D02*
X725908Y337000D01*
X585123Y224499D02*
X586461Y225837D01*
X602000Y220163D02*
X720337Y338500D01*
X730500Y270022D02*
Y303000D01*
X662377Y341713D02*
X730500Y273590D01*
X683606Y341697D02*
X730500Y294803D01*
X673647Y337514D02*
X730500Y280661D01*
X679365Y338867D02*
X730500Y287732D01*
X446663Y515000D02*
X730500Y231163D01*
X404237Y515000D02*
X730500Y188737D01*
X439592Y515000D02*
X730500Y224092D01*
X482019Y515000D02*
X730500Y266519D01*
X467877Y515000D02*
X730500Y252377D01*
X474948Y515000D02*
X730500Y259448D01*
X602928Y235234D02*
X713191Y345496D01*
X604496Y229730D02*
X716726Y341960D01*
X602928Y235234D02*
X713191Y345496D01*
X592793Y239240D02*
X707128Y353575D01*
X686674Y345700D02*
X730500Y301874D01*
X599163Y238539D02*
X709655Y349031D01*
X749500Y296952D02*
X764047Y311500D01*
X749500Y282810D02*
X778190Y311500D01*
X749500Y289881D02*
X771118Y311500D01*
X749500Y299065D02*
X761935Y311500D01*
X749500Y240384D02*
X811019Y301903D01*
X749500Y226242D02*
X818830Y295572D01*
X749500Y233313D02*
X813902Y297715D01*
X749500Y270022D02*
Y299065D01*
Y247455D02*
X811743Y309698D01*
X749500Y275739D02*
X784287Y310527D01*
X425450Y515000D02*
X730500Y209950D01*
X411308Y515000D02*
X730500Y195808D01*
X418379Y515000D02*
X730500Y202879D01*
X460806Y515000D02*
X730500Y245306D01*
X432521Y515000D02*
X730500Y217021D01*
X453735Y515000D02*
X730500Y238235D01*
X602000Y206021D02*
X732979Y337000D01*
X602000Y191879D02*
X747121Y337000D01*
X602000Y198950D02*
X740050Y337000D01*
X749500Y268668D02*
X802259Y321427D01*
X749500Y254526D02*
X809330Y314356D01*
X749500Y261597D02*
X805795Y317892D01*
X770745Y0D02*
X849291Y78546D01*
X777816Y0D02*
X851893Y74077D01*
X763674Y0D02*
X848313Y84639D01*
X738169Y124500D02*
X862669Y0D01*
X731098Y124500D02*
X855598Y0D01*
X806100D02*
X855040Y48940D01*
X820242Y0D02*
X865987Y45745D01*
X813171Y0D02*
X859471Y46300D01*
X791958Y0D02*
X850762Y58804D01*
X799029Y0D02*
X852025Y52996D01*
X784887Y0D02*
X855683Y70795D01*
X709884Y124500D02*
X834384Y0D01*
X714176D02*
X868000Y153823D01*
X707105Y0D02*
X866993Y159888D01*
X657608Y0D02*
X831647Y174039D01*
X700034Y0D02*
X865512Y165478D01*
X664679Y0D02*
X835947Y171268D01*
X728319Y0D02*
X865841Y137522D01*
X742461Y0D02*
X869626Y127166D01*
X735390Y0D02*
X866385Y130996D01*
X716955Y124500D02*
X841456Y0D01*
X724026Y124500D02*
X848527Y0D01*
X721248D02*
X868000Y146753D01*
X848527Y0D02*
X896000Y47473D01*
X862669Y0D02*
X909338Y46669D01*
X858334Y46761D02*
X905095Y0D01*
X834384D02*
X882068Y47683D01*
X369000Y0D02*
X1442000D01*
X841456D02*
X887174Y45718D01*
X887737Y45642D02*
X933379Y0D01*
X890953D02*
X936889Y45936D01*
X893982Y46468D02*
X940450Y0D01*
X866354Y45813D02*
X912166Y0D01*
X869740D02*
X915320Y45580D01*
X871303Y47934D02*
X919237Y0D01*
X759315Y124567D02*
X883882Y0D01*
X764382Y126571D02*
X890953Y0D01*
X768057Y129967D02*
X898024Y0D01*
X745240Y124500D02*
X869740Y0D01*
X752311Y124500D02*
X876811Y0D01*
X749532D02*
X875032Y125500D01*
X874765Y51543D02*
X926308Y0D01*
X883882D02*
X932104Y48222D01*
X876811Y0D02*
X928775Y51964D01*
X827313Y0D02*
X878484Y51170D01*
X855598Y0D02*
X905180Y49583D01*
X769480Y135615D02*
X851961Y53134D01*
X855210Y71098D02*
X856743Y69565D01*
X876100Y62929D02*
X877472Y64301D01*
X868000Y141423D02*
Y158577D01*
X874714Y65736D02*
X877068Y63382D01*
X749500Y176808D02*
X850898Y75410D01*
X749500Y162666D02*
X851012Y61154D01*
X749500Y169737D02*
X853135Y66103D01*
X831343Y174343D02*
X832343Y173343D01*
X749500Y183879D02*
X848335Y85044D01*
X845994Y179309D02*
X868000Y157303D01*
X839926Y171235D02*
X868000Y143161D01*
X844239Y173993D02*
X868000Y150232D01*
X873460Y67360D02*
X878699Y72599D01*
X874620Y72901D02*
X879841Y67680D01*
X870240Y126778D02*
X902878Y94141D01*
X896630Y69316D02*
X902120Y74807D01*
X878077Y126012D02*
X906734Y97356D01*
X882273Y128888D02*
X911898Y99263D01*
X882000Y150374D02*
X934058Y98316D01*
X882000Y157445D02*
X939945Y99500D01*
X882000Y141423D02*
Y158577D01*
X884425Y133807D02*
X919540Y98692D01*
X882000Y143303D02*
X929711Y95592D01*
X883163Y98276D02*
X967000Y182113D01*
X884133Y162383D02*
X946308Y100208D01*
X891313Y99355D02*
X967000Y175042D01*
X898280Y49241D02*
X947521Y0D01*
X901169Y53424D02*
X954592Y0D01*
X900327Y51800D02*
X902434Y53907D01*
X898024Y0D02*
X944321Y46297D01*
X912166Y0D02*
X959261Y47095D01*
X919237Y0D02*
X964810Y45573D01*
X916025Y45638D02*
X961663Y0D01*
X905095D02*
X955366Y50271D01*
X952303Y54279D02*
X952902Y54878D01*
X897698Y71037D02*
X903421Y65314D01*
X926531Y63862D02*
X932894Y70225D01*
X900117Y65732D02*
X905697Y71312D01*
X926834Y63114D02*
X927531Y62417D01*
X947690Y70542D02*
X953758Y64474D01*
X940450Y0D02*
X986679Y46228D01*
X947521Y0D02*
X993329Y45808D01*
X943817Y46131D02*
X989948Y0D01*
X921313Y47421D02*
X968735Y0D01*
X936956Y45920D02*
X982877Y0D01*
X933379D02*
X982188Y48809D01*
X968735Y0D02*
X1014417Y45683D01*
X971274Y46958D02*
X1018232Y0D01*
X975806D02*
X1023833Y48027D01*
X948396Y48623D02*
X997019Y0D01*
X965599Y45561D02*
X1011161Y0D01*
X961663D02*
X1009238Y47574D01*
X926308Y0D02*
X979117Y52808D01*
X954592Y0D02*
X1005599Y51007D01*
X951547Y52542D02*
X1004090Y0D01*
X925031Y50775D02*
X975806Y0D01*
X977802Y54572D02*
X978745Y53629D01*
X975249Y50054D02*
X1025303Y0D01*
X976905Y64739D02*
X982856Y70690D01*
X923617Y68020D02*
X928840Y73243D01*
X924741Y72278D02*
X930023Y66996D01*
X901385Y74420D02*
X906775Y69031D01*
X950378Y66496D02*
X955751Y71869D01*
X951592Y73711D02*
X956854Y68449D01*
X931013Y96629D02*
X949280Y114896D01*
X923793Y96480D02*
X948224Y120911D01*
X940928Y99472D02*
X953564Y112108D01*
X955731Y111998D02*
X956915Y110814D01*
X961984Y119888D02*
X963986Y117885D01*
X959104Y124720D02*
X967000Y132616D01*
X973729Y68634D02*
X979020Y73926D01*
X966814Y100915D02*
X968553Y99176D01*
X970350Y104450D02*
X979840Y94960D01*
X973823Y97012D02*
X989000Y112189D01*
X974823Y71693D02*
X980251Y66265D01*
X973885Y107986D02*
X983961Y97910D01*
X977531Y93649D02*
X989000Y105118D01*
X977421Y111522D02*
X989000Y99942D01*
X944829Y98729D02*
X967000Y120899D01*
X900601Y94501D02*
X967000Y160900D01*
X896631Y97602D02*
X967000Y167971D01*
X953089Y125776D02*
X967000Y139687D01*
X919081Y98838D02*
X967000Y146758D01*
X912533Y99361D02*
X967000Y153829D01*
X965399Y99500D02*
X978950Y113050D01*
X980531Y115482D02*
X989000Y107014D01*
X968851Y99111D02*
X989000Y119260D01*
X961892Y120436D02*
X967000Y125545D01*
X643466Y0D02*
X849008Y205542D01*
X749500Y190950D02*
X849799Y90651D01*
X751611Y143500D02*
X840927Y232816D01*
X749500Y198021D02*
X852701Y94820D01*
X759676Y144494D02*
X841320Y226138D01*
X768522Y139198D02*
X841065Y211741D01*
X769256Y132861D02*
X844008Y207613D01*
X765202Y142949D02*
X841496Y219243D01*
X842657Y185657D02*
X843657Y184657D01*
X749500Y275803D02*
X837309Y187994D01*
X749500Y176745D02*
X853000Y280245D01*
X749500Y183816D02*
X853000Y287316D01*
X749500Y205029D02*
X853000Y308529D01*
X749500Y190887D02*
X853000Y294387D01*
X749500Y197958D02*
X853000Y301458D01*
X749500Y162603D02*
X833686Y246789D01*
X749500Y148460D02*
X853000Y251960D01*
X749500Y155531D02*
X853000Y259032D01*
X749500Y261661D02*
X829235Y181926D01*
X749500Y169674D02*
X830394Y250567D01*
X749500Y268732D02*
X831993Y186239D01*
X671750Y0D02*
X879796Y208045D01*
X692963Y0D02*
X893924Y200961D01*
X685892Y0D02*
X889522Y203629D01*
X749500Y205092D02*
X856776Y97817D01*
X842961Y185353D02*
X865608Y208000D01*
X838411Y187875D02*
X858537Y208000D01*
X847852Y205735D02*
X949844Y103743D01*
X863161Y99487D02*
X967000Y203326D01*
X854189Y206469D02*
X953379Y107279D01*
X845732Y181053D02*
X872679Y208000D01*
X866800D02*
X950438Y124362D01*
X859729Y208000D02*
X947998Y119731D01*
X749500Y254590D02*
X866012Y138077D01*
X678821Y0D02*
X886911Y208090D01*
X749500Y247519D02*
X866778Y130240D01*
X749500Y282874D02*
X865657Y166717D01*
X749500Y289945D02*
X868011Y171434D01*
X749500Y297016D02*
X872383Y174133D01*
X749500Y219235D02*
X871017Y97717D01*
X756603Y0D02*
X967000Y210397D01*
X749500Y226306D02*
X879620Y96185D01*
X749500Y212164D02*
X862242Y99422D01*
X749500Y233377D02*
X884204Y98673D01*
X749500Y240448D02*
X890502Y99445D01*
X835810Y246061D02*
X844284Y237588D01*
X841421Y247521D02*
X849458Y239485D01*
X847184Y239073D02*
X853000Y244889D01*
X843974Y252039D02*
X853000Y243013D01*
X843211Y256314D02*
X853000Y266103D01*
X839433Y259606D02*
X853000Y273174D01*
X752011Y301576D02*
X840735Y212852D01*
X755547Y305112D02*
X841469Y219189D01*
X759082Y308647D02*
X841129Y226600D01*
X770371Y311500D02*
X830061Y251810D01*
X763300Y311500D02*
X841206Y233594D01*
X777442Y311500D02*
X831521Y257421D01*
X793781Y316375D02*
X853000Y257156D01*
X790691Y312393D02*
X853000Y250084D01*
Y239014D02*
Y328577D01*
X821592Y295634D02*
X853000Y264227D01*
X785500Y310513D02*
X836039Y259974D01*
X856423Y208000D02*
X879000D01*
X856405Y222000D02*
X876100D01*
X856423Y223000D02*
X858243D01*
X858845Y223026D02*
X859871Y222000D01*
X863542Y225400D02*
X866942Y222000D01*
X866597Y229417D02*
X874014Y222000D01*
X858395D02*
X859511Y223116D01*
X863192Y225050D02*
X864950Y226808D01*
X826357Y297941D02*
X853000Y271298D01*
X749500Y212100D02*
X853000Y315600D01*
X749500Y219171D02*
X853000Y322671D01*
X724448Y428134D02*
X853000Y299582D01*
X828000Y310440D02*
X853000Y285440D01*
X827348Y318162D02*
X853000Y292511D01*
X865466Y222000D02*
X877000Y233534D01*
X829099Y302270D02*
X853000Y278369D01*
X866884Y230489D02*
X877000Y240605D01*
X874522Y174488D02*
X901592Y201557D01*
X873871Y208000D02*
X955888Y125984D01*
X867000Y236084D02*
X877000Y226084D01*
X876100Y222000D02*
X877000Y222899D01*
X872537Y222000D02*
X877000Y226463D01*
X886500Y211000D02*
Y212600D01*
X884957Y211057D02*
X886624Y209389D01*
X883950Y210050D02*
X886500Y212600D01*
X907500Y211000D02*
Y468873D01*
X906443Y206409D02*
X967000Y266966D01*
X907500Y280437D02*
X967000Y220937D01*
X867000Y231757D02*
Y276635D01*
X877000Y222899D02*
Y275383D01*
X907500Y228679D02*
X957961Y279140D01*
X907500Y266295D02*
X967000Y206795D01*
X907500Y252153D02*
X967000Y192653D01*
X907500Y259224D02*
X967000Y199724D01*
X907500Y221608D02*
X961496Y275604D01*
X907500Y214537D02*
X965032Y272069D01*
X907500Y273366D02*
X967000Y213866D01*
X880726Y208216D02*
X967000Y121942D01*
X873723Y95907D02*
X967000Y189184D01*
X869254Y98509D02*
X967000Y196255D01*
X882834Y140373D02*
X967000Y224539D01*
X895389Y200624D02*
X967000Y129014D01*
X884500Y134968D02*
X967000Y217468D01*
X907431Y209796D02*
X967000Y150227D01*
X901548Y201536D02*
X967000Y136084D01*
X905424Y204732D02*
X967000Y143156D01*
X907500Y223869D02*
X967000Y164369D01*
X981000Y181971D02*
X989000Y189971D01*
X907500Y216798D02*
X967000Y157298D01*
X884298Y163050D02*
X967000Y245753D01*
X882000Y146610D02*
X967000Y231610D01*
X882000Y153681D02*
X967000Y238681D01*
X907500Y287508D02*
X967000Y228008D01*
X883473Y169296D02*
X967000Y252824D01*
X880113Y173007D02*
X967000Y259895D01*
X907500Y238011D02*
X967000Y178511D01*
X907500Y230940D02*
X967000Y171440D01*
Y120899D02*
Y270100D01*
X907500Y245082D02*
X967000Y185582D01*
X975916Y537289D02*
X1332545Y180660D01*
X979452Y540825D02*
X1324533Y195744D01*
X867000Y264369D02*
X877000Y254369D01*
X867000Y251818D02*
X877000Y261818D01*
X867000Y265960D02*
X876039Y274999D01*
X867000Y258889D02*
X877000Y268889D01*
X867000Y271440D02*
X877000Y261440D01*
X867000Y250227D02*
X877000Y240227D01*
X867000Y243156D02*
X877000Y233156D01*
X867000Y237676D02*
X877000Y247676D01*
X870738Y274773D02*
X877000Y268511D01*
X867000Y244747D02*
X877000Y254747D01*
X867000Y257298D02*
X877000Y247298D01*
X867000Y273031D02*
X869243Y275275D01*
X907500Y278176D02*
X933212Y303888D01*
X907500Y299389D02*
X922606Y314495D01*
X907500Y285247D02*
X929677Y307424D01*
X907500Y292318D02*
X926141Y310959D01*
X907500Y249892D02*
X947354Y289746D01*
X907500Y235750D02*
X954425Y282675D01*
X907500Y242821D02*
X950890Y286211D01*
X907500Y271105D02*
X936748Y300353D01*
X907500Y256963D02*
X943819Y293282D01*
X907500Y264034D02*
X940283Y296817D01*
X907500Y294579D02*
X967000Y235079D01*
X971396Y285504D02*
X977000Y291108D01*
X964325Y292575D02*
X967668Y295918D01*
X967860Y289039D02*
X972449Y293627D01*
X972008Y293711D02*
X976673Y289046D01*
X981000Y263506D02*
X989000Y255506D01*
X981000Y259752D02*
X989000Y267752D01*
X977000Y289423D02*
Y293986D01*
X907500Y315793D02*
X967000Y256292D01*
X907500Y301650D02*
X967000Y242150D01*
X907500Y308721D02*
X967000Y249221D01*
X922000Y343719D02*
X964711Y301007D01*
X907500Y322864D02*
X967000Y263363D01*
X910050Y327050D02*
X967000Y270100D01*
X922000Y334899D02*
X974520Y282379D01*
X922000Y336648D02*
X974562Y284086D01*
X953718Y303181D02*
X964819Y314282D01*
X960789Y296110D02*
X964912Y300233D01*
X957254Y299646D02*
X966766Y309158D01*
X675025Y385633D02*
X707138Y353520D01*
X683022Y364824D02*
X707000Y388803D01*
X686273Y361005D02*
X707000Y381731D01*
X680367Y387363D02*
X707000Y360729D01*
X687798Y348387D02*
X707000Y367589D01*
X709353Y349333D02*
X719333Y339353D01*
X688228Y355889D02*
X707000Y374660D01*
X368257Y382400D02*
X500858Y515000D01*
X678585Y367459D02*
X707000Y395874D01*
X672549Y368493D02*
X707000Y402945D01*
X368244Y389457D02*
X493787Y515000D01*
X581013D02*
X707000Y389013D01*
X684353Y390447D02*
X707000Y367800D01*
X723000Y358314D02*
Y426686D01*
X707000Y355000D02*
Y430000D01*
X688490Y400452D02*
X707000Y381942D01*
X723000Y390661D02*
X724964Y392625D01*
X687165Y394707D02*
X707000Y374871D01*
X688379Y351066D02*
X731744Y307701D01*
X687118Y359398D02*
X735041Y311476D01*
X723000Y365942D02*
X735942Y353000D01*
X723000Y373013D02*
X743014Y353000D01*
X723520Y337138D02*
X742112Y318547D01*
X725000Y337000D02*
X786686D01*
X730729D02*
X745647Y322082D01*
X723000Y358314D02*
X728314Y353000D01*
X790000D01*
X723000Y358871D02*
X728871Y353000D01*
X666788Y386799D02*
X738576Y315011D01*
X723000Y387156D02*
X757156Y353000D01*
X723000Y422511D02*
X793163Y352348D01*
X723000Y383589D02*
X726916Y387505D01*
X723000Y376518D02*
X731819Y385337D01*
X723000Y415440D02*
X785440Y353000D01*
X723000Y380085D02*
X750085Y353000D01*
X727983Y431670D02*
X853000Y306653D01*
X368216Y403572D02*
X479645Y515000D01*
X368230Y396514D02*
X486716Y515000D01*
X368175Y424744D02*
X458432Y515000D01*
X368203Y410629D02*
X472574Y515000D01*
X368189Y417686D02*
X465503Y515000D01*
X687947Y405104D02*
X707000Y424158D01*
X688274Y398360D02*
X707000Y417087D01*
X588084Y515000D02*
X707000Y396085D01*
X609298Y515000D02*
X707000Y417298D01*
X623440Y515000D02*
X707111Y431329D01*
X602227Y515000D02*
X707000Y410227D01*
X368052Y488260D02*
X394792Y515000D01*
X368079Y474145D02*
X408934Y515000D01*
X368066Y481203D02*
X401863Y515000D01*
X368011Y509432D02*
X373579Y515000D01*
X368038Y495317D02*
X387721Y515000D01*
X368024Y502375D02*
X380650Y515000D01*
X368134Y445916D02*
X437218Y515000D01*
X368162Y431801D02*
X451360Y515000D01*
X368148Y438858D02*
X444289Y515000D01*
X368093Y467088D02*
X416005Y515000D01*
X368120Y452973D02*
X430147Y515000D01*
X368107Y460031D02*
X423076Y515000D01*
X685682Y409911D02*
X707113Y431342D01*
X677470Y415841D02*
X776629Y515000D01*
X670917Y416359D02*
X769558Y515000D01*
X368000D02*
X780382D01*
X723000Y394227D02*
X724961Y392266D01*
X723000Y401298D02*
X726983Y397314D01*
X723000Y408369D02*
X731954Y399415D01*
X715363Y515000D02*
X752025Y478339D01*
X729506Y515000D02*
X759096Y485410D01*
X722435Y515000D02*
X755561Y481874D01*
X630511Y515000D02*
X709599Y435912D01*
X644653Y515000D02*
X716670Y442983D01*
X637582Y515000D02*
X713134Y439448D01*
X651724Y515000D02*
X720205Y446519D01*
X665866Y515000D02*
X727276Y453590D01*
X658795Y515000D02*
X723741Y450054D01*
X672937Y515000D02*
X730812Y457126D01*
X687079Y515000D02*
X737883Y464197D01*
X680008Y515000D02*
X734347Y460661D01*
X694150Y515000D02*
X741418Y467732D01*
X708292Y515000D02*
X748489Y474803D01*
X701221Y515000D02*
X744954Y471268D01*
X733282Y309718D02*
X751283Y327718D01*
X761935Y311500D02*
X780757D01*
X758000Y330500D02*
X784000D01*
X790717Y327718D02*
X791708Y326727D01*
X788811Y329192D02*
X791652Y332034D01*
X737800Y337000D02*
X749183Y325618D01*
X753769Y329506D02*
X761263Y337000D01*
X744871D02*
X752873Y328998D01*
X751942Y337000D02*
X758443Y330500D01*
X761834D02*
X768334Y337000D01*
X759014D02*
X765514Y330500D01*
X775976D02*
X782476Y337000D01*
X783047Y330500D02*
X788117Y335569D01*
X780227Y337000D02*
X787329Y329898D01*
X766085Y337000D02*
X772585Y330500D01*
X773156Y337000D02*
X779656Y330500D01*
X768905D02*
X775405Y337000D01*
X812000Y310124D02*
Y311686D01*
X793898Y323329D02*
X810634Y306592D01*
X794473Y320713D02*
X798724Y324963D01*
X792509Y325819D02*
X795188Y328498D01*
X828000Y310124D02*
Y315000D01*
X829428Y306170D02*
X852468Y329210D01*
X828000Y311813D02*
X850523Y334336D01*
X786686Y337000D02*
X812000Y311686D01*
X795667Y350647D02*
X825647Y320667D01*
X731519Y435205D02*
X853000Y313724D01*
X742125Y445812D02*
X850754Y337183D01*
X735054Y438741D02*
X853000Y320795D01*
X738590Y442276D02*
X853000Y327866D01*
X820644Y325670D02*
X866000Y371026D01*
X827327Y318211D02*
X866000Y356884D01*
X824179Y322134D02*
X866000Y363955D01*
X817108Y329206D02*
X866000Y378097D01*
X813573Y332741D02*
X866002Y385170D01*
X736939Y387359D02*
X771298Y353000D01*
X739040Y392329D02*
X778369Y353000D01*
X731891Y385336D02*
X764227Y353000D01*
X734837D02*
X792162Y410325D01*
X748979Y353000D02*
X801339Y405360D01*
X741908Y353000D02*
X795068Y406160D01*
X749196Y452883D02*
X792329Y409750D01*
X752732Y456418D02*
X793184Y415967D01*
X756268Y459954D02*
X797372Y418849D01*
X736577Y515000D02*
X762632Y488945D01*
X750719Y515000D02*
X769703Y496016D01*
X743648Y515000D02*
X766167Y492481D01*
X757790Y515000D02*
X773238Y499552D01*
X764861Y515000D02*
X776774Y503087D01*
X779003Y515000D02*
X783845Y510158D01*
X771932Y515000D02*
X780309Y506623D01*
X745661Y449347D02*
X853287Y341722D01*
X796750Y405329D02*
X857830Y344249D01*
X759803Y463489D02*
X866000Y357293D01*
X763339Y467025D02*
X866000Y364364D01*
X766874Y470560D02*
X866000Y371435D01*
X860664Y344477D02*
X866000Y349813D01*
Y342365D02*
Y385000D01*
X802967Y406184D02*
X866000Y343150D01*
X805849Y410372D02*
X866000Y350221D01*
X770410Y474096D02*
X866000Y378506D01*
X773945Y477631D02*
X866022Y385555D01*
X777481Y481167D02*
X868374Y390274D01*
X781016Y484703D02*
X871910Y393809D01*
X784552Y488238D02*
X875445Y397345D01*
X795158Y498845D02*
X876000Y418003D01*
X798694Y502380D02*
X876000Y425074D01*
X804840Y415932D02*
X876000Y487092D01*
X800675Y418838D02*
X876000Y494163D01*
X809301Y512987D02*
X876000Y446287D01*
X802229Y505916D02*
X876000Y432145D01*
X805765Y509451D02*
X876000Y439216D01*
X503232Y515000D02*
X658867Y359365D01*
X489090Y515000D02*
X661713Y342377D01*
X510303Y515000D02*
X661697Y363606D01*
X524445Y515000D02*
X671066Y368379D01*
X517374Y515000D02*
X665700Y366674D01*
X538587Y515000D02*
X658799Y394788D01*
X531516Y515000D02*
X679398Y367118D01*
X552729Y515000D02*
X659362Y408367D01*
X559800Y515000D02*
X662447Y412353D01*
X573942Y515000D02*
X672452Y416490D01*
X566871Y515000D02*
X666706Y415165D01*
X368312Y354170D02*
X529142Y515000D01*
X368340Y340056D02*
X543284Y515000D01*
X368326Y347113D02*
X536213Y515000D01*
X368271Y375342D02*
X507929Y515000D01*
X368299Y361228D02*
X522071Y515000D01*
X368285Y368285D02*
X515000Y515000D01*
X368367Y325941D02*
X557426Y515000D01*
X368395Y311826D02*
X571568Y515000D01*
X368381Y318883D02*
X564497Y515000D01*
X368353Y332998D02*
X550355Y515000D01*
X545658D02*
X657633Y403025D01*
X496161Y515000D02*
X657514Y353647D01*
X595156Y515000D02*
X707000Y403156D01*
X682185Y413485D02*
X837000Y568300D01*
X723000Y418945D02*
X876000Y571945D01*
X616369Y515000D02*
X707000Y424369D01*
X709353Y435667D02*
X837000Y563314D01*
X723000Y426016D02*
X876000Y579016D01*
X723000Y397732D02*
X863064Y537795D01*
X736870Y397459D02*
X871541Y532131D01*
X731750Y399411D02*
X865737Y533397D01*
X746343Y645121D02*
X790393D01*
X723000Y426686D02*
X850647Y554333D01*
X723000Y411874D02*
X876000Y564874D01*
X743588Y645608D02*
X744442Y645438D01*
X744434Y645440D02*
X748938Y649943D01*
X728108Y664890D02*
X747877Y645121D01*
X728108Y650748D02*
X733248Y645608D01*
X728108D02*
X743588D01*
X728108Y657819D02*
X740319Y645608D01*
X745439Y645240D02*
X746343Y645121D01*
X753195Y646874D02*
X754948Y645121D01*
X751186D02*
X753024Y646958D01*
X744442Y645438D02*
X745439Y645240D01*
X760000Y645300D02*
X770000D01*
X728108Y671539D02*
X744610Y688041D01*
X728108Y686103D02*
X746252Y667959D01*
X728108Y700245D02*
X744713Y683640D01*
X728108Y707316D02*
X745068Y690356D01*
X728108Y692753D02*
X746960Y711605D01*
X730460Y645608D02*
X744540Y659687D01*
X737531Y645608D02*
X746023Y654100D01*
X728108Y650326D02*
X746959Y669177D01*
X728108Y679032D02*
X744598Y662542D01*
X728108Y671961D02*
X746074Y653995D01*
X728108Y664468D02*
X745208Y681569D01*
X727681Y750382D02*
X728108Y748236D01*
X727500Y757421D02*
X744815Y740107D01*
X727600Y764392D02*
X746826Y745166D01*
X727500Y750652D02*
Y764392D01*
Y755784D02*
X736108Y764392D01*
X727500Y762855D02*
X729037Y764392D01*
X728108Y645608D02*
Y748236D01*
Y728529D02*
X747129Y709508D01*
X728108Y713966D02*
X745546Y731404D01*
X727928Y749141D02*
X743179Y764392D01*
X728108Y721037D02*
X744506Y737435D01*
X727734Y750117D02*
X745092Y732759D01*
X728108Y714387D02*
X747345Y695150D01*
X728108Y685682D02*
X748290Y705863D01*
X728108Y721458D02*
X750853Y698713D01*
X728108Y735600D02*
X747720Y715988D01*
X728108Y699824D02*
X752005Y723721D01*
X728108Y706895D02*
X748183Y726970D01*
X728108Y657397D02*
X747605Y676894D01*
X728108Y693174D02*
X749284Y671999D01*
X728108Y678610D02*
X751344Y701847D01*
X728108Y742671D02*
X750378Y720401D01*
X728108Y728108D02*
X764392Y764392D01*
X728108Y735179D02*
X757321Y764392D01*
X734671D02*
X750120Y748943D01*
X727500Y764392D02*
X843334Y764392D01*
X728108Y742250D02*
X750250Y764392D01*
X741742D02*
X754604Y751530D01*
X759565Y752494D02*
X771463Y764392D01*
X748813D02*
X760705Y752500D01*
X760000D02*
X770000D01*
X755884Y764392D02*
X767777Y752500D01*
X783228Y517846D02*
X787380Y513694D01*
X780382Y515000D02*
X817000Y551618D01*
X786764Y521381D02*
X790916Y517229D01*
X790299Y524917D02*
X794451Y520765D01*
X793835Y528452D02*
X797987Y524300D01*
X797370Y531988D02*
X801522Y527836D01*
X800906Y535524D02*
X805058Y531371D01*
X804441Y539059D02*
X808593Y534907D01*
X807977Y542595D02*
X812129Y538443D01*
X811512Y546130D02*
X815664Y541978D01*
X815048Y549666D02*
X819200Y545514D01*
X817000Y551618D02*
Y622000D01*
Y604282D02*
X837000Y584282D01*
X817000Y590726D02*
X837000Y610726D01*
X817000Y618424D02*
X837000Y598424D01*
X817000Y611353D02*
X837000Y591353D01*
X817000Y597797D02*
X837000Y617797D01*
X817000Y554785D02*
X822736Y549049D01*
X817000Y561856D02*
X826271Y552585D01*
X817000Y568927D02*
X829807Y556120D01*
X817000Y575998D02*
X833342Y559656D01*
X817000Y583069D02*
X836878Y563191D01*
X817000Y583655D02*
X837000Y603655D01*
X819907Y523593D02*
X876000Y467500D01*
X812836Y516522D02*
X876000Y453358D01*
X816372Y520058D02*
X876000Y460429D01*
X837585Y541271D02*
X876000Y502856D01*
X830514Y534200D02*
X876000Y488714D01*
X834049Y537735D02*
X876000Y495785D01*
X841120Y544807D02*
X876000Y509927D01*
X844656Y548342D02*
X876000Y516998D01*
X848191Y551878D02*
X863335Y536734D01*
X817000Y569513D02*
X837000Y589513D01*
X817000Y555371D02*
X837000Y575371D01*
X817000Y562442D02*
X837000Y582442D01*
X817000Y597211D02*
X837000Y577211D01*
X817000Y590140D02*
X837000Y570140D01*
X817000Y576584D02*
X837000Y596584D01*
X851625Y555515D02*
X864180Y542960D01*
X853000Y561211D02*
X868364Y545847D01*
X837000Y563314D02*
Y629877D01*
X853000Y560000D02*
Y629877D01*
X775114Y646168D02*
X776161Y645121D01*
X777153Y700697D02*
X779110Y698740D01*
X783026Y652399D02*
X790303Y645121D01*
X794000Y645000D02*
X817000Y622000D01*
X791405Y645000D02*
X794000D01*
X779668Y648685D02*
X783232Y645121D01*
X762955Y764392D02*
X776097Y751250D01*
X773347Y752134D02*
X785605Y764392D01*
X766642Y752500D02*
X778534Y764392D01*
X778259Y721691D02*
X820961Y764392D01*
X785466Y735968D02*
X813890Y764392D01*
X778346Y750061D02*
X792676Y764392D01*
X784608Y742182D02*
X806818Y764392D01*
X782074Y746719D02*
X799747Y764392D01*
X781177Y675461D02*
X837000Y619637D01*
X785117Y657378D02*
X837000Y605495D01*
X785047Y664519D02*
X837000Y612566D01*
X784051Y679657D02*
X837000Y626708D01*
X782540Y695310D02*
X837294Y640556D01*
X780731Y704191D02*
X841210Y643711D01*
X817000Y619011D02*
X835984Y637995D01*
X817000Y604868D02*
X837000Y624868D01*
X817000Y611940D02*
X836283Y631223D01*
X785474Y685305D02*
X835504Y635275D01*
X782813Y709179D02*
X847968Y644025D01*
X779280Y673215D02*
X870458Y764392D01*
X781474Y696621D02*
X849245Y764392D01*
X781460Y717821D02*
X828032Y764392D01*
X777530Y699748D02*
X842174Y764392D01*
X783021Y712310D02*
X835103Y764392D01*
X784241Y692318D02*
X856316Y764392D01*
X854879D02*
X876000Y743271D01*
X785497Y686502D02*
X863387Y764392D01*
X843334D02*
X876000D01*
X861950D02*
X876000Y750342D01*
X869021Y764392D02*
X876000Y757413D01*
X802966Y343348D02*
X876000Y416381D01*
X806502Y339812D02*
X876000Y409310D01*
X791299Y352894D02*
X876000Y437595D01*
X799431Y346883D02*
X876000Y423453D01*
X795895Y350419D02*
X876000Y430524D01*
X810037Y336277D02*
X876000Y402239D01*
X880000Y350364D02*
X886098Y344265D01*
X880000Y343617D02*
Y382100D01*
X868050Y389950D02*
X876000Y397900D01*
X880000Y356742D02*
X886500Y363242D01*
X880000Y364506D02*
X886500Y358006D01*
X724504Y356809D02*
X876000Y508305D01*
X728040Y353274D02*
X876000Y501234D01*
X724504Y356809D02*
X876000Y508305D01*
X739038Y392556D02*
X876000Y529518D01*
X723000Y362376D02*
X876000Y515376D01*
X723000Y369447D02*
X876000Y522447D01*
X770192Y353000D02*
X876000Y458808D01*
X784334Y353000D02*
X876000Y444666D01*
X777263Y353000D02*
X876000Y451737D01*
Y397900D02*
Y535317D01*
X763121Y353000D02*
X876000Y465879D01*
X756050Y353000D02*
X876000Y472950D01*
X881589Y344189D02*
X886500Y349100D01*
X907500Y329935D02*
X908942Y328492D01*
X880000Y363813D02*
X886500Y370313D01*
X880000Y349671D02*
X886500Y356171D01*
X880000Y357435D02*
X886500Y350935D01*
X907500Y320602D02*
X911999Y325102D01*
X907500Y306460D02*
X919070Y318030D01*
X907500Y313531D02*
X915535Y321566D01*
X907500Y327673D02*
X908725Y328898D01*
X880000Y378648D02*
X886500Y372148D01*
X880000Y371577D02*
X886500Y365077D01*
X880000Y370884D02*
X886500Y377384D01*
X880000Y382100D02*
X886500Y388601D01*
X881809Y383910D02*
X886500Y379219D01*
X880000Y377955D02*
X886500Y384455D01*
Y344165D02*
Y388601D01*
X922000Y372003D02*
X923000Y371003D01*
X908000Y332000D02*
Y407000D01*
X885345Y387445D02*
X886500Y386290D01*
X922000Y377529D02*
X923000Y378529D01*
X922000Y379074D02*
X923000Y378074D01*
X805640Y409661D02*
X876000Y480021D01*
X788087Y491774D02*
X876000Y403861D01*
X791623Y495309D02*
X876000Y410932D01*
X890000Y495927D02*
X897428Y488499D01*
X890000Y502998D02*
X900963Y492035D01*
X907500Y414787D02*
X910194Y412093D01*
X890000Y488856D02*
X893892Y484963D01*
X907500Y421858D02*
X913729Y415629D01*
X907500Y428929D02*
X917265Y419164D01*
X826978Y530664D02*
X876000Y481642D01*
X823443Y527129D02*
X876000Y474571D01*
X723000Y404803D02*
X876000Y557803D01*
X871205Y545936D02*
X876000Y550732D01*
X867734Y532335D02*
X876000Y524069D01*
X890000Y510069D02*
X904499Y495570D01*
X890000Y517140D02*
X908034Y499106D01*
X890000Y524211D02*
X911570Y502641D01*
X873960Y533180D02*
X876000Y531140D01*
X890000Y531282D02*
X915105Y506177D01*
X890000Y538353D02*
X918641Y509712D01*
X907500Y443072D02*
X923072Y427500D01*
X907500Y412526D02*
X968000Y473026D01*
X907500Y419597D02*
X968000Y480097D01*
X907500Y450143D02*
X927482Y430160D01*
X907500Y457214D02*
X934713Y430001D01*
X907500Y464285D02*
X935514Y436271D01*
X910050Y411950D02*
X920623Y422522D01*
X915812Y477185D02*
X989000Y403998D01*
X907500Y436000D02*
X920677Y422824D01*
X908741Y470114D02*
X938864Y439992D01*
X912277Y473650D02*
X944437Y441490D01*
X890000Y481071D02*
X952453Y543524D01*
X907500Y462024D02*
X963314Y517837D01*
X907500Y468873D02*
X959889Y521262D01*
X890000Y545424D02*
X922176Y513248D01*
X890000Y552495D02*
X925712Y516783D01*
X890000Y559566D02*
X929247Y520319D01*
X907500Y426668D02*
X965734Y484903D01*
X919348Y480721D02*
X989000Y411069D01*
X907500Y433739D02*
X977456Y503695D01*
X907500Y454953D02*
X966849Y514302D01*
X907500Y440810D02*
X973920Y507231D01*
X907500Y447882D02*
X970385Y510766D01*
X925434Y331465D02*
X936535Y342566D01*
X928969Y327930D02*
X940070Y339030D01*
X922000Y349245D02*
X925928Y353172D01*
X922000Y335103D02*
X932999Y346101D01*
X922000Y342174D02*
X929464Y349637D01*
X943112Y313788D02*
X954212Y324888D01*
X950183Y306717D02*
X961283Y317817D01*
X946647Y310252D02*
X957748Y321353D01*
X932505Y324394D02*
X943606Y335495D01*
X939576Y317323D02*
X950677Y328424D01*
X936041Y320859D02*
X947141Y331959D01*
X922000Y334899D02*
Y392877D01*
Y356316D02*
X923167Y357482D01*
X922000Y357861D02*
X923528Y356333D01*
X922000Y370458D02*
X923000Y371458D01*
X922000Y363387D02*
X923000Y364387D01*
X922000Y364932D02*
X923000Y363932D01*
Y359000D02*
Y391577D01*
X937000Y361899D02*
Y391577D01*
X937000Y361899D02*
Y391577D01*
X951000Y363899D02*
Y425577D01*
X922000Y350790D02*
X965516Y307274D01*
X925050Y354050D02*
X967000Y312101D01*
X951000Y363899D02*
X988950Y325950D01*
X951000Y378358D02*
X989000Y340358D01*
X951000Y364216D02*
X989000Y326216D01*
X951000Y371287D02*
X989000Y333287D01*
X967000Y309423D02*
Y312101D01*
X979183Y335717D02*
X989000Y345534D01*
X975647Y339252D02*
X989000Y352605D01*
X965041Y349859D02*
X989000Y373818D01*
X972112Y342788D02*
X989000Y359676D01*
X968576Y346323D02*
X989000Y366747D01*
X951000Y371174D02*
X989000Y409174D01*
X951000Y364103D02*
X989000Y402103D01*
X951000Y406642D02*
X989000Y368643D01*
X951000Y420785D02*
X989000Y382785D01*
X951000Y413714D02*
X989000Y375714D01*
X951000Y378245D02*
X989000Y416245D01*
X951000Y392500D02*
X989000Y354500D01*
X961505Y353394D02*
X989000Y380889D01*
X951000Y385429D02*
X989000Y347429D01*
X951000Y399571D02*
X989000Y361572D01*
X957970Y356930D02*
X989000Y387960D01*
X954434Y360465D02*
X989000Y395031D01*
X922000Y386145D02*
X923000Y385145D01*
X922000Y403124D02*
Y404100D01*
X929417Y411518D01*
X922000Y384600D02*
X923000Y385600D01*
X935830Y405501D02*
X937000Y406671D01*
X931824Y411677D02*
X937000Y406500D01*
X927164Y409265D02*
X928984Y407445D01*
X930730Y407472D02*
X937000Y413742D01*
X932270Y430225D02*
X934511Y432467D01*
X937000Y404423D02*
Y414577D01*
X940561Y501934D02*
X968000Y474495D01*
X943533Y441489D02*
X968068Y466024D01*
X937026Y498399D02*
X968000Y467424D01*
Y467000D02*
Y480577D01*
X947632Y509005D02*
X966159Y490478D01*
X944097Y505470D02*
X966239Y483327D01*
X951168Y512541D02*
X969191Y494517D01*
X951000Y406529D02*
X988286Y443815D01*
X951000Y392387D02*
X989000Y430387D01*
X951000Y399458D02*
X989000Y437458D01*
X949119Y440003D02*
X970608Y461492D01*
X951000Y413600D02*
X984750Y447350D01*
X951000Y420671D02*
X981215Y450886D01*
X953490Y432437D02*
X989000Y396927D01*
X951000Y385316D02*
X989000Y423316D01*
X951992Y426864D02*
X989000Y389856D01*
X952477Y436289D02*
X974144Y457957D01*
X953295Y430037D02*
X977679Y454421D01*
X970050Y462050D02*
X989000Y443101D01*
X929955Y491328D02*
X989000Y432282D01*
X922883Y484257D02*
X989000Y418140D01*
X926419Y487792D02*
X989000Y425211D01*
X954703Y516076D02*
X974305Y496474D01*
X933490Y494863D02*
X989000Y439353D01*
X958239Y519612D02*
X983500Y494350D01*
X977097Y496266D02*
X980991Y500160D01*
X959889Y521262D02*
X983500Y497651D01*
X974738Y536111D02*
X1001413Y509436D01*
X974738Y536111D02*
X1003413Y564786D01*
X853000Y598442D02*
X876000Y621442D01*
X853000Y617779D02*
X876000Y594779D01*
X853000Y612584D02*
X876000Y635584D01*
X853000Y624850D02*
X876000Y601850D01*
X853000Y605513D02*
X876000Y628513D01*
X853000Y563087D02*
X876000Y586087D01*
X853000Y568282D02*
X876000Y545282D01*
X853000Y582424D02*
X876000Y559424D01*
X854025Y637968D02*
X876000Y615992D01*
X853000Y589495D02*
X876000Y566495D01*
X853711Y631210D02*
X876000Y608921D01*
X807888Y631112D02*
X876000Y699224D01*
X781694Y717369D02*
X876000Y623063D01*
X780519Y725616D02*
X876000Y630134D01*
X800817Y638183D02*
X876000Y713366D01*
X804353Y634647D02*
X876000Y706295D01*
X783615Y729591D02*
X876000Y637206D01*
X814959Y624041D02*
X876000Y685082D01*
X853000Y619655D02*
X876000Y642655D01*
Y542683D02*
Y764392D01*
X854495Y635293D02*
X876000Y656797D01*
X853000Y626726D02*
X876000Y649726D01*
X811424Y627576D02*
X876000Y692153D01*
X853000Y603637D02*
X876000Y580637D01*
X853000Y596566D02*
X876000Y573566D01*
X853000Y577229D02*
X876000Y600229D01*
X853000Y591371D02*
X876000Y614371D01*
X853000Y584300D02*
X876000Y607300D01*
X853000Y610708D02*
X876000Y587708D01*
X853000Y575353D02*
X876000Y552353D01*
X890000Y543518D02*
X985500Y639018D01*
X890000Y550589D02*
X985500Y646089D01*
X853000Y570158D02*
X876000Y593158D01*
X890000Y637348D02*
X968138Y559210D01*
X890000Y644419D02*
X971674Y562745D01*
X890000Y481071D02*
Y765000D01*
Y600087D02*
X985500Y695587D01*
X890000Y700987D02*
X985500Y605487D01*
X890000Y614229D02*
X980271Y704500D01*
X890000Y607158D02*
X985500Y702658D01*
X890000Y708058D02*
X985500Y612558D01*
X890000Y651490D02*
X975209Y566281D01*
X890000Y557660D02*
X985500Y653160D01*
X890000Y585945D02*
X985500Y681445D01*
X890000Y693916D02*
X985500Y598416D01*
X890000Y686845D02*
X985500Y591345D01*
X890000Y593016D02*
X985500Y688516D01*
X784250Y743097D02*
X876000Y651348D01*
X779471Y645121D02*
X876000Y741650D01*
X782750Y669613D02*
X876000Y762863D01*
X785237Y657958D02*
X876000Y748721D01*
X784982Y664774D02*
X876000Y755792D01*
X842005Y644016D02*
X876000Y678011D01*
X852698Y640567D02*
X876000Y663868D01*
X848777Y643717D02*
X876000Y670939D01*
X786542Y645121D02*
X876000Y734579D01*
X793492Y645000D02*
X876000Y727508D01*
X785359Y734917D02*
X876000Y644277D01*
X784168Y764392D02*
X876000Y672561D01*
X770026Y764392D02*
X876000Y658419D01*
X777097Y764392D02*
X876000Y665490D01*
X805382Y764392D02*
X876000Y693774D01*
X791240Y764392D02*
X876000Y679632D01*
X798311Y764392D02*
X876000Y686703D01*
X826595Y764392D02*
X876000Y714987D01*
X812453Y764392D02*
X876000Y700845D01*
X819524Y764392D02*
X876000Y707916D01*
X847808Y764392D02*
X876000Y736200D01*
X833666Y764392D02*
X876000Y722058D01*
X840737Y764392D02*
X876000Y729129D01*
X797282Y641719D02*
X876000Y720437D01*
X890000Y715129D02*
X917077Y688052D01*
X890000Y692010D02*
X917749Y719759D01*
X890000Y722200D02*
X917771Y694429D01*
X890000Y729271D02*
X920217Y699054D01*
X890000Y699082D02*
X920965Y730047D01*
X890000Y663726D02*
X917044Y690771D01*
X890000Y649584D02*
X920368Y679953D01*
X890000Y656655D02*
X917858Y684514D01*
X890000Y684939D02*
X917256Y712195D01*
X890000Y670797D02*
X922424Y703222D01*
X890000Y677868D02*
X919189Y707058D01*
X890000Y734437D02*
X919955Y764392D01*
X890000Y720295D02*
X934098Y764392D01*
X890000Y727366D02*
X927026Y764392D01*
X890000Y765000D02*
X890855D01*
X890000Y764627D02*
X917310Y737317D01*
X890000Y762721D02*
X891937Y764658D01*
X890000Y713224D02*
X917001Y740225D01*
X890000Y706153D02*
X918220Y734373D01*
X890000Y736342D02*
X919055Y707287D01*
X890000Y743413D02*
X917059Y716354D01*
X890000Y750484D02*
X918609Y721876D01*
X890000Y757556D02*
X921568Y725988D01*
X890000Y609063D02*
X953996Y545067D01*
X890000Y616134D02*
X957532Y548603D01*
X890000Y623205D02*
X961067Y552138D01*
X890000Y630277D02*
X964603Y555674D01*
X890000Y658561D02*
X978745Y569816D01*
X890000Y566637D02*
X932783Y523854D01*
X890000Y573708D02*
X936318Y527390D01*
X890000Y580779D02*
X939854Y530925D01*
X890000Y587850D02*
X943389Y534461D01*
X890000Y594921D02*
X946925Y537996D01*
X890000Y601992D02*
X950461Y541532D01*
X890000Y621300D02*
X944441Y675741D01*
X890000Y672703D02*
X985500Y577203D01*
X890000Y578874D02*
X985500Y674374D01*
X890000Y642513D02*
X924076Y676589D01*
X890000Y628371D02*
X935729Y674100D01*
X890000Y635442D02*
X929047Y674489D01*
X932500Y674100D02*
X937500D01*
X890000Y665632D02*
X982280Y573352D01*
X951359Y682659D02*
X973200Y704500D01*
X890000Y529376D02*
X985500Y624876D01*
X890000Y522305D02*
X985500Y617805D01*
X890000Y522305D02*
X985500Y617805D01*
X890000Y571803D02*
X985500Y667303D01*
X890000Y536447D02*
X985500Y631947D01*
X890000Y564731D02*
X985500Y660231D01*
X890000Y501092D02*
X985500Y596592D01*
X890000Y486950D02*
X985500Y582450D01*
X890000Y494021D02*
X985500Y589521D01*
X952476Y543547D02*
X985500Y576571D01*
X890000Y508163D02*
X985500Y603663D01*
X890000Y515234D02*
X985500Y610734D01*
X938089Y674111D02*
X985500Y626700D01*
X930952Y674177D02*
X985500Y619629D01*
X890000Y679774D02*
X985500Y584274D01*
X950127Y704500D02*
X985500Y669127D01*
X943823Y675448D02*
X985500Y633771D01*
X948075Y678268D02*
X985500Y640842D01*
X952872Y687613D02*
X985500Y654985D01*
X978163Y532686D02*
X1127476Y682000D01*
X951152Y682261D02*
X985500Y647913D01*
X964269Y704500D02*
X985500Y683269D01*
X951667Y695889D02*
X985500Y662056D01*
X957198Y704500D02*
X985500Y676198D01*
X932500Y755900D02*
X937500D01*
X944924Y754006D02*
X955311Y764392D01*
X948252Y700765D02*
X951987Y704500D01*
X950675Y732235D02*
X957411Y725500D01*
X947382Y728458D02*
X950340Y725500D01*
X890000Y748579D02*
X905813Y764392D01*
X897305D02*
X917478Y744220D01*
X890000Y741508D02*
X912884Y764392D01*
X891126Y764819D02*
X893272Y764392D01*
X904377D02*
X919671Y749098D01*
X890000Y755650D02*
X898742Y764392D01*
X911448D02*
X923109Y752731D01*
X932661Y764392D02*
X941746Y755307D01*
X918519Y764392D02*
X927755Y755156D01*
X925590Y764392D02*
X934082Y755900D01*
X939604Y755757D02*
X948240Y764392D01*
X932676Y755900D02*
X941169Y764392D01*
X951271Y696713D02*
X959058Y704500D01*
X948902D02*
X985500D01*
X952909Y691280D02*
X966129Y704500D01*
X952686Y737296D02*
X964482Y725500D01*
X948902D02*
X996000D01*
X952407Y744646D02*
X971553Y725500D01*
X978411Y704500D02*
X985500Y697411D01*
X971340Y704500D02*
X985500Y690340D01*
X980058Y725500D02*
X1018950Y764392D01*
X968016D02*
X1006908Y725500D01*
X975087Y764392D02*
X1013979Y725500D01*
X972987D02*
X1011879Y764392D01*
X939732D02*
X978624Y725500D01*
X946803Y764392D02*
X985695Y725500D01*
X946687Y727484D02*
X983595Y764392D01*
X948896Y750906D02*
X962382Y764392D01*
X951692Y746632D02*
X969453Y764392D01*
X893272D02*
X1340000Y764392D01*
X958845Y725500D02*
X997737Y764392D01*
X965916Y725500D02*
X1004808Y764392D01*
X960945D02*
X999837Y725500D01*
X952993Y740862D02*
X976524Y764392D01*
X953874D02*
X992766Y725500D01*
X951774D02*
X990666Y764392D01*
X982955Y70632D02*
X983914Y69673D01*
X997639Y70090D02*
X998950Y68780D01*
X1000591Y67212D02*
X1005845Y72466D01*
X1000980Y66750D02*
X1004149Y63581D01*
X1003172Y62721D02*
X1004235Y63785D01*
X1001760Y73040D02*
X1006980Y67821D01*
X1003000Y114227D02*
X1009200Y108027D01*
X1003000Y107156D02*
X1009200Y100956D01*
X1003000Y104976D02*
X1009200Y111176D01*
X1003000Y100085D02*
X1006777Y96307D01*
X1003000Y97905D02*
X1009200Y104105D01*
X997019Y0D02*
X1042619Y45600D01*
X998465Y48051D02*
X1046516Y0D01*
X985829Y46544D02*
X1032374Y0D01*
X993584Y45861D02*
X1039445Y0D01*
X989948D02*
X1036533Y46585D01*
X1021181Y46549D02*
X1067729Y0D01*
X1025303D02*
X1071139Y45836D01*
X1025421Y49380D02*
X1074800Y0D01*
X1011161D02*
X1059264Y48103D01*
X1015047Y45611D02*
X1060658Y0D01*
X1018232D02*
X1064115Y45883D01*
X982877Y0D02*
X1032318Y49441D01*
X1001873Y51714D02*
X1053587Y0D01*
X1004090D02*
X1055880Y51790D01*
X1023200Y111034D02*
X1034600Y122434D01*
X1023200Y103963D02*
X1034600Y115363D01*
X1023200Y122311D02*
X1034600Y110911D01*
X1023793Y69201D02*
X1029240Y74647D01*
X1024865Y71148D02*
X1030527Y65487D01*
X1023200Y101098D02*
X1030008Y94290D01*
X1023200Y108169D02*
X1033911Y97458D01*
X1023811Y97503D02*
X1034600Y108292D01*
X1023200Y115240D02*
X1034600Y103840D01*
X981000Y132473D02*
X989000Y140473D01*
X981000Y136227D02*
X989000Y128227D01*
X981000Y150369D02*
X989000Y142369D01*
X981000Y143298D02*
X989000Y135298D01*
X981000Y139544D02*
X989000Y147544D01*
X981000Y129156D02*
X989000Y121156D01*
X981000Y122085D02*
X989000Y114085D01*
X981000Y118331D02*
X989000Y126331D01*
X981000Y125402D02*
X989000Y133402D01*
X1003000Y140331D02*
X1009200Y146531D01*
X1003000Y149582D02*
X1009200Y143382D01*
X981000Y164511D02*
X989000Y156511D01*
X981000Y157440D02*
X989000Y149440D01*
X981000Y153687D02*
X989000Y161687D01*
X981000Y167829D02*
X989000Y175829D01*
X981000Y160758D02*
X989000Y168758D01*
X981000Y171582D02*
X989000Y163582D01*
X981000Y146616D02*
X989000Y154616D01*
X1003000Y147402D02*
X1009200Y153602D01*
X1003000Y156653D02*
X1009200Y150453D01*
X1003000Y168615D02*
X1009200Y174816D01*
X1003000Y154473D02*
X1009200Y160674D01*
X1003000Y163724D02*
X1009200Y157524D01*
X1003000Y126189D02*
X1009200Y132389D01*
X1003000Y119118D02*
X1009200Y125318D01*
X1003000Y128369D02*
X1009200Y122169D01*
X1003000Y142511D02*
X1009200Y136311D01*
X1003000Y135440D02*
X1009200Y129240D01*
X1003000Y133260D02*
X1009200Y139460D01*
X1003000Y121298D02*
X1009200Y115098D01*
X1003000Y112047D02*
X1009200Y118247D01*
X1023200Y129382D02*
X1034600Y117982D01*
X1023200Y125176D02*
X1034600Y136576D01*
X1023200Y118105D02*
X1034600Y129505D01*
X1023200Y136453D02*
X1034600Y125053D01*
X1023200Y171808D02*
X1034600Y160408D01*
X1023200Y164737D02*
X1034600Y153337D01*
X1023200Y153460D02*
X1034600Y164860D01*
X1003000Y170795D02*
X1009200Y164595D01*
X1003000Y161544D02*
X1009200Y167745D01*
X1023200Y160531D02*
X1034600Y171931D01*
X1023200Y150595D02*
X1034600Y139195D01*
X1023200Y143524D02*
X1034600Y132124D01*
X1023200Y132247D02*
X1034600Y143647D01*
X1023200Y146389D02*
X1034600Y157789D01*
X1023200Y139318D02*
X1034600Y150718D01*
X1023200Y157666D02*
X1034600Y146266D01*
X1032374Y0D02*
X1080750Y48376D01*
X1033454Y48418D02*
X1081871Y0D01*
X1026773Y50967D02*
X1029513Y53707D01*
X1028251Y53620D02*
X1031418Y50454D01*
X1039445Y0D02*
X1084632Y45187D01*
X1043275Y45668D02*
X1088942Y0D01*
X1076014Y48438D02*
X1076588Y49012D01*
X1027226Y65562D02*
X1032861Y71198D01*
X1053655Y63572D02*
X1054598Y62629D01*
X1053615Y63667D02*
X1060079Y70131D01*
X1077497Y66336D02*
X1079661Y68500D01*
X1077011D02*
X1079044Y66466D01*
X1053587Y0D02*
X1097577Y43990D01*
X1064316Y45839D02*
X1110156Y0D01*
X1071347Y45880D02*
X1117227Y0D01*
X1046516D02*
X1089831Y43314D01*
X1048487Y47527D02*
X1096013Y0D01*
X1052149Y50935D02*
X1103084Y0D01*
X1100266Y45244D02*
X1145511Y0D01*
X1104122Y48459D02*
X1152582Y0D01*
X1106797Y52856D02*
X1159653Y0D01*
X1075936Y48362D02*
X1124298Y0D01*
X1095102Y43337D02*
X1138440Y0D01*
X1087461Y43908D02*
X1131369Y0D01*
X1074000Y135150D02*
X1209150Y0D01*
X1074000Y142221D02*
X1216221Y0D01*
X1074000Y149292D02*
X1223292Y0D01*
X1074000Y156363D02*
X1230363Y0D01*
X1107900Y72966D02*
X1180866Y0D01*
X1107900Y80037D02*
X1187937Y0D01*
X1107900Y87108D02*
X1195008Y0D01*
X1107898Y58826D02*
X1166724Y0D01*
X1105295Y68500D02*
X1173795Y0D01*
X1107900Y94179D02*
X1202079Y0D01*
X1028507Y74577D02*
X1033935Y69149D01*
X1027734Y94355D02*
X1034600Y101221D01*
X1051890Y72408D02*
X1057151Y67147D01*
X1050759Y67882D02*
X1055978Y73102D01*
X1048600Y103982D02*
X1056859Y95723D01*
X1048600Y115221D02*
X1060000Y126621D01*
X1048600Y132266D02*
X1060000Y120866D01*
X1048600Y150576D02*
X1060000Y161976D01*
X1048600Y143505D02*
X1060000Y154905D01*
X1048600Y160550D02*
X1060000Y149150D01*
X1048600Y174692D02*
X1060000Y163293D01*
X1048600Y167621D02*
X1060000Y156221D01*
X1048600Y157647D02*
X1060000Y169047D01*
X1048600Y129363D02*
X1060000Y140763D01*
X1048600Y122292D02*
X1060000Y133692D01*
X1048600Y139337D02*
X1060000Y127937D01*
X1048600Y153479D02*
X1060000Y142079D01*
X1048600Y146408D02*
X1060000Y135008D01*
X1048600Y136434D02*
X1060000Y147834D01*
X1073810Y69720D02*
X1074557Y70467D01*
X1058844Y97181D02*
X1060000Y98337D01*
X1076900Y68500D02*
X1080474D01*
X1104326D02*
X1107900D01*
Y99500D01*
X1074866Y70644D02*
X1076900Y68611D01*
Y68500D02*
Y72074D01*
Y99500D02*
X1107900D01*
X1048600Y101079D02*
X1060000Y112479D01*
X1050953Y96360D02*
X1060000Y105408D01*
X1048600Y111053D02*
X1060000Y99653D01*
X1048600Y125195D02*
X1060000Y113795D01*
X1048600Y118124D02*
X1060000Y106724D01*
X1048600Y108150D02*
X1060000Y119550D01*
X1074000Y99795D02*
X1076900Y96895D01*
Y95926D02*
Y99500D01*
X1074000Y106866D02*
X1081366Y99500D01*
X1074000Y113937D02*
X1088437Y99500D01*
X1074000Y121008D02*
X1095508Y99500D01*
X1074000Y128079D02*
X1102579Y99500D01*
X981000Y199866D02*
X989000Y191866D01*
X981000Y189042D02*
X989000Y197042D01*
X981000Y203184D02*
X989000Y211184D01*
X981000Y196113D02*
X989000Y204113D01*
X981000Y206937D02*
X989000Y198937D01*
X981000Y185724D02*
X989000Y177724D01*
X981000Y178653D02*
X989000Y170653D01*
X981000Y174900D02*
X989000Y182900D01*
X981000Y192795D02*
X989000Y184795D01*
X1003000Y206150D02*
X1009200Y199950D01*
X1003000Y203971D02*
X1009200Y210171D01*
X981000Y118000D02*
Y273000D01*
Y228150D02*
X989000Y220150D01*
X981000Y224397D02*
X989000Y232397D01*
X981000Y242292D02*
X989000Y234293D01*
X981000Y235221D02*
X989000Y227221D01*
X981000Y231468D02*
X989000Y239468D01*
X981000Y214008D02*
X989000Y206008D01*
Y99395D02*
Y274922D01*
X1003000Y93800D02*
Y414986D01*
X981000Y217326D02*
X989000Y225326D01*
X981000Y210255D02*
X989000Y218255D01*
X981000Y221079D02*
X989000Y213079D01*
X1003000Y189829D02*
X1009200Y196029D01*
X1003000Y182758D02*
X1009200Y188958D01*
X1003000Y192008D02*
X1009200Y185808D01*
X1003000Y213221D02*
X1009200Y207021D01*
X1003000Y199079D02*
X1009200Y192879D01*
X1003000Y196900D02*
X1009200Y203100D01*
X1003000Y177866D02*
X1009200Y171666D01*
X1023200Y185950D02*
X1034600Y174550D01*
X1023200Y174673D02*
X1034600Y186073D01*
X1003000Y184937D02*
X1009200Y178737D01*
X1003000Y175687D02*
X1009200Y181887D01*
X1023200Y193021D02*
X1034600Y181621D01*
X1003000Y225184D02*
X1009200Y231384D01*
X1003000Y218113D02*
X1009200Y224313D01*
X1003000Y227364D02*
X1009200Y221164D01*
X1003000Y241506D02*
X1009200Y235306D01*
X1003000Y234435D02*
X1009200Y228235D01*
X1003000Y232255D02*
X1009200Y238455D01*
X1003000Y211042D02*
X1009200Y217242D01*
Y97829D02*
Y410900D01*
X1023200Y97829D02*
Y413800D01*
X1003000Y220292D02*
X1009200Y214093D01*
X1023200Y217100D02*
X1034600Y228500D01*
X1023200Y231242D02*
X1032253Y240294D01*
X981000Y256435D02*
X989000Y248435D01*
X981000Y245610D02*
X989000Y253610D01*
X981000Y266824D02*
X989000Y274823D01*
X981000Y252681D02*
X989000Y260681D01*
X981000Y270577D02*
X989000Y262577D01*
X985086Y273562D02*
X989000Y269648D01*
X981000Y238539D02*
X989000Y246539D01*
X981000Y249363D02*
X989000Y241364D01*
X1003000Y298074D02*
X1009200Y291874D01*
X1003000Y291003D02*
X1009200Y284803D01*
X1003000Y288824D02*
X1009200Y295023D01*
X1003000Y324179D02*
X1009200Y330379D01*
X1003000Y317108D02*
X1009200Y323308D01*
X1003000Y326358D02*
X1009200Y320158D01*
X982718Y332181D02*
X989000Y338463D01*
X986254Y328646D02*
X989000Y331392D01*
Y325899D02*
Y443101D01*
X1003000Y302966D02*
X1009200Y309166D01*
X1003000Y295895D02*
X1009200Y302095D01*
X1003000Y305145D02*
X1009200Y298945D01*
X1003000Y319287D02*
X1009200Y313087D01*
X1003000Y312216D02*
X1009200Y306016D01*
X1003000Y310037D02*
X1009200Y316237D01*
X1003000Y269790D02*
X1009200Y263590D01*
X1003000Y262719D02*
X1009200Y256519D01*
X1003000Y260539D02*
X1009200Y266739D01*
X1003000Y274681D02*
X1009200Y280881D01*
X1003000Y267610D02*
X1009200Y273810D01*
X1003000Y276861D02*
X1009200Y270661D01*
X1003000Y246397D02*
X1009200Y252597D01*
X1003000Y239326D02*
X1009200Y245526D01*
X1003000Y248577D02*
X1009200Y242377D01*
X1003000Y253468D02*
X1009200Y259668D01*
X1003000Y255648D02*
X1009200Y249448D01*
X1023200Y263732D02*
X1035318Y251614D01*
X1003000Y333429D02*
X1009200Y327229D01*
X1003000Y283932D02*
X1009200Y277732D01*
X1003000Y281752D02*
X1009200Y287952D01*
X1003000Y331250D02*
X1009200Y337450D01*
X1023200Y348585D02*
X1041870Y329915D01*
X1023200Y330237D02*
X1043000Y350037D01*
X1023200Y294881D02*
X1045150Y316831D01*
X1023200Y284945D02*
X1060000Y248145D01*
X1023200Y245384D02*
X1094840Y317024D01*
X1023200Y341514D02*
X1040536Y324178D01*
X1023200Y316094D02*
X1043000Y335895D01*
X1023200Y323166D02*
X1043000Y342966D01*
X1023200Y214235D02*
X1034600Y202835D01*
X1023200Y195887D02*
X1034600Y207287D01*
X1023200Y210029D02*
X1034600Y221429D01*
X1023200Y202958D02*
X1034600Y214358D01*
X1023200Y221306D02*
X1034600Y209906D01*
X1023200Y181744D02*
X1034600Y193144D01*
X1023200Y178879D02*
X1034600Y167479D01*
X1023200Y167602D02*
X1034600Y179002D01*
X1023200Y207164D02*
X1034600Y195763D01*
X1023200Y200093D02*
X1034600Y188692D01*
X1023200Y188815D02*
X1034600Y200216D01*
X1023200Y224171D02*
X1034600Y235571D01*
X1023200Y228377D02*
X1034600Y216977D01*
X1023200Y235448D02*
X1034600Y224048D01*
X1023200Y238313D02*
X1032038Y247151D01*
X1023200Y242519D02*
X1034600Y231119D01*
X1023200Y249590D02*
X1032093Y240697D01*
X1034600Y97829D02*
Y236979D01*
X1048600Y97829D02*
Y237479D01*
X1050492Y244392D02*
X1058295Y252195D01*
X1048600Y193002D02*
X1060000Y204402D01*
X1048600Y185931D02*
X1060000Y197331D01*
X1048600Y202977D02*
X1060000Y191577D01*
X1048600Y217119D02*
X1060000Y205719D01*
X1048600Y210048D02*
X1060000Y198648D01*
X1048600Y200073D02*
X1060000Y211474D01*
X1048600Y171789D02*
X1060000Y183189D01*
X1048600Y164718D02*
X1060000Y176118D01*
X1048600Y181763D02*
X1060000Y170364D01*
X1048600Y195906D02*
X1060000Y184506D01*
X1048600Y188835D02*
X1060000Y177435D01*
X1048600Y178860D02*
X1060000Y190260D01*
X1048600Y221287D02*
X1060000Y232687D01*
X1048600Y214216D02*
X1060000Y225616D01*
X1048600Y231261D02*
X1060000Y219861D01*
X1023200Y277874D02*
X1060000Y241074D01*
X1048600Y228358D02*
X1060000Y239758D01*
X1048600Y235429D02*
X1060000Y246829D01*
X1048600Y207145D02*
X1060000Y218545D01*
X1074000Y97829D02*
Y249577D01*
X1060000Y97829D02*
Y249577D01*
X1050488Y243515D02*
X1060000Y234003D01*
X1048600Y224190D02*
X1060000Y212790D01*
X1048930Y238002D02*
X1060000Y226932D01*
X1023200Y266597D02*
X1072451Y315848D01*
X1023200Y313229D02*
X1073519Y262910D01*
X1023200Y301952D02*
X1041674Y320426D01*
X1023200Y287810D02*
X1050936Y315546D01*
X1023200Y273668D02*
X1068052Y318521D01*
X1023200Y256661D02*
X1032224Y247637D01*
X1048655Y249626D02*
X1057965Y258936D01*
X1023200Y270803D02*
X1040515Y253488D01*
X1023200Y292016D02*
X1057633Y257583D01*
X1023200Y299087D02*
X1059936Y262352D01*
X1023200Y306158D02*
X1064261Y265097D01*
X1023200Y309023D02*
X1040609Y326432D01*
X1023200Y280739D02*
X1065670Y323209D01*
X1043000Y331423D02*
Y363577D01*
X1057000Y335998D02*
X1063168Y329830D01*
X1057000Y331423D02*
Y363577D01*
X1059454Y324064D02*
X1063697Y328307D01*
X1063000Y331353D02*
Y353577D01*
X1058169Y329850D02*
X1063000Y334681D01*
X1023200Y252455D02*
X1091501Y320756D01*
X1044706Y252747D02*
X1115598Y323640D01*
X1023200Y259526D02*
X1090724Y327050D01*
X1037849Y252962D02*
X1100395Y315508D01*
X1064064Y265035D02*
X1117815Y318785D01*
X1070805Y264705D02*
X1122065Y315965D01*
X1074715Y261544D02*
X1130261Y317090D01*
X1109492Y324605D02*
X1112494Y327607D01*
X1077000Y337211D02*
X1090602Y323609D01*
X1077000Y344282D02*
X1091686Y329596D01*
X1084152Y327549D02*
X1093000Y336397D01*
X1081479Y331948D02*
X1093000Y343468D01*
X1107000Y333101D02*
X1115509Y324592D01*
X1093000Y331423D02*
Y347100D01*
X1107976Y330160D02*
X1108958Y331142D01*
X1107000Y331423D02*
Y333101D01*
X1159653Y0D02*
X1323384Y163731D01*
X1180866Y0D02*
X1324462Y143596D01*
X1074000Y163435D02*
X1237435Y0D01*
X1152582D02*
X1322002Y169420D01*
X1074000Y170506D02*
X1244506Y0D01*
X1223292D02*
X1324460Y101167D01*
X1237435Y0D02*
X1324460Y87025D01*
X1230363Y0D02*
X1324460Y94096D01*
X1202079Y0D02*
X1322117Y120038D01*
X1216221Y0D02*
X1325948Y109727D01*
X1209150Y0D02*
X1322957Y113807D01*
X1074000Y198790D02*
X1272790Y0D01*
X1074000Y205861D02*
X1279861Y0D01*
X1074000Y212932D02*
X1286932Y0D01*
X1074000Y220003D02*
X1294003Y0D01*
X1074000Y227074D02*
X1301074Y0D01*
X1074000Y234145D02*
X1308145Y0D01*
X1103084D02*
X1322047Y218962D01*
X1131369Y0D02*
X1324569Y193200D01*
X1110156Y0D02*
X1323870Y213714D01*
X1074000Y177577D02*
X1251577Y0D01*
X1074000Y184648D02*
X1258648Y0D01*
X1074000Y191719D02*
X1265719Y0D01*
X1251577D02*
X1333615Y82038D01*
X1265719Y0D02*
X1349679Y83960D01*
X1258648Y0D02*
X1342608Y83960D01*
X1187937Y0D02*
X1326287Y138350D01*
X1244506Y0D02*
X1328466Y83960D01*
X1195008Y0D02*
X1330339Y135331D01*
X1322287Y0D02*
X1374606Y52318D01*
X1336429Y0D02*
X1376509Y40079D01*
X1329358Y0D02*
X1374894Y45535D01*
X1315216Y0D02*
X1377849Y62633D01*
X1330251Y83960D02*
X1379889Y34322D01*
X1308145Y0D02*
X1442000Y133855D01*
X1166724Y0D02*
X1326671Y159947D01*
X1145511Y0D02*
X1331334Y185823D01*
X1138440Y0D02*
X1326882Y188442D01*
X1117227Y0D02*
X1327448Y210221D01*
X1124298Y0D02*
X1332818Y208520D01*
X1096013Y0D02*
X1332436Y236423D01*
X1286932Y0D02*
X1442000Y155068D01*
X1301074Y0D02*
X1442000Y140926D01*
X1294003Y0D02*
X1442000Y147997D01*
X1173795Y0D02*
X1331646Y157851D01*
X1279861Y0D02*
X1442000Y162139D01*
X1272790Y0D02*
X1442000Y169210D01*
X1324460Y83960D02*
Y102040D01*
Y101167D02*
X1325332Y102040D01*
X1324460Y83960D02*
X1330729D01*
X1335595Y106900D02*
X1340455Y102040D01*
X1332404D02*
X1337263Y106900D01*
X1325332Y102040D02*
X1330572Y107279D01*
X1331862Y129783D02*
X1336839Y134760D01*
X1333280Y180698D02*
X1338142Y185560D01*
X1332978Y208512D02*
X1337850Y203640D01*
X1333706Y152840D02*
X1338566Y157700D01*
X1334292D02*
X1339152Y152840D01*
X1334717Y185560D02*
X1339577Y180700D01*
X1333414Y236360D02*
X1338274Y231500D01*
X1335009Y203640D02*
X1339869Y208500D01*
X1334585Y231500D02*
X1339444Y236360D01*
X1324460Y102040D02*
X1355540D01*
X1333500Y134760D02*
X1346500D01*
X1333500Y106900D02*
X1346500D01*
X1333500Y129900D02*
X1346500D01*
X1339283Y82000D02*
X1374735Y46547D01*
X1336019Y134760D02*
X1340879Y129900D01*
X1339050D02*
X1343910Y134760D01*
X1333500Y203640D02*
X1346500D01*
X1333500Y180700D02*
X1346500D01*
X1333500Y185560D02*
X1346500D01*
X1333500Y236360D02*
X1346500D01*
X1333500Y208500D02*
X1346500D01*
X1333500Y231500D02*
X1346500D01*
X1333500Y152840D02*
X1346500D01*
X1333500Y157700D02*
X1346500D01*
X1364714Y0D02*
X1390895Y26181D01*
X1371785Y0D02*
X1396523Y24738D01*
X1343500Y0D02*
X1379014Y35514D01*
X1357643Y0D02*
X1386200Y28557D01*
X1350571Y0D02*
X1382257Y31685D01*
X1396547Y24735D02*
X1421282Y0D01*
X1403598Y24755D02*
X1428353Y0D01*
X1409205Y26219D02*
X1435424Y0D01*
X1378856D02*
X1403613Y24757D01*
X1384322Y29889D02*
X1414211Y0D01*
X1385927D02*
X1416401Y30474D01*
X1344393Y83960D02*
X1374755Y53598D01*
X1351464Y83960D02*
X1376219Y59205D01*
X1355540Y94026D02*
X1381753Y67813D01*
X1355540Y101097D02*
X1385595Y71042D01*
X1354014Y109694D02*
X1390176Y73532D01*
X1349610Y135312D02*
X1412961Y71961D01*
X1425380Y52470D02*
X1442000Y35850D01*
X1419526Y33599D02*
X1442000Y56073D01*
X1355540Y86955D02*
X1378611Y63884D01*
X1421961Y62961D02*
X1442000Y42921D01*
X1425243Y46387D02*
X1442000Y63144D01*
X1400069Y0D02*
X1442000Y41931D01*
X1414211Y0D02*
X1442000Y27789D01*
X1407140Y0D02*
X1442000Y34860D01*
X1417813Y31753D02*
X1442000Y7566D01*
X1413884Y28611D02*
X1442000Y495D01*
X1392998Y0D02*
X1442000Y49002D01*
X1421282Y0D02*
X1442000Y20718D01*
X1435424Y0D02*
X1442000Y6576D01*
X1428353Y0D02*
X1442000Y13647D01*
X1425127Y45652D02*
X1442000Y28779D01*
X1421042Y35595D02*
X1442000Y14637D01*
X1423532Y40176D02*
X1442000Y21708D01*
X1348294Y157841D02*
X1442000Y64134D01*
X1353682Y138310D02*
X1442000Y49992D01*
X1355536Y143527D02*
X1442000Y57063D01*
X1404465Y75106D02*
X1442000Y112642D01*
X1387367Y72151D02*
X1442000Y126784D01*
X1353288Y159917D02*
X1442000Y71206D01*
X1421443Y63800D02*
X1442000Y84358D01*
X1425262Y53477D02*
X1442000Y70215D01*
X1423819Y59105D02*
X1442000Y77286D01*
X1409921Y73491D02*
X1442000Y105571D01*
X1418315Y67743D02*
X1442000Y91428D01*
X1414486Y70986D02*
X1442000Y98500D01*
X1342666Y106900D02*
X1347526Y102040D01*
X1342274Y83960D02*
X1355540D01*
X1339475Y102040D02*
X1344335Y106900D01*
X1341363Y157700D02*
X1346223Y152840D01*
X1340777D02*
X1345637Y157700D01*
X1349373Y107264D02*
X1354597Y102040D01*
X1355540Y83960D02*
Y102040D01*
X1354597D02*
X1355540Y101097D01*
X1343090Y134760D02*
X1348056Y129794D01*
X1340353Y180700D02*
X1345213Y185560D01*
X1341788D02*
X1346649Y180699D01*
X1342080Y203640D02*
X1346949Y208509D01*
X1340061Y208500D02*
X1344921Y203640D01*
X1340485Y236360D02*
X1345345Y231500D01*
X1341656D02*
X1346516Y236360D01*
X1353084Y188406D02*
X1442000Y99490D01*
X1355540Y96892D02*
X1442000Y183352D01*
X1348609Y185809D02*
X1442000Y92419D01*
X1353617Y102040D02*
X1442000Y190423D01*
X1357021Y113758D02*
X1395652Y75127D01*
X1397682Y75394D02*
X1442000Y119713D01*
X1357894Y119956D02*
X1402470Y75380D01*
X1355540Y89821D02*
X1442000Y176281D01*
X1356591Y163685D02*
X1442000Y78277D01*
X1357999Y169349D02*
X1442000Y85348D01*
X1352508Y210194D02*
X1442000Y120703D01*
X1346546Y102040D02*
X1442000Y197494D01*
X1347115Y208517D02*
X1442000Y113632D01*
X1347500Y236416D02*
X1442000Y141916D01*
X1351865Y128572D02*
X1442000Y218708D01*
X1346121Y129900D02*
X1442000Y225779D01*
X1355684Y125321D02*
X1442000Y211637D01*
X1355421Y193139D02*
X1442000Y106561D01*
X1357826Y120392D02*
X1442000Y204565D01*
X1355244Y146094D02*
X1442000Y232850D01*
X1356102Y213672D02*
X1442000Y127774D01*
X1357947Y218898D02*
X1442000Y134845D01*
X1081871Y0D02*
X1324803Y242932D01*
X1088942Y0D02*
X1327543Y238600D01*
X1074000Y241216D02*
X1315216Y0D01*
X1074000Y248287D02*
X1322287Y0D01*
X1060658D02*
X1324412Y263754D01*
X1107010Y53423D02*
X1322208Y268621D01*
X1107685Y61169D02*
X1324605Y278089D01*
X1105813Y66368D02*
X1328271Y288826D01*
X1107900Y96739D02*
X1325007Y313846D01*
X1107900Y75526D02*
X1325138Y292764D01*
X1107900Y82597D02*
X1325293Y299990D01*
X1103590Y99500D02*
X1322462Y318372D01*
X1098608Y315602D02*
X1324460Y89751D01*
X1096519Y99500D02*
X1322779Y325760D01*
X1074000Y147692D02*
X1322000Y395692D01*
X1074000Y133550D02*
X1323550Y383100D01*
X1074000Y140621D02*
X1322000Y388621D01*
X1126819Y315676D02*
X1322163Y120332D01*
X1104596Y316686D02*
X1324460Y96822D01*
X1108182Y320172D02*
X1326313Y102040D01*
X1131497Y318069D02*
X1324285Y125281D01*
X1134159Y322478D02*
X1328089Y128548D01*
X1117096Y353683D02*
X1324741Y146038D01*
X1067729Y0D02*
X1328282Y260552D01*
X1073910Y262519D02*
X1336429Y0D01*
X1058363Y320493D02*
X1378856Y0D01*
X1023200Y320300D02*
X1343500Y0D01*
X1049178Y315536D02*
X1364714Y0D01*
X1054915Y316870D02*
X1371785Y0D01*
X1077232Y315766D02*
X1392998Y0D01*
X1081752Y318317D02*
X1400069Y0D01*
X1084260Y322880D02*
X1407140Y0D01*
X1107900Y89668D02*
X1329176Y310944D01*
X1076097Y253262D02*
X1329358Y0D01*
X1074800D02*
X1334100Y259300D01*
X1023200Y327371D02*
X1350571Y0D01*
X1059372Y326555D02*
X1385927Y0D01*
X1023200Y334442D02*
X1357643Y0D01*
X1074000Y126479D02*
X1330621Y383100D01*
X1074000Y119408D02*
X1337692Y383100D01*
X1074000Y98194D02*
X1442000Y466194D01*
X1109450Y325974D02*
X1333384Y102040D01*
X1089448Y99500D02*
X1442000Y452052D01*
X1082377Y99500D02*
X1442000Y459123D01*
X1117000Y346708D02*
X1333808Y129900D01*
X1074000Y105266D02*
X1351835Y383100D01*
X1074000Y112337D02*
X1344763Y383100D01*
X1074000Y154763D02*
X1322000Y402763D01*
X1074000Y161834D02*
X1324729Y412563D01*
X1074000Y168905D02*
X1322336Y417241D01*
X1074000Y175976D02*
X1323262Y425238D01*
X1074000Y190118D02*
X1323537Y439656D01*
X1167280Y430778D02*
X1322870Y275188D01*
X1171782Y433347D02*
X1325793Y279336D01*
X1178679Y440592D02*
X1324588Y294683D01*
X1197485Y443000D02*
X1322625Y317859D01*
X1184635Y441707D02*
X1325653Y300689D01*
X1211627Y443000D02*
X1325135Y329492D01*
X990058Y551431D02*
X1322012Y219478D01*
X1042907Y449086D02*
X1322026Y169967D01*
X1042496Y456567D02*
X1323756Y175308D01*
X1006500Y584487D02*
X1322173Y268814D01*
X993594Y554967D02*
X1323283Y225278D01*
X1004160Y565614D02*
X1324460Y245313D01*
X1074000Y225473D02*
X1309712Y461185D01*
X1074000Y197189D02*
X1322002Y445191D01*
X1074000Y218402D02*
X1324634Y469036D01*
X1074000Y239615D02*
X1300527Y466143D01*
X1204556Y443000D02*
X1322524Y325032D01*
X1074000Y232544D02*
X1303706Y462250D01*
X1074000Y183047D02*
X1326921Y435968D01*
X1119377Y358474D02*
X1327389Y150461D01*
X1039069Y445853D02*
X1332178Y152743D01*
X1074000Y211331D02*
X1327092Y464423D01*
X1174271Y437929D02*
X1330342Y281858D01*
X1074000Y204260D02*
X1331684Y461944D01*
X1236990Y467134D02*
X1442000Y262124D01*
X1231191Y458791D02*
X1442000Y247982D01*
X1234726Y462327D02*
X1442000Y255053D01*
X1190413Y443000D02*
X1329240Y304173D01*
X1217032Y444665D02*
X1329366Y332331D01*
X1227655Y455256D02*
X1350546Y332365D01*
X982987Y544360D02*
X1326743Y200605D01*
X1004500Y501634D02*
X1327269Y178866D01*
X986523Y547896D02*
X1331102Y203316D01*
X1006356Y570489D02*
X1326163Y250682D01*
X997129Y558502D02*
X1326504Y229128D01*
X1000665Y562038D02*
X1331397Y231306D01*
X1006500Y577416D02*
X1330128Y253788D01*
X1074000Y246687D02*
X1442000Y614687D01*
X1076497Y256254D02*
X1442000Y621758D01*
X1131215Y332185D02*
X1442000Y642971D01*
X1132910Y319739D02*
X1442000Y628829D01*
X1134035Y327935D02*
X1442000Y635900D01*
X1336311Y254440D02*
X1341171Y259300D01*
X1333500Y254440D02*
X1346500D01*
X1333500Y259300D02*
X1346500D01*
X1338758D02*
X1343618Y254440D01*
X1343382D02*
X1348401Y259458D01*
X1348544Y231317D02*
X1442000Y324773D01*
X1349821Y253808D02*
X1442000Y345987D01*
X1331514Y259473D02*
X1336547Y254440D01*
X1357265Y325646D02*
X1442000Y240911D01*
X1353456Y229158D02*
X1442000Y317702D01*
X1357522Y318318D02*
X1442000Y233840D01*
X1357842Y268899D02*
X1442000Y353058D01*
X1355540Y245384D02*
X1442000Y331844D01*
X1353807Y250723D02*
X1442000Y338915D01*
X1347760Y152752D02*
X1442000Y246992D01*
X1352419Y238568D02*
X1442000Y148987D01*
X1352574Y150495D02*
X1442000Y239921D01*
X1347390Y180665D02*
X1442000Y275276D01*
X1345829Y259300D02*
X1442000Y163129D01*
X1351672Y260529D02*
X1442000Y170200D01*
X1356217Y175351D02*
X1442000Y261134D01*
X1355181Y242877D02*
X1442000Y156058D01*
X1357970Y170033D02*
X1442000Y254063D01*
X1357780Y268562D02*
X1442000Y184342D01*
X1355557Y263714D02*
X1442000Y177271D01*
X1352688Y178893D02*
X1442000Y268205D01*
X1348842Y203331D02*
X1442000Y296489D01*
X1351688Y288797D02*
X1442000Y198484D01*
X1353224Y200642D02*
X1442000Y289418D01*
X1350774Y310924D02*
X1442000Y219698D01*
X1354841Y292715D02*
X1442000Y205555D01*
X1354765Y299861D02*
X1442000Y212627D01*
X1355459Y195806D02*
X1442000Y282347D01*
X1355659Y277755D02*
X1442000Y191413D01*
Y0D02*
Y764392D01*
X1354959Y313810D02*
X1442000Y226769D01*
X1357991Y219551D02*
X1442000Y303560D01*
X1356693Y225324D02*
X1442000Y310631D01*
X1326211Y279695D02*
X1333676Y287160D01*
X1333500Y282300D02*
X1346500D01*
X1331983Y287288D02*
X1336971Y282300D01*
X1333500Y287160D02*
X1346500D01*
X1339182D02*
X1344042Y282300D01*
X1346254Y287160D02*
X1353455Y279959D01*
X1342958Y282300D02*
X1347932Y287274D01*
X1335887Y282300D02*
X1340747Y287160D01*
X1333500Y305240D02*
X1346500D01*
X1329710Y304407D02*
X1335403Y310100D01*
X1333500D02*
X1346500D01*
X1329759Y310725D02*
X1335244Y305240D01*
X1344527Y310100D02*
X1350161Y304465D01*
X1337456Y310100D02*
X1342316Y305240D01*
X1337614D02*
X1342474Y310100D01*
X1344685Y305240D02*
X1350134Y310689D01*
X1342237Y383100D02*
X1442000Y283337D01*
X1328095Y383100D02*
X1442000Y269195D01*
X1335166Y383100D02*
X1442000Y276266D01*
X1357109Y275238D02*
X1442000Y360129D01*
X1354169Y279369D02*
X1442000Y367200D01*
X1355426Y294768D02*
X1442000Y381342D01*
X1349603Y281873D02*
X1442000Y374271D01*
X1349308Y383100D02*
X1442000Y290408D01*
X1355239Y412525D02*
X1442000Y325764D01*
X1354321Y300734D02*
X1442000Y388413D01*
X1350714Y304198D02*
X1442000Y395484D01*
X1350583Y332351D02*
X1442000Y423768D01*
X1354831Y329528D02*
X1442000Y416697D01*
X1329340Y332321D02*
X1442000Y444981D01*
X1358000Y395621D02*
X1442000Y311621D01*
X1356379Y383100D02*
X1442000Y297479D01*
X1358000Y388550D02*
X1442000Y304550D01*
X1357459Y325085D02*
X1442000Y409626D01*
X1357411Y317966D02*
X1442000Y402555D01*
X1358000Y402692D02*
X1442000Y318692D01*
X1003000Y361714D02*
X1009200Y355514D01*
X1003000Y352463D02*
X1009200Y358663D01*
X1003000Y366605D02*
X1009200Y372805D01*
X1003000Y359534D02*
X1009200Y365734D01*
X1003000Y368785D02*
X1009200Y362585D01*
X1003000Y347571D02*
X1009200Y341371D01*
X1003000Y340500D02*
X1009200Y334300D01*
X1003000Y338321D02*
X1009200Y344521D01*
X1003000Y354642D02*
X1009200Y348442D01*
X1003000Y345392D02*
X1009200Y351592D01*
X1023200Y351450D02*
X1040573Y368823D01*
X1003000Y404140D02*
X1009200Y397940D01*
X1003000Y397069D02*
X1009200Y390869D01*
X1003000Y394889D02*
X1009200Y401089D01*
X1003000Y409031D02*
X1007035Y413066D01*
X1003000Y401960D02*
X1009200Y408160D01*
X1003000Y411211D02*
X1009200Y405011D01*
X1003000Y382927D02*
X1009200Y376727D01*
X1003000Y375856D02*
X1009200Y369656D01*
X1003000Y373676D02*
X1009200Y379876D01*
X1003000Y387818D02*
X1009200Y394018D01*
X1003000Y380747D02*
X1009200Y386947D01*
X1003000Y389998D02*
X1009200Y383798D01*
X1023200Y383940D02*
X1041626Y365514D01*
X1023200Y412224D02*
X1066566Y368858D01*
X1014716Y427779D02*
X1073779Y368716D01*
X1023200Y391011D02*
X1041044Y373167D01*
X1023200Y398082D02*
X1043954Y377328D01*
X1023200Y405153D02*
X1048915Y379438D01*
X1023200Y362727D02*
X1043000Y342927D01*
X1023200Y355656D02*
X1043000Y335856D01*
X1023200Y337308D02*
X1043000Y357108D01*
X1023200Y344379D02*
X1042719Y363898D01*
X1023200Y369798D02*
X1043000Y349998D01*
X1023200Y376869D02*
X1043000Y357069D01*
X1002975Y446591D02*
X1083069Y366497D01*
X1001277Y462431D02*
X1100919Y362789D01*
X1003995Y466784D02*
X1103683Y367096D01*
X996766Y459871D02*
X1087478Y369159D01*
X1004500Y473350D02*
X1108474Y369377D01*
X1023200Y372663D02*
X1215226Y564689D01*
X1023200Y379734D02*
X1190513Y547047D01*
X1023200Y358521D02*
X1216707Y552028D01*
X1023200Y365592D02*
X1214763Y557155D01*
X1023200Y408018D02*
X1129140Y513958D01*
X1023200Y386805D02*
X1180932Y544537D01*
X1023200Y400947D02*
X1171167Y548914D01*
X982000Y474637D02*
X983500Y473137D01*
X982000Y469899D02*
X983646Y468253D01*
X982000Y472884D02*
X983500Y474384D01*
X1003000Y433014D02*
Y446000D01*
X994650Y457250D02*
X997501Y460101D01*
X992253Y459646D02*
X1000950Y450950D01*
X982000Y469899D02*
Y480577D01*
X982517Y481191D02*
X983500Y480208D01*
X982000Y479955D02*
X983500Y481455D01*
X981669Y493766D02*
X983500Y495597D01*
Y491243D02*
Y497651D01*
Y470000D02*
Y482757D01*
X1004500Y470000D02*
Y502000D01*
X1005592Y414509D02*
X1009200Y410900D01*
X1003000Y439495D02*
X1009779Y432716D01*
X1004500Y480421D02*
X1030103Y454818D01*
X1004500Y487492D02*
X1033336Y458657D01*
X1004500Y494563D02*
X1040817Y458246D01*
X1015491Y424408D02*
X1021150Y418750D01*
X1011542Y431716D02*
X1030079Y450252D01*
X1014704Y427807D02*
X1033275Y446377D01*
X1016934Y422965D02*
X1040528Y446560D01*
X1006500Y612771D02*
X1158000Y461271D01*
X1006500Y619842D02*
X1158572Y467771D01*
X1006500Y626913D02*
X1161757Y471656D01*
X1006500Y624663D02*
X1011890Y630053D01*
X1006500Y610521D02*
X1021618Y625639D01*
X1006500Y617592D02*
X1015527Y626619D01*
X1020470Y419430D02*
X1122060Y521021D01*
X1023099Y414988D02*
X1124398Y516288D01*
X1006500Y591558D02*
X1155778Y442280D01*
X1021870Y625686D02*
X1122576Y524980D01*
X1006500Y598629D02*
X1158000Y447129D01*
X1006500Y605700D02*
X1158000Y454200D01*
X1057000Y343069D02*
X1063000Y337069D01*
X1057000Y335752D02*
X1063000Y341753D01*
X1057000Y349895D02*
X1061993Y354888D01*
X1057000Y342823D02*
X1063000Y348824D01*
X1057000Y350140D02*
X1063000Y344140D01*
X1077000Y334287D02*
Y353577D01*
Y334539D02*
X1091281Y348820D01*
X1077000Y351353D02*
X1093000Y335353D01*
X1077000Y348681D02*
X1082495Y354176D01*
X1089592Y350509D02*
X1093000Y347100D01*
X1077000Y341610D02*
X1086542Y351152D01*
X1057000Y356966D02*
X1060512Y360478D01*
X1057000Y357211D02*
X1063000Y351211D01*
X1057328Y363954D02*
X1060530Y360752D01*
X1059438Y368915D02*
X1062510Y365843D01*
X1078858Y356566D02*
X1093000Y342424D01*
X1079298Y358050D02*
X1080527Y359280D01*
X1078716Y363779D02*
X1080676Y361819D01*
X1099491Y360408D02*
X1100520Y359379D01*
X1098848Y363459D02*
X1165936Y430546D01*
X1078473Y364296D02*
X1155609Y441432D01*
X1095824Y367505D02*
X1160150Y431831D01*
X1090720Y369473D02*
X1156674Y435426D01*
X1117000Y342900D02*
Y353577D01*
Y342900D02*
X1125408Y334491D01*
X1174454Y439064D02*
X1176542Y441152D01*
X1111790Y369330D02*
X1183719Y441258D01*
X1075113Y368007D02*
X1158000Y450895D01*
X1116479Y366948D02*
X1192532Y443000D01*
X1058246Y365283D02*
X1158000Y465037D01*
X1069522Y369488D02*
X1158000Y457966D01*
X1023200Y393876D02*
X1175332Y546008D01*
X1051177Y379427D02*
X1219950Y548200D01*
X1119152Y362549D02*
X1199603Y443000D01*
X1117000Y353326D02*
X1206674Y443000D01*
X1117000Y346255D02*
X1213883Y443138D01*
X1158000Y446423D02*
Y465000D01*
X1172000Y455123D02*
Y462100D01*
X1133080Y514476D02*
X1168828Y478727D01*
X1136916Y517711D02*
X1172364Y482263D01*
X1026528Y628098D02*
X1125811Y528816D01*
X1029172Y632526D02*
X1131935Y529762D01*
X1135712Y527602D02*
X1166576Y558465D01*
X1138042Y522860D02*
X1168174Y552993D01*
X1130979Y529940D02*
X1168312Y567272D01*
X1182263Y472364D02*
X1197627Y457000D01*
X1185799Y475899D02*
X1204698Y457000D01*
X1172000Y461413D02*
X1175210Y458204D01*
X1175192Y465293D02*
X1181042Y459443D01*
X1178727Y468828D02*
X1190556Y457000D01*
X1186423D02*
X1209601D01*
X1186423Y443000D02*
X1212500D01*
X1189334Y479435D02*
X1210685Y458084D01*
X1192870Y482970D02*
X1214220Y461620D01*
X1196405Y486506D02*
X1217756Y465155D01*
X1160050Y469950D02*
X1200509Y510408D01*
X1172000Y462100D02*
X1210408Y500509D01*
X1172000Y457823D02*
X1221035Y506858D01*
X1137862Y523835D02*
X1175899Y485799D01*
X1180790Y544547D02*
X1206504Y518833D01*
X1199941Y490041D02*
X1221291Y468691D01*
X1187059Y545349D02*
X1213628Y518780D01*
X1218780Y513629D02*
X1220662Y511746D01*
X1219254Y512148D02*
X1221667Y514561D01*
X988769Y522080D02*
X1148690Y682000D01*
X992305Y518544D02*
X1155761Y682000D01*
X1004592Y566186D02*
X1120405Y682000D01*
X985234Y525615D02*
X1141618Y682000D01*
X981698Y529151D02*
X1134548Y682000D01*
X1006500Y631734D02*
X1010531Y635765D01*
X1006500Y641056D02*
X1010686Y636870D01*
X1006500Y648127D02*
X1013098Y641528D01*
X1006500Y655198D02*
X1017526Y644172D01*
X1006500Y662269D02*
X1021227Y647541D01*
X985500Y576571D02*
Y704500D01*
X1006500Y603450D02*
X1085050Y682000D01*
X1006500Y572222D02*
Y704500D01*
Y645876D02*
X1065124Y704500D01*
X1006500Y638805D02*
X1072195Y704500D01*
X1006500Y638805D02*
X1072195Y704500D01*
X1006500Y589308D02*
X1099192Y682000D01*
X1006500Y575166D02*
X1113334Y682000D01*
X1006500Y582237D02*
X1106263Y682000D01*
X1017966Y644280D02*
X1069333Y695647D01*
X1006500Y596379D02*
X1092121Y682000D01*
X1029280Y632966D02*
X1078314Y682000D01*
X998185Y453714D02*
X1200960Y656489D01*
X1003000Y444387D02*
X1213073Y654460D01*
X1001660Y450118D02*
X1206002Y654460D01*
X1006500Y633984D02*
X1165293Y475192D01*
X1032541Y636227D02*
X1179435Y489334D01*
X1036077Y639763D02*
X1182970Y492870D01*
X1039612Y643299D02*
X1186506Y496405D01*
X1043148Y646834D02*
X1190041Y499941D01*
X1046683Y650370D02*
X1193577Y503476D01*
X1050219Y653905D02*
X1197112Y507012D01*
X1053754Y657441D02*
X1200524Y510671D01*
X1057290Y660976D02*
X1202472Y515794D01*
X1004491Y502446D02*
X1184045Y682000D01*
X1003899Y466499D02*
X1200960Y663560D01*
X1004500Y495384D02*
X1191116Y682000D01*
X995841Y515009D02*
X1162832Y682000D01*
X1002761Y507787D02*
X1176974Y682000D01*
X999376Y511473D02*
X1169903Y682000D01*
X1004500Y488313D02*
X1198187Y682000D01*
X1004500Y474171D02*
X1200960Y670631D01*
X1004500Y481242D02*
X1200960Y677702D01*
X1060825Y664512D02*
X1166547Y558790D01*
X1064361Y668047D02*
X1167349Y565059D01*
X1067896Y671583D02*
X1169852Y569627D01*
X1006500Y690553D02*
X1035370Y661683D01*
X1006500Y697624D02*
X1038905Y665219D01*
X1006500Y681232D02*
X1029769Y704500D01*
X1006500Y667089D02*
X1043911Y704500D01*
X1006500Y674160D02*
X1036840Y704500D01*
X1006500Y669340D02*
X1024763Y651077D01*
X1006500Y676411D02*
X1028299Y654612D01*
X1006500Y683482D02*
X1031834Y658148D01*
X1006695Y704500D02*
X1042441Y668754D01*
X1020837Y704500D02*
X1049512Y675825D01*
X1013766Y704500D02*
X1045976Y672290D01*
X994200Y725500D02*
X1033092Y764392D01*
X1001271Y725500D02*
X1040163Y764392D01*
X996300D02*
X1035192Y725500D01*
X982158Y764392D02*
X1021050Y725500D01*
X989229Y764392D02*
X1028121Y725500D01*
X987129D02*
X1026021Y764392D01*
X1006500Y702445D02*
X1008555Y704500D01*
X1006500Y688303D02*
X1022697Y704500D01*
X1006500Y695374D02*
X1015626Y704500D01*
X1003371Y764392D02*
X1042263Y725500D01*
X1010442Y764392D02*
X1049335Y725500D01*
X1008342D02*
X1047234Y764392D01*
X1006500Y660018D02*
X1050982Y704500D01*
X1006500Y652947D02*
X1058053Y704500D01*
X1027908D02*
X1053047Y679361D01*
X1034979Y704500D02*
X1056583Y682896D01*
X1049121Y704500D02*
X1063654Y689967D01*
X1042050Y704500D02*
X1060118Y686432D01*
X1056192Y704500D02*
X1067189Y693503D01*
X1063263Y704500D02*
X1070896Y696867D01*
X1067011Y764392D02*
X1105903Y725500D01*
X1057840D02*
X1096732Y764392D01*
X1064911Y725500D02*
X1103803Y764392D01*
X1059940D02*
X1098832Y725500D01*
X1024584Y764392D02*
X1063477Y725500D01*
X1031656Y764392D02*
X1070548Y725500D01*
X1029555D02*
X1068447Y764392D01*
X1015413Y725500D02*
X1054305Y764392D01*
X1022484Y725500D02*
X1061376Y764392D01*
X1017513D02*
X1056406Y725500D01*
X1045798Y764392D02*
X1084690Y725500D01*
X1052869Y764392D02*
X1091761Y725500D01*
X1050768D02*
X1089661Y764392D01*
X1036626Y725500D02*
X1075519Y764392D01*
X1043697Y725500D02*
X1082590Y764392D01*
X1038727D02*
X1077619Y725500D01*
X1071432Y675118D02*
X1173554Y572997D01*
X1078692Y682000D02*
X1185621Y575071D01*
X1074967Y678654D02*
X1178518Y575104D01*
X1171761Y698000D02*
X1178261Y704500D01*
X1178832Y698000D02*
X1185332Y704500D01*
X1176400D02*
X1182900Y698000D01*
X1162258Y704500D02*
X1168758Y698000D01*
X1169329Y704500D02*
X1175829Y698000D01*
X1164689D02*
X1171190Y704500D01*
X1072294Y697529D02*
X1079266Y704500D01*
X1136405Y698000D02*
X1142905Y704500D01*
X1133974D02*
X1140474Y698000D01*
X1070334Y704500D02*
X1076835Y698000D01*
X1079837D02*
X1086337Y704500D01*
X1077406D02*
X1083906Y698000D01*
X1150547D02*
X1157048Y704500D01*
X1157618Y698000D02*
X1164118Y704500D01*
X1155187D02*
X1161687Y698000D01*
X1141045Y704500D02*
X1147545Y698000D01*
X1148116Y704500D02*
X1154616Y698000D01*
X1143476D02*
X1149976Y704500D01*
X1092834Y682000D02*
X1214503Y560331D01*
X1106977Y682000D02*
X1218540Y570437D01*
X1099906Y682000D02*
X1215767Y566138D01*
X1191829Y682000D02*
X1200960Y672869D01*
X1177687Y682000D02*
X1200960Y658727D01*
X1184758Y682000D02*
X1200960Y665798D01*
Y654460D02*
X1219040D01*
Y682000D01*
X1200960Y654460D02*
Y682000D01*
X1192974Y698000D02*
X1199474Y704500D01*
X1078314Y682000D02*
X1200960D01*
X1197614Y704500D02*
X1204114Y698000D01*
X1183471Y704500D02*
X1189971Y698000D01*
X1190543Y704500D02*
X1197042Y698000D01*
X1185903D02*
X1192403Y704500D01*
X1198900Y682000D02*
X1200960Y679940D01*
X1214187Y698000D02*
X1220687Y704500D01*
X1211756D02*
X1218256Y698000D01*
X1200045D02*
X1206545Y704500D01*
X1207116Y698000D02*
X1213616Y704500D01*
X1204685D02*
X1211185Y698000D01*
X1105690Y704500D02*
X1112190Y698000D01*
X1108121D02*
X1114621Y704500D01*
X1093979Y698000D02*
X1100479Y704500D01*
X1101050Y698000D02*
X1107550Y704500D01*
X1098619D02*
X1105119Y698000D01*
X1122263D02*
X1128763Y704500D01*
X1129334Y698000D02*
X1135834Y704500D01*
X1126903D02*
X1133403Y698000D01*
X1112761Y704500D02*
X1119261Y698000D01*
X1119832Y704500D02*
X1126332Y698000D01*
X1115192D02*
X1121692Y704500D01*
X1084477D02*
X1090977Y698000D01*
X1081153Y764392D02*
X1120045Y725500D01*
X1086124D02*
X1125016Y764392D01*
X1071982Y725500D02*
X1110874Y764392D01*
X1074082D02*
X1112974Y725500D01*
X1079053D02*
X1117945Y764392D01*
X1086908Y698000D02*
X1093408Y704500D01*
X1091548D02*
X1098048Y698000D01*
X1095295Y764392D02*
X1134187Y725500D01*
X1088224Y764392D02*
X1127116Y725500D01*
X1093195D02*
X1132087Y764392D01*
X1093195Y725500D02*
X1132087Y764392D01*
X1151863D02*
X1190756Y725500D01*
X1158934Y764392D02*
X1197827Y725500D01*
X1156834D02*
X1195727Y764392D01*
X1102366Y764392D02*
X1141258Y725500D01*
X1116508Y764392D02*
X1155400Y725500D01*
X1109437Y764392D02*
X1148329Y725500D01*
X1173076Y764392D02*
X1211969Y725500D01*
X1180148Y764392D02*
X1219040Y725500D01*
X1178047D02*
X1216940Y764392D01*
X1163905Y725500D02*
X1202798Y764392D01*
X1170976Y725500D02*
X1209869Y764392D01*
X1166005D02*
X1204898Y725500D01*
X1121479D02*
X1160371Y764392D01*
X1128550Y725500D02*
X1167442Y764392D01*
X1123579D02*
X1162471Y725500D01*
X1100266D02*
X1139158Y764392D01*
X1114408Y725500D02*
X1153300Y764392D01*
X1107337Y725500D02*
X1146229Y764392D01*
X1142692Y725500D02*
X1181584Y764392D01*
X1149763Y725500D02*
X1188655Y764392D01*
X1144792D02*
X1183685Y725500D01*
X1130650Y764392D02*
X1169542Y725500D01*
X1137721Y764392D02*
X1176614Y725500D01*
X1135621D02*
X1174513Y764392D01*
X1192390Y457000D02*
X1223000Y487610D01*
X1199461Y457000D02*
X1223000Y480539D01*
X1203476Y493577D02*
X1223000Y474053D01*
X1185824Y457505D02*
X1223000Y494681D01*
X1180720Y459473D02*
X1223000Y501753D01*
X1206532Y457000D02*
X1223000Y473468D01*
X1217450Y445050D02*
X1234950Y462550D01*
X1209601Y457000D02*
X1223000Y470400D01*
X1237000Y467500D02*
Y503577D01*
X1056102Y377281D02*
X1224377Y545556D01*
X1006252Y433497D02*
X1229266Y656511D01*
X1003000Y437316D02*
X1226400Y660715D01*
X1038998Y459171D02*
X1234313Y654486D01*
X1042690Y448722D02*
X1250702Y656733D01*
X1042873Y455975D02*
X1248636Y661738D01*
X1223000Y470400D02*
Y503577D01*
X1253496Y514268D02*
X1300115Y467649D01*
X1058983Y373091D02*
X1230397Y544505D01*
X1257463Y517372D02*
X1301365Y473470D01*
X1258670Y523236D02*
X1304834Y477072D01*
X1240436Y548540D02*
X1310186Y478791D01*
X1237000Y488337D02*
X1322000Y403337D01*
X1220584Y448185D02*
X1335669Y333100D01*
X1224120Y451720D02*
X1342740Y333100D01*
X1237000Y502479D02*
X1322369Y417110D01*
X1237000Y495408D02*
X1326308Y406100D01*
X1197104Y556518D02*
X1325429Y428192D01*
X1237000Y481266D02*
X1322000Y396266D01*
X1237000Y474195D02*
X1322000Y389195D01*
X1239140Y507410D02*
X1322673Y423877D01*
X1243559Y552489D02*
X1324492Y471556D01*
X1245340Y557779D02*
X1326544Y476574D01*
X1205227Y654460D02*
X1442000Y417687D01*
X1126360Y334402D02*
X1442000Y650042D01*
X1122393Y337506D02*
X1442000Y657113D01*
X1197071Y563621D02*
X1329803Y430890D01*
X1212298Y654460D02*
X1442000Y424758D01*
X1219040Y661860D02*
X1442000Y438900D01*
X1239425Y655617D02*
X1442000Y453042D01*
X1233362Y654610D02*
X1442000Y445971D01*
X1219040Y654789D02*
X1442000Y431829D01*
X1263658Y652597D02*
X1442000Y474256D01*
X1256701Y652483D02*
X1442000Y467185D01*
X1242938Y659175D02*
X1442000Y460113D01*
X1210671Y500524D02*
X1223000Y488195D01*
X1207012Y497112D02*
X1223000Y481124D01*
X1218833Y506504D02*
X1223000Y502337D01*
X1215794Y502472D02*
X1223000Y495266D01*
X1237000Y501610D02*
X1249326Y513937D01*
X1239434Y511116D02*
X1244808Y516489D01*
X1237312Y516065D02*
X1242712Y521464D01*
X1191627Y547852D02*
X1223027Y516452D01*
X1230331Y544504D02*
X1246272Y528563D01*
X1194997Y551554D02*
X1227410Y519140D01*
X1183534Y575424D02*
X1260111Y652001D01*
X1174728Y573688D02*
X1254461Y653422D01*
X1236138Y545767D02*
X1252135Y529770D01*
X1212204Y519241D02*
X1341463Y648500D01*
X1225439Y518333D02*
X1355605Y648500D01*
X1216735Y516700D02*
X1348534Y648500D01*
X1194953Y551487D02*
X1294514Y651048D01*
X1232845Y575237D02*
X1307108Y649500D01*
X1225311Y574774D02*
X1300037Y649500D01*
X1244444Y565623D02*
X1327321Y648500D01*
X1244363Y565827D02*
X1330771Y479418D01*
X1245495Y559603D02*
X1334392Y648500D01*
X1241800Y570050D02*
X1321250Y649500D01*
X1237972Y573293D02*
X1314179Y649500D01*
X1195992Y566668D02*
X1287237Y657914D01*
X1197463Y561068D02*
X1290773Y654378D01*
X1268045Y655282D02*
X1442000Y481327D01*
X1193086Y570833D02*
X1281753Y659500D01*
X1189007Y573826D02*
X1274682Y659500D01*
X1285040D02*
X1442000Y502540D01*
X1270898Y659500D02*
X1442000Y488398D01*
X1277969Y659500D02*
X1442000Y495469D01*
X1270782Y659500D02*
X1285651D01*
X1292564Y652587D01*
X1322000Y383100D02*
Y406100D01*
X1332408D02*
X1334808Y408500D01*
X1325337Y406100D02*
X1328760Y409523D01*
X1333500Y408500D02*
X1346500D01*
X1330610Y408869D02*
X1333379Y406100D01*
X1333500Y333100D02*
X1346500D01*
X1346550Y406100D02*
X1349295Y408845D01*
X1351192Y409501D02*
X1354592Y406100D01*
X1338050Y408500D02*
X1340450Y406100D01*
X1345121Y408500D02*
X1347521Y406100D01*
X1339479D02*
X1341879Y408500D01*
X1328262Y430238D02*
X1332020Y433996D01*
X1333500Y431500D02*
X1346500D01*
X1306649Y461115D02*
X1322006Y445758D01*
X1333500Y433900D02*
X1346500D01*
X1340935D02*
X1343335Y431500D01*
X1343666D02*
X1346066Y433900D01*
X1347918Y433988D02*
X1351597Y430309D01*
X1333864Y433900D02*
X1336263Y431500D01*
X1336595D02*
X1338995Y433900D01*
X1322000Y383100D02*
X1358000D01*
X1344261Y333100D02*
X1442000Y430839D01*
X1337190Y333100D02*
X1442000Y437910D01*
X1322000Y406100D02*
X1358000D01*
X1353038Y435939D02*
X1442000Y346977D01*
X1357650Y417184D02*
X1442000Y332835D01*
X1356809Y425097D02*
X1442000Y339906D01*
X1358000Y383100D02*
Y406100D01*
X1356437Y439611D02*
X1442000Y354048D01*
X1357997Y445122D02*
X1442000Y361119D01*
X1353621Y406100D02*
X1442000Y494479D01*
X1348257Y461932D02*
X1442000Y368190D01*
X1352873Y464388D02*
X1442000Y375261D01*
X1354535Y428227D02*
X1442000Y515692D01*
X1350144Y430907D02*
X1442000Y522763D01*
X1358000Y396337D02*
X1442000Y480337D01*
X1355354Y468978D02*
X1442000Y382332D01*
X1358000Y389266D02*
X1442000Y473265D01*
X1357308Y423929D02*
X1442000Y508621D01*
X1358000Y403408D02*
X1442000Y487408D01*
X1357655Y417205D02*
X1442000Y501550D01*
X1312469Y462365D02*
X1323594Y451241D01*
X1316072Y465834D02*
X1327011Y454894D01*
X1313657Y463343D02*
X1315457Y465143D01*
X1333500Y461760D02*
X1346500D01*
X1334288D02*
X1339148Y456900D01*
X1341359Y461760D02*
X1346219Y456900D01*
X1340782D02*
X1345642Y461760D01*
X1333711Y456900D02*
X1338571Y461760D01*
X1333500Y456900D02*
X1346500D01*
X1317791Y471186D02*
X1332155Y456821D01*
X1302343Y474657D02*
X1304143Y476457D01*
X1322000Y648500D02*
Y649500D01*
X1300000D02*
X1322000D01*
X1333500Y479840D02*
X1346500D01*
X1316550Y475094D02*
X1442000Y600545D01*
X1347781Y456828D02*
X1442000Y551047D01*
X1317615Y469088D02*
X1442000Y593474D01*
X1335438Y479840D02*
X1442000Y586402D01*
X1342509Y479840D02*
X1442000Y579331D01*
X1312657Y478273D02*
X1442000Y607616D01*
X1352947Y454923D02*
X1442000Y543976D01*
X1357992Y445826D02*
X1442000Y529834D01*
X1356380Y451285D02*
X1442000Y536905D01*
X1349175Y479435D02*
X1442000Y572260D01*
X1355503Y471621D02*
X1442000Y558118D01*
X1353423Y476613D02*
X1442000Y565189D01*
X1316253Y649500D02*
X1442000Y523753D01*
X1302111Y649500D02*
X1442000Y509611D01*
X1309182Y649500D02*
X1442000Y516682D01*
X1322000Y648500D02*
X1358000D01*
X1324324D02*
X1442000Y530824D01*
X1331395Y648500D02*
X1442000Y537895D01*
X1352608Y648500D02*
X1442000Y559108D01*
X1338466Y648500D02*
X1442000Y544966D01*
X1345537Y648500D02*
X1442000Y552037D01*
X1355605Y648500D02*
X1358000Y650895D01*
Y650179D02*
X1442000Y566179D01*
X1358000Y657250D02*
X1442000Y573250D01*
X1219040Y660427D02*
X1225960Y667347D01*
X1219040Y668931D02*
X1226110Y661862D01*
X1219040Y676003D02*
X1225960Y669082D01*
X1219040Y667498D02*
X1225960Y674418D01*
X1244040Y664214D02*
X1248500Y668673D01*
X1244040Y672216D02*
X1248500Y667756D01*
X1244040Y671285D02*
X1248500Y675745D01*
X1114048Y682000D02*
X1222489Y573559D01*
X1085763Y682000D02*
X1243168Y524596D01*
X1128190Y682000D02*
X1235827Y574363D01*
X1220114Y682000D02*
X1225960Y676154D01*
X1121119Y682000D02*
X1227779Y575340D01*
X1219040Y674569D02*
X1226471Y682000D01*
X1225960Y663500D02*
Y676500D01*
X1248500Y663500D02*
Y676500D01*
X1244040Y663500D02*
Y676500D01*
X1243880Y678195D02*
X1247684Y682000D01*
X1156474D02*
X1442000Y396474D01*
X1118858Y341042D02*
X1442000Y664184D01*
X1149403Y682000D02*
X1442000Y389403D01*
X1135261Y682000D02*
X1337421Y479840D01*
X1163545Y682000D02*
X1442000Y403545D01*
X1142332Y682000D02*
X1344492Y479840D01*
X1237000Y473326D02*
X1442000Y678326D01*
X1236862Y466117D02*
X1442000Y671255D01*
X1170616Y682000D02*
X1442000Y410616D01*
X1243341Y679986D02*
X1248500Y674827D01*
X1244040Y665145D02*
X1248983Y660201D01*
X1237000Y494539D02*
X1442000Y699539D01*
X1237000Y480397D02*
X1442000Y685397D01*
X1237000Y487468D02*
X1442000Y692468D01*
X1248398Y682000D02*
X1249411Y680986D01*
X1242174Y682000D02*
X1249901D01*
X1233142Y518965D02*
X1442000Y727823D01*
X1251136Y529888D02*
X1442000Y720752D01*
X1258663Y523274D02*
X1442000Y706610D01*
X1256111Y527792D02*
X1442000Y713681D01*
X1261253Y704500D02*
X1285253Y680500D01*
X1254182Y704500D02*
X1278182Y680500D01*
X1219040Y682000D02*
X1227826D01*
X1228329Y698000D02*
X1234829Y704500D01*
X1221258Y698000D02*
X1227758Y704500D01*
X1075000Y698000D02*
X1254142D01*
X1225898Y704500D02*
X1232398Y698000D01*
X1242471D02*
X1248971Y704500D01*
X1249542Y698000D02*
X1256042Y704500D01*
X1247111D02*
X1253611Y698000D01*
X1232969Y704500D02*
X1239469Y698000D01*
X1240040Y704500D02*
X1246540Y698000D01*
X1235400D02*
X1241900Y704500D01*
X1194290Y764392D02*
X1233182Y725500D01*
X1201361Y764392D02*
X1240253Y725500D01*
X1199261D02*
X1238153Y764392D01*
X1185118Y725500D02*
X1224011Y764392D01*
X1192189Y725500D02*
X1231082Y764392D01*
X1187219D02*
X1226111Y725500D01*
X1218827Y704500D02*
X1225327Y698000D01*
X1220474Y725500D02*
X1259366Y764392D01*
X1215503D02*
X1254395Y725500D01*
X1206332D02*
X1245224Y764392D01*
X1213403Y725500D02*
X1252295Y764392D01*
X1208432D02*
X1247324Y725500D01*
X1259809Y695647D02*
X1265647Y689809D01*
X1256313Y697700D02*
X1263113Y704500D01*
X1006500D02*
X1299551D01*
X996000Y725500D02*
X1303900D01*
X1267282Y687455D02*
X1284326Y704500D01*
X1260570Y694886D02*
X1270184Y704500D01*
X1264106Y691350D02*
X1277255Y704500D01*
X1265000Y764392D02*
X1303893Y725500D01*
X1234616D02*
X1273508Y764392D01*
X1241687Y725500D02*
X1280579Y764392D01*
X1236716D02*
X1275608Y725500D01*
X1222574Y764392D02*
X1261466Y725500D01*
X1229645Y764392D02*
X1268537Y725500D01*
X1227545D02*
X1266437Y764392D01*
X1255829Y725500D02*
X1294721Y764392D01*
X1262900Y725500D02*
X1301792Y764392D01*
X1257929D02*
X1296821Y725500D01*
X1243787Y764392D02*
X1282679Y725500D01*
X1250858Y764392D02*
X1289751Y725500D01*
X1248758D02*
X1287650Y764392D01*
X1321037Y670500D02*
X1322000Y671463D01*
Y670500D02*
Y671500D01*
X1304349Y670500D02*
X1322000D01*
X1329108Y671500D02*
X1331657Y674049D01*
X1322037Y671500D02*
X1326679Y676142D01*
X1341350Y673900D02*
X1343750Y671500D01*
X1343250D02*
X1345650Y673900D01*
X1348282Y674039D02*
X1350822Y671500D01*
X1334279Y673900D02*
X1336679Y671500D01*
X1333500Y673900D02*
X1346500D01*
X1336179Y671500D02*
X1338579Y673900D01*
X1275395Y704500D02*
X1309395Y670500D01*
X1296608Y704500D02*
X1329608Y671500D01*
X1282466Y704500D02*
X1316466Y670500D01*
X1289537Y704500D02*
X1322537Y671500D01*
X1297436Y677413D02*
X1304349Y670500D01*
X1313966D02*
X1323388Y679922D01*
X1306895Y670500D02*
X1320223Y683828D01*
X1298551Y676298D02*
X1313152Y690899D01*
X1302086Y672763D02*
X1316687Y687364D01*
X1357392Y671500D02*
X1442000Y756108D01*
X1356587Y679877D02*
X1442000Y594464D01*
X1357999Y685535D02*
X1442000Y601535D01*
X1353281Y676112D02*
X1357892Y671500D01*
X1322000D02*
X1358000D01*
Y648500D02*
Y671500D01*
Y664322D02*
X1442000Y580322D01*
X1358000Y671393D02*
X1442000Y587393D01*
X1358000Y665037D02*
X1442000Y749037D01*
X1358000Y650895D02*
X1442000Y734895D01*
X1358000Y657966D02*
X1442000Y741966D01*
X1300356Y764392D02*
X1442000Y622748D01*
X1286213Y764392D02*
X1442000Y608606D01*
X1293284Y764392D02*
X1442000Y615677D01*
X1321569Y764392D02*
X1442000Y643961D01*
X1307427Y764392D02*
X1442000Y629819D01*
X1314498Y764392D02*
X1442000Y636890D01*
X1342782Y764392D02*
X1442000Y665174D01*
X1328640Y764392D02*
X1442000Y651032D01*
X1335711Y764392D02*
X1442000Y658103D01*
X1356924Y764392D02*
X1442000Y679316D01*
X1350321Y671500D02*
X1442000Y763179D01*
X1349853Y764392D02*
X1442000Y672245D01*
X1268324Y704500D02*
X1292669Y680155D01*
X1274469Y680500D02*
X1298469Y704500D01*
X1270562Y681049D02*
X1271111Y680500D01*
X1270782D02*
X1290000D01*
X1269651Y682754D02*
X1291398Y704500D01*
X1281540Y680500D02*
X1302545Y701506D01*
X1294614Y679432D02*
X1309616Y694435D01*
X1288611Y680500D02*
X1306081Y697970D01*
X1299551Y704500D02*
X1322759Y681292D01*
X1336849Y696900D02*
X1346500D01*
X1291184Y725500D02*
X1330077Y764392D01*
X1279142D02*
X1346635Y696899D01*
X1272071Y764392D02*
X1339564Y696900D01*
X1269971Y725500D02*
X1308863Y764392D01*
X1284113Y725500D02*
X1323006Y764392D01*
X1277042Y725500D02*
X1315934Y764392D01*
X1311336Y722413D02*
X1336849Y696900D01*
X1298255Y725500D02*
X1337148Y764392D01*
X1310255Y723358D02*
X1351290Y764392D01*
X1305240Y725414D02*
X1344219Y764392D01*
X1378137D02*
X1442000Y700529D01*
X1363995Y764392D02*
X1442000Y686387D01*
X1371066Y764392D02*
X1442000Y693458D01*
X1340000Y764392D02*
X1442000D01*
X1385208D02*
X1442000Y707600D01*
X1392279Y764392D02*
X1442000Y714671D01*
X1413492Y764392D02*
X1442000Y735885D01*
X1399350Y764392D02*
X1442000Y721743D01*
X1406421Y764392D02*
X1442000Y728814D01*
X1434706Y764392D02*
X1442000Y757098D01*
X1420564Y764392D02*
X1442000Y742956D01*
X1427634Y764392D02*
X1442000Y750027D01*
X1324465Y709284D02*
X1379574Y764392D01*
X1331537Y702213D02*
X1393716Y764392D01*
X1328001Y705748D02*
X1386645Y764392D01*
X1313859Y719890D02*
X1358361Y764392D01*
X1320930Y712819D02*
X1372503Y764392D01*
X1317394Y716355D02*
X1365432Y764392D01*
X1352696Y695088D02*
X1422000Y764392D01*
X1357971Y686220D02*
X1436142Y764392D01*
X1356222Y691543D02*
X1429071Y764392D01*
X1335072Y698677D02*
X1400787Y764392D01*
X1347402Y696865D02*
X1414929Y764392D01*
X1340366Y696900D02*
X1407858Y764392D01*
D39*
X1110000Y340000D02*
Y360000D01*
X1090000D02*
X1100000Y350000D01*
X1110000Y340000D02*
X1125000Y325000D01*
X1070000Y331353D02*
Y360000D01*
X1100000Y325000D02*
Y350000D01*
X1075000Y325000D02*
Y326353D01*
X1050000Y325000D02*
Y370000D01*
X1070000Y331353D02*
X1075000Y326353D01*
X895000Y850400D02*
X920243D01*
X922000Y808000D02*
Y848643D01*
X920243Y850400D02*
X922000Y848643D01*
X883000Y769000D02*
X922000Y808000D01*
X883000Y395000D02*
Y769000D01*
X873000Y385000D02*
X883000Y395000D01*
X873000Y284000D02*
Y385000D01*
X879000Y215000D02*
X884000Y220000D01*
X850000Y215000D02*
X879000D01*
X884000Y220000D02*
Y335000D01*
X860000Y231757D02*
Y335000D01*
X858243Y230000D02*
X860000Y231757D01*
X850000Y230000D02*
X858243D01*
X585000Y110000D02*
Y215000D01*
X595000Y120000D02*
Y230000D01*
Y120000D02*
X615000Y100000D01*
X849991Y214991D02*
X850000Y215000D01*
X585000Y110000D02*
X595000Y100000D01*
X875000Y135000D02*
Y165000D01*
X975000Y467000D02*
Y487000D01*
X996000Y93800D02*
Y446000D01*
X975000Y467000D02*
X996000Y446000D01*
X929000Y421000D02*
X930000D01*
X915000Y407000D02*
X929000Y421000D01*
X915000Y332000D02*
Y407000D01*
Y332000D02*
X974000Y273000D01*
X930000Y359000D02*
Y398000D01*
Y359000D02*
X974000Y315000D01*
X944000Y361000D02*
Y432000D01*
Y361000D02*
X984000Y321000D01*
X940000Y84000D02*
X974000Y118000D01*
Y273000D01*
Y303000D02*
Y315000D01*
X984000Y283000D02*
Y321000D01*
X1006000Y424000D02*
X1016200Y413800D01*
Y84000D02*
Y413800D01*
X990800Y84000D02*
Y88600D01*
X996000Y93800D01*
X1067000Y84000D02*
Y254000D01*
X1041600Y84000D02*
Y241600D01*
X639930Y134000D02*
X639930Y134000D01*
X1165000Y465000D02*
X1210000Y510000D01*
X1165000Y440000D02*
Y465000D01*
X1230000Y467500D02*
Y510000D01*
X1180000Y450000D02*
X1212500D01*
X1230000Y467500D01*
D40*
X820000Y305000D02*
Y315000D01*
X790000Y345000D02*
X820000Y315000D01*
X725000Y345000D02*
X790000D01*
X715000Y355000D02*
X725000Y345000D01*
X715000Y355000D02*
Y430000D01*
X845000Y560000D01*
Y635000D01*
X1075000Y690000D02*
X1254142D01*
X1020000Y635000D02*
X1075000Y690000D01*
X1254142D02*
X1260000Y684142D01*
Y670000D02*
Y684142D01*
X837000Y180000D02*
X838000Y179000D01*
X1066000Y255000D02*
X1067000Y254000D01*
X1041600Y241600D02*
X1042000Y242000D01*
X1308000Y469000D02*
X1309800Y470800D01*
X1333500Y685400D02*
X1340000D01*
X1250700Y521900D02*
X1250800Y521800D01*
X1130000Y522000D02*
X1130100Y521900D01*
X1336500Y89500D02*
X1340000Y93000D01*
X1067000Y58600D02*
X1069870Y55730D01*
X758188Y134000D02*
X759188Y135000D01*
X760000D01*
X863453Y58947D02*
X863800Y58600D01*
X1092400D02*
Y84000D01*
D41*
X1069296Y55156D02*
X1069870Y55730D01*
X758000Y321000D02*
X784000D01*
X785000Y320000D01*
X740000Y134000D02*
Y303000D01*
X639930Y134000D02*
X740000D01*
X758188D01*
X740000Y303000D02*
X758000Y321000D01*
X639930Y89687D02*
Y134000D01*
X612000Y134000D02*
X639930D01*
X548070Y87930D02*
X638172D01*
X540000Y96000D02*
X548070Y87930D01*
X638172D02*
X639930Y89687D01*
X1120000Y890000D02*
X1155000D01*
X1090000D02*
X1120000D01*
X1119000Y996624D02*
X1120000Y995623D01*
Y890000D02*
Y995623D01*
X1077700Y877700D02*
X1090000Y890000D01*
X1077700Y850000D02*
Y877700D01*
X1155000Y890000D02*
X1170400Y874600D01*
Y850000D02*
Y874600D01*
D42*
X897000Y211000D02*
Y473222D01*
X959889Y536111D01*
X996000Y572222D02*
Y715000D01*
X959889Y536111D02*
X996000Y572222D01*
X959889Y536111D02*
X994000Y502000D01*
X959889Y536111D02*
X959889D01*
X994000Y470000D02*
Y502000D01*
X996000Y715000D02*
X1303900D01*
X935000D02*
X996000D01*
X1260000Y670000D02*
X1290000D01*
X1300000Y660000D02*
X1340000D01*
X1290000Y670000D02*
X1300000Y660000D01*
X1303900Y715000D02*
X1333500Y685400D01*
X717000Y757000D02*
Y1015000D01*
X671600Y711600D02*
X717000Y757000D01*
X640000Y711600D02*
X671600D01*
X640000Y559200D02*
X765000D01*
X445000Y560000D02*
X445383Y559617D01*
X639583D01*
X640000Y559200D01*
Y584600D02*
X765000D01*
X445400Y585000D02*
X639600D01*
X445000Y585400D02*
X445400Y585000D01*
X639600D02*
X640000Y584600D01*
D43*
X1145000Y850000D02*
D03*
X1157700D02*
D03*
X1170400D02*
D03*
X1077700D02*
D03*
X1065000D02*
D03*
X1052300D02*
D03*
D44*
X1092400Y84000D02*
D03*
X888000Y1071500D02*
D03*
D45*
X1067000Y84000D02*
D03*
X1041600D02*
D03*
X1016200D02*
D03*
X990800D02*
D03*
X965400D02*
D03*
X940000D02*
D03*
X914600D02*
D03*
X889200D02*
D03*
X863800D02*
D03*
X1092400Y58600D02*
D03*
X1067000D02*
D03*
X1041600D02*
D03*
X1016200D02*
D03*
X990800D02*
D03*
X965400D02*
D03*
X940000D02*
D03*
X914600D02*
D03*
X889200D02*
D03*
X863800D02*
D03*
X673000Y353000D02*
D03*
Y401000D02*
D03*
X1182000Y560000D02*
D03*
X1230000D02*
D03*
X888000Y996500D02*
D03*
D46*
X1340000Y660000D02*
D03*
Y93000D02*
D03*
Y394600D02*
D03*
X895000Y850400D02*
D03*
X445000Y585400D02*
D03*
D47*
X1340000Y685400D02*
D03*
Y321600D02*
D03*
Y296200D02*
D03*
Y270800D02*
D03*
Y245400D02*
D03*
Y220000D02*
D03*
Y194600D02*
D03*
Y118400D02*
D03*
Y143800D02*
D03*
Y169200D02*
D03*
Y420000D02*
D03*
Y470800D02*
D03*
Y445400D02*
D03*
X895000Y825000D02*
D03*
X975000Y850400D02*
D03*
Y825000D02*
D03*
X445000Y560000D02*
D03*
D48*
X1260000Y670000D02*
D03*
X1235000D02*
D03*
D49*
X1210000D02*
D03*
D50*
X967600Y1180000D02*
D03*
X928000D02*
D03*
X888400D02*
D03*
D51*
X1158000Y1100000D02*
D03*
X1132600D02*
D03*
X1107200D02*
D03*
D52*
X1336000Y1189000D02*
D03*
Y869000D02*
D03*
D53*
X465000Y1144600D02*
D03*
Y1105000D02*
D03*
Y1065400D02*
D03*
Y949600D02*
D03*
Y910000D02*
D03*
Y870400D02*
D03*
Y670800D02*
D03*
Y710400D02*
D03*
Y750000D02*
D03*
D54*
X717000Y1015000D02*
D03*
Y1147000D02*
D03*
X585000Y1015000D02*
D03*
Y1147000D02*
D03*
D55*
X935000Y689600D02*
D03*
Y715000D02*
D03*
Y740400D02*
D03*
D56*
X765000Y737000D02*
D03*
Y711600D02*
D03*
Y686200D02*
D03*
Y660800D02*
D03*
Y610000D02*
D03*
Y584600D02*
D03*
X640000Y737000D02*
D03*
Y711600D02*
D03*
Y686200D02*
D03*
Y660800D02*
D03*
Y610000D02*
D03*
Y584600D02*
D03*
D57*
X765000Y559200D02*
D03*
X640000D02*
D03*
D58*
X585000Y215000D02*
D03*
X1110000Y360000D02*
D03*
X1125000Y325000D02*
D03*
X1090000Y360000D02*
D03*
X1070000D02*
D03*
X1075000Y325000D02*
D03*
X1050000Y370000D02*
D03*
X1100000Y325000D02*
D03*
X873000Y284000D02*
D03*
X884000Y335000D02*
D03*
X860000D02*
D03*
X785000Y320000D02*
D03*
X820000Y305000D02*
D03*
X845000Y635000D02*
D03*
X1020000D02*
D03*
X595000Y230000D02*
D03*
X850000D02*
D03*
X849991Y214991D02*
D03*
X837000Y253000D02*
D03*
X838000Y179000D02*
D03*
X740000Y270000D02*
D03*
X615000Y100000D02*
D03*
X595000D02*
D03*
X875000Y135000D02*
D03*
Y165000D02*
D03*
X799000Y412000D02*
D03*
X870000Y539000D02*
D03*
X975000Y487000D02*
D03*
X994000Y470000D02*
D03*
X930000Y421000D02*
D03*
Y398000D02*
D03*
X944000Y432000D02*
D03*
X955000Y119000D02*
D03*
X974000Y303000D02*
D03*
X984000Y283000D02*
D03*
X1006000Y424000D02*
D03*
X1041000Y244000D02*
D03*
X1067000Y256000D02*
D03*
X1036750Y452500D02*
D03*
X897000Y211000D02*
D03*
X540000Y96000D02*
D03*
X732000Y392375D02*
D03*
X1180000Y450000D02*
D03*
X1165000Y440000D02*
D03*
X1050000Y325000D02*
D03*
X1230000Y510000D02*
D03*
X1210000D02*
D03*
X1250800Y521800D02*
D03*
X1130000Y522000D02*
D03*
X760000Y135000D02*
D03*
X612000Y134000D02*
D03*
D59*
X410000Y1230000D02*
D03*
X1400000D02*
D03*
X410000Y50000D02*
D03*
X1400000D02*
D03*
D60*
X928000Y1132000D02*
X940000Y1120000D01*
X928000Y1132000D02*
Y1180000D01*
D61*
X887500Y997000D02*
X888000Y996500D01*
X810000Y997000D02*
X887500D01*
X796000Y1011000D02*
X810000Y997000D01*
X721000Y1011000D02*
X796000D01*
X888000Y1071500D02*
Y1179600D01*
X888400Y1180000D02*
Y1181000D01*
X883400Y1186000D02*
X888400Y1181000D01*
X592000Y1152000D02*
X626000Y1186000D01*
X883400D01*
X1119000Y996624D02*
X1274377D01*
X888123D02*
X1119000D01*
X1336000Y869000D02*
X1337000Y870000D01*
Y934000D01*
X1274377Y996624D02*
X1337000Y934000D01*
X1196000Y1189000D02*
X1336000D01*
X1158000Y1100000D02*
Y1151000D01*
X1196000Y1189000D01*
X1132600Y1100000D02*
Y1152400D01*
X1115000Y1170000D02*
X1132600Y1152400D01*
X972600Y1170000D02*
X1115000D01*
X967600Y1175000D02*
Y1180000D01*
Y1175000D02*
X972600Y1170000D01*
X888000Y996500D02*
X888123Y996624D01*
X717000Y1015000D02*
X721000Y1011000D01*
X645000Y1005000D02*
X717000Y1077000D01*
X465000Y670800D02*
X465813Y671613D01*
X506613D01*
X645000Y810000D02*
Y1005000D01*
X506613Y671613D02*
X645000Y810000D01*
X655000Y1145000D02*
X717000D01*
X605000Y1095000D02*
X655000Y1145000D01*
X560000Y1095000D02*
X605000D01*
X717000Y1077000D02*
Y1145000D01*
X585000Y882116D02*
Y1014932D01*
X573284Y870400D02*
X585000Y882116D01*
X465000Y870400D02*
X573284D01*
X585159Y1147159D02*
X590000Y1152000D01*
X592000D01*
X465000Y1144600D02*
X510400D01*
X560000Y1095000D01*
X465000Y750000D02*
Y870400D01*
Y949600D02*
Y1065400D01*
M02*
