G04*
G04 #@! TF.GenerationSoftware,Altium Limited,Altium Designer,24.4.1 (13)*
G04*
G04 Layer_Color=65535*
%FSLAX44Y44*%
%MOMM*%
G71*
G04*
G04 #@! TF.SameCoordinates,7038094A-F867-4381-9EB3-738A195B408D*
G04*
G04*
G04 #@! TF.FilePolarity,Positive*
G04*
G01*
G75*
%ADD10C,0.6000*%
%ADD11C,0.2500*%
%ADD12C,0.2540*%
%ADD13C,0.2000*%
G36*
X417234Y333848D02*
X417393D01*
X417583Y333837D01*
X417784Y333827D01*
X418006Y333806D01*
X418238Y333784D01*
X418481Y333763D01*
X418978Y333689D01*
X419464Y333584D01*
X419686Y333520D01*
X419908Y333446D01*
X419918D01*
X419961Y333425D01*
X420014Y333404D01*
X420087Y333372D01*
X420182Y333330D01*
X420288Y333277D01*
X420404Y333214D01*
X420531Y333150D01*
X420795Y332981D01*
X421081Y332770D01*
X421345Y332527D01*
X421472Y332390D01*
X421588Y332242D01*
X421598Y332231D01*
X421609Y332210D01*
X421641Y332157D01*
X421672Y332104D01*
X421715Y332020D01*
X421768Y331935D01*
X421820Y331829D01*
X421873Y331703D01*
X421926Y331576D01*
X421979Y331428D01*
X422021Y331280D01*
X422074Y331111D01*
X422137Y330752D01*
X422148Y330562D01*
X422158Y330361D01*
Y330255D01*
X422148Y330171D01*
X422137Y330075D01*
X422127Y329959D01*
X422106Y329832D01*
X422074Y329695D01*
X422000Y329399D01*
X421947Y329251D01*
X421894Y329093D01*
X421820Y328934D01*
X421736Y328776D01*
X421641Y328628D01*
X421525Y328491D01*
X421514Y328480D01*
X421493Y328459D01*
X421461Y328427D01*
X421408Y328374D01*
X421345Y328321D01*
X421260Y328258D01*
X421165Y328184D01*
X421059Y328110D01*
X420943Y328036D01*
X420806Y327962D01*
X420658Y327899D01*
X420499Y327825D01*
X420331Y327761D01*
X420151Y327709D01*
X419950Y327666D01*
X419739Y327635D01*
X419644Y328786D01*
X419654D01*
X419675Y328797D01*
X419718D01*
X419781Y328818D01*
X419844Y328829D01*
X419918Y328850D01*
X420098Y328903D01*
X420288Y328977D01*
X420478Y329072D01*
X420658Y329198D01*
X420742Y329262D01*
X420816Y329336D01*
X420827Y329357D01*
X420869Y329410D01*
X420933Y329505D01*
X420996Y329621D01*
X421059Y329780D01*
X421123Y329959D01*
X421165Y330160D01*
X421176Y330392D01*
Y330488D01*
X421165Y330593D01*
X421144Y330720D01*
X421112Y330868D01*
X421070Y331026D01*
X421017Y331196D01*
X420933Y331354D01*
X420922Y331375D01*
X420891Y331428D01*
X420827Y331502D01*
X420753Y331597D01*
X420658Y331703D01*
X420542Y331819D01*
X420404Y331935D01*
X420257Y332041D01*
X420235Y332051D01*
X420182Y332083D01*
X420087Y332136D01*
X419950Y332199D01*
X419792Y332263D01*
X419601Y332337D01*
X419369Y332411D01*
X419115Y332485D01*
X419105D01*
X419084Y332495D01*
X419041Y332506D01*
X418988Y332516D01*
X418925Y332527D01*
X418851Y332537D01*
X418756Y332559D01*
X418661Y332580D01*
X418439Y332612D01*
X418196Y332633D01*
X417932Y332654D01*
X417657Y332664D01*
X417636D01*
X417594D01*
X417520D01*
X417425D01*
X417435Y332643D01*
X417467Y332633D01*
X417509Y332601D01*
X417615Y332516D01*
X417742Y332411D01*
X417890Y332263D01*
X418048Y332094D01*
X418196Y331903D01*
X418344Y331682D01*
Y331671D01*
X418354Y331650D01*
X418376Y331618D01*
X418397Y331576D01*
X418428Y331512D01*
X418450Y331449D01*
X418513Y331280D01*
X418587Y331079D01*
X418640Y330847D01*
X418682Y330593D01*
X418693Y330329D01*
Y330276D01*
X418682Y330213D01*
Y330128D01*
X418661Y330023D01*
X418650Y329907D01*
X418619Y329769D01*
X418587Y329621D01*
X418534Y329463D01*
X418481Y329304D01*
X418407Y329135D01*
X418323Y328966D01*
X418228Y328786D01*
X418111Y328617D01*
X417974Y328448D01*
X417826Y328290D01*
X417816Y328279D01*
X417784Y328258D01*
X417731Y328216D01*
X417668Y328163D01*
X417583Y328100D01*
X417477Y328026D01*
X417351Y327952D01*
X417203Y327878D01*
X417055Y327793D01*
X416875Y327719D01*
X416685Y327645D01*
X416484Y327582D01*
X416262Y327529D01*
X416019Y327487D01*
X415776Y327466D01*
X415512Y327455D01*
X415491D01*
X415449D01*
X415364Y327466D01*
X415269D01*
X415142Y327487D01*
X414994Y327497D01*
X414836Y327529D01*
X414656Y327561D01*
X414477Y327613D01*
X414276Y327666D01*
X414075Y327740D01*
X413885Y327825D01*
X413684Y327920D01*
X413483Y328036D01*
X413304Y328174D01*
X413124Y328321D01*
X413114Y328332D01*
X413082Y328364D01*
X413040Y328417D01*
X412987Y328480D01*
X412913Y328564D01*
X412839Y328670D01*
X412754Y328786D01*
X412670Y328924D01*
X412585Y329072D01*
X412501Y329241D01*
X412427Y329420D01*
X412353Y329611D01*
X412300Y329822D01*
X412258Y330044D01*
X412226Y330266D01*
X412215Y330509D01*
Y330604D01*
X412226Y330667D01*
Y330752D01*
X412247Y330847D01*
X412258Y330963D01*
X412279Y331079D01*
X412342Y331354D01*
X412437Y331639D01*
X412490Y331787D01*
X412564Y331946D01*
X412638Y332094D01*
X412733Y332242D01*
X412744Y332252D01*
X412754Y332273D01*
X412786Y332316D01*
X412828Y332368D01*
X412881Y332442D01*
X412944Y332516D01*
X413018Y332601D01*
X413103Y332685D01*
X413198Y332780D01*
X413314Y332886D01*
X413431Y332981D01*
X413557Y333087D01*
X413705Y333182D01*
X413853Y333277D01*
X414022Y333362D01*
X414191Y333446D01*
X414202D01*
X414234Y333467D01*
X414286Y333489D01*
X414371Y333510D01*
X414466Y333541D01*
X414582Y333573D01*
X414720Y333615D01*
X414889Y333657D01*
X415068Y333689D01*
X415269Y333731D01*
X415502Y333763D01*
X415745Y333795D01*
X416009Y333816D01*
X416294Y333837D01*
X416600Y333858D01*
X416928D01*
X416949D01*
X417013D01*
X417108D01*
X417234Y333848D01*
D02*
G37*
G36*
Y326272D02*
X417393D01*
X417583Y326261D01*
X417784Y326250D01*
X418006Y326229D01*
X418238Y326208D01*
X418481Y326187D01*
X418978Y326113D01*
X419464Y326007D01*
X419686Y325944D01*
X419908Y325870D01*
X419918D01*
X419961Y325849D01*
X420014Y325828D01*
X420087Y325796D01*
X420182Y325754D01*
X420288Y325701D01*
X420404Y325638D01*
X420531Y325574D01*
X420795Y325405D01*
X421081Y325194D01*
X421345Y324951D01*
X421472Y324813D01*
X421588Y324665D01*
X421598Y324655D01*
X421609Y324634D01*
X421641Y324581D01*
X421672Y324528D01*
X421715Y324444D01*
X421768Y324359D01*
X421820Y324253D01*
X421873Y324127D01*
X421926Y324000D01*
X421979Y323852D01*
X422021Y323704D01*
X422074Y323535D01*
X422137Y323176D01*
X422148Y322985D01*
X422158Y322785D01*
Y322679D01*
X422148Y322594D01*
X422137Y322499D01*
X422127Y322383D01*
X422106Y322256D01*
X422074Y322119D01*
X422000Y321823D01*
X421947Y321675D01*
X421894Y321517D01*
X421820Y321358D01*
X421736Y321200D01*
X421641Y321052D01*
X421525Y320914D01*
X421514Y320904D01*
X421493Y320883D01*
X421461Y320851D01*
X421408Y320798D01*
X421345Y320745D01*
X421260Y320682D01*
X421165Y320608D01*
X421059Y320534D01*
X420943Y320460D01*
X420806Y320386D01*
X420658Y320323D01*
X420499Y320249D01*
X420331Y320185D01*
X420151Y320132D01*
X419950Y320090D01*
X419739Y320059D01*
X419644Y321210D01*
X419654D01*
X419675Y321221D01*
X419718D01*
X419781Y321242D01*
X419844Y321253D01*
X419918Y321274D01*
X420098Y321326D01*
X420288Y321400D01*
X420478Y321496D01*
X420658Y321622D01*
X420742Y321686D01*
X420816Y321760D01*
X420827Y321781D01*
X420869Y321834D01*
X420933Y321929D01*
X420996Y322045D01*
X421059Y322203D01*
X421123Y322383D01*
X421165Y322584D01*
X421176Y322816D01*
Y322911D01*
X421165Y323017D01*
X421144Y323144D01*
X421112Y323292D01*
X421070Y323450D01*
X421017Y323619D01*
X420933Y323778D01*
X420922Y323799D01*
X420891Y323852D01*
X420827Y323926D01*
X420753Y324021D01*
X420658Y324127D01*
X420542Y324243D01*
X420404Y324359D01*
X420257Y324465D01*
X420235Y324475D01*
X420182Y324507D01*
X420087Y324560D01*
X419950Y324623D01*
X419792Y324687D01*
X419601Y324761D01*
X419369Y324835D01*
X419115Y324908D01*
X419105D01*
X419084Y324919D01*
X419041Y324930D01*
X418988Y324940D01*
X418925Y324951D01*
X418851Y324961D01*
X418756Y324982D01*
X418661Y325004D01*
X418439Y325035D01*
X418196Y325056D01*
X417932Y325078D01*
X417657Y325088D01*
X417636D01*
X417594D01*
X417520D01*
X417425D01*
X417435Y325067D01*
X417467Y325056D01*
X417509Y325025D01*
X417615Y324940D01*
X417742Y324835D01*
X417890Y324687D01*
X418048Y324518D01*
X418196Y324327D01*
X418344Y324105D01*
Y324095D01*
X418354Y324074D01*
X418376Y324042D01*
X418397Y324000D01*
X418428Y323936D01*
X418450Y323873D01*
X418513Y323704D01*
X418587Y323503D01*
X418640Y323271D01*
X418682Y323017D01*
X418693Y322753D01*
Y322700D01*
X418682Y322637D01*
Y322552D01*
X418661Y322447D01*
X418650Y322330D01*
X418619Y322193D01*
X418587Y322045D01*
X418534Y321887D01*
X418481Y321728D01*
X418407Y321559D01*
X418323Y321390D01*
X418228Y321210D01*
X418111Y321041D01*
X417974Y320872D01*
X417826Y320714D01*
X417816Y320703D01*
X417784Y320682D01*
X417731Y320640D01*
X417668Y320587D01*
X417583Y320523D01*
X417477Y320449D01*
X417351Y320376D01*
X417203Y320302D01*
X417055Y320217D01*
X416875Y320143D01*
X416685Y320069D01*
X416484Y320006D01*
X416262Y319953D01*
X416019Y319911D01*
X415776Y319890D01*
X415512Y319879D01*
X415491D01*
X415449D01*
X415364Y319890D01*
X415269D01*
X415142Y319911D01*
X414994Y319921D01*
X414836Y319953D01*
X414656Y319985D01*
X414477Y320037D01*
X414276Y320090D01*
X414075Y320164D01*
X413885Y320249D01*
X413684Y320344D01*
X413483Y320460D01*
X413304Y320597D01*
X413124Y320745D01*
X413114Y320756D01*
X413082Y320788D01*
X413040Y320840D01*
X412987Y320904D01*
X412913Y320988D01*
X412839Y321094D01*
X412754Y321210D01*
X412670Y321348D01*
X412585Y321496D01*
X412501Y321665D01*
X412427Y321844D01*
X412353Y322034D01*
X412300Y322246D01*
X412258Y322468D01*
X412226Y322690D01*
X412215Y322933D01*
Y323028D01*
X412226Y323091D01*
Y323176D01*
X412247Y323271D01*
X412258Y323387D01*
X412279Y323503D01*
X412342Y323778D01*
X412437Y324063D01*
X412490Y324211D01*
X412564Y324370D01*
X412638Y324518D01*
X412733Y324665D01*
X412744Y324676D01*
X412754Y324697D01*
X412786Y324739D01*
X412828Y324792D01*
X412881Y324866D01*
X412944Y324940D01*
X413018Y325025D01*
X413103Y325109D01*
X413198Y325204D01*
X413314Y325310D01*
X413431Y325405D01*
X413557Y325511D01*
X413705Y325606D01*
X413853Y325701D01*
X414022Y325786D01*
X414191Y325870D01*
X414202D01*
X414234Y325891D01*
X414286Y325912D01*
X414371Y325933D01*
X414466Y325965D01*
X414582Y325997D01*
X414720Y326039D01*
X414889Y326081D01*
X415068Y326113D01*
X415269Y326155D01*
X415502Y326187D01*
X415745Y326219D01*
X416009Y326240D01*
X416294Y326261D01*
X416600Y326282D01*
X416928D01*
X416949D01*
X417013D01*
X417108D01*
X417234Y326272D01*
D02*
G37*
G36*
X417626Y318643D02*
X417784Y318632D01*
X417974Y318622D01*
X418175Y318611D01*
X418397Y318590D01*
X418619Y318569D01*
X419084Y318505D01*
X419538Y318410D01*
X419760Y318357D01*
X419961Y318294D01*
X419971D01*
X420003Y318273D01*
X420066Y318262D01*
X420130Y318231D01*
X420225Y318188D01*
X420320Y318146D01*
X420436Y318093D01*
X420563Y318030D01*
X420827Y317882D01*
X421091Y317702D01*
X421355Y317491D01*
X421472Y317364D01*
X421588Y317237D01*
X421598Y317227D01*
X421609Y317206D01*
X421641Y317163D01*
X421672Y317111D01*
X421715Y317047D01*
X421768Y316963D01*
X421820Y316868D01*
X421873Y316751D01*
X421926Y316635D01*
X421979Y316498D01*
X422021Y316360D01*
X422074Y316202D01*
X422106Y316033D01*
X422137Y315853D01*
X422148Y315674D01*
X422158Y315473D01*
Y315409D01*
X422148Y315335D01*
X422137Y315240D01*
X422127Y315124D01*
X422106Y314987D01*
X422074Y314839D01*
X422032Y314670D01*
X421979Y314501D01*
X421915Y314321D01*
X421831Y314131D01*
X421736Y313951D01*
X421620Y313772D01*
X421482Y313592D01*
X421334Y313423D01*
X421155Y313264D01*
X421144Y313254D01*
X421102Y313222D01*
X421028Y313180D01*
X420922Y313116D01*
X420785Y313043D01*
X420626Y312958D01*
X420425Y312873D01*
X420204Y312789D01*
X419939Y312694D01*
X419654Y312609D01*
X419327Y312525D01*
X418967Y312451D01*
X418576Y312387D01*
X418154Y312345D01*
X417689Y312313D01*
X417192Y312303D01*
X417171D01*
X417118D01*
X417023D01*
X416907Y312313D01*
X416759D01*
X416590Y312324D01*
X416400Y312334D01*
X416199Y312345D01*
X415977Y312366D01*
X415755Y312387D01*
X415290Y312451D01*
X414836Y312535D01*
X414614Y312588D01*
X414413Y312652D01*
X414403D01*
X414371Y312673D01*
X414308Y312694D01*
X414234Y312715D01*
X414149Y312757D01*
X414043Y312799D01*
X413938Y312852D01*
X413811Y312916D01*
X413547Y313064D01*
X413283Y313254D01*
X413018Y313465D01*
X412902Y313581D01*
X412786Y313708D01*
X412775Y313719D01*
X412765Y313740D01*
X412733Y313782D01*
X412701Y313835D01*
X412649Y313898D01*
X412606Y313983D01*
X412554Y314078D01*
X412501Y314194D01*
X412448Y314310D01*
X412395Y314448D01*
X412342Y314596D01*
X412300Y314744D01*
X412268Y314913D01*
X412237Y315092D01*
X412226Y315283D01*
X412215Y315473D01*
Y315599D01*
X412226Y315674D01*
X412237Y315748D01*
X412258Y315938D01*
X412289Y316149D01*
X412353Y316381D01*
X412427Y316614D01*
X412532Y316846D01*
Y316857D01*
X412543Y316878D01*
X412564Y316910D01*
X412596Y316952D01*
X412659Y317058D01*
X412765Y317195D01*
X412892Y317354D01*
X413050Y317512D01*
X413240Y317681D01*
X413452Y317829D01*
X413462D01*
X413483Y317850D01*
X413515Y317861D01*
X413557Y317892D01*
X413610Y317924D01*
X413684Y317966D01*
X413769Y317998D01*
X413853Y318051D01*
X414065Y318146D01*
X414308Y318241D01*
X414593Y318347D01*
X414899Y318431D01*
X414910D01*
X414942Y318442D01*
X414984Y318452D01*
X415058Y318463D01*
X415142Y318484D01*
X415248Y318505D01*
X415364Y318526D01*
X415502Y318548D01*
X415660Y318558D01*
X415829Y318579D01*
X416019Y318600D01*
X416220Y318622D01*
X416442Y318632D01*
X416674Y318643D01*
X416928Y318653D01*
X417192D01*
X417213D01*
X417266D01*
X417361D01*
X417477D01*
X417626Y318643D01*
D02*
G37*
G36*
X422000Y309186D02*
X420637D01*
Y310549D01*
X422000D01*
Y309186D01*
D02*
G37*
G36*
Y304251D02*
X414382D01*
X414403Y304230D01*
X414455Y304177D01*
X414529Y304082D01*
X414635Y303945D01*
X414762Y303786D01*
X414899Y303585D01*
X415047Y303364D01*
X415206Y303110D01*
Y303099D01*
X415227Y303078D01*
X415248Y303047D01*
X415269Y302994D01*
X415311Y302930D01*
X415343Y302857D01*
X415438Y302687D01*
X415533Y302497D01*
X415639Y302286D01*
X415734Y302064D01*
X415819Y301853D01*
X414667D01*
X414656Y301863D01*
X414646Y301895D01*
X414614Y301948D01*
X414582Y302022D01*
X414540Y302106D01*
X414477Y302212D01*
X414413Y302328D01*
X414350Y302444D01*
X414181Y302719D01*
X413980Y303015D01*
X413769Y303321D01*
X413526Y303607D01*
X413515Y303617D01*
X413494Y303638D01*
X413462Y303681D01*
X413410Y303734D01*
X413346Y303786D01*
X413283Y303860D01*
X413103Y304019D01*
X412913Y304198D01*
X412691Y304378D01*
X412458Y304536D01*
X412215Y304674D01*
Y305445D01*
X422000D01*
Y304251D01*
D02*
G37*
G36*
X419327Y299760D02*
X419422D01*
X419527Y299739D01*
X419654Y299729D01*
X419792Y299697D01*
X419939Y299665D01*
X420109Y299613D01*
X420278Y299560D01*
X420447Y299486D01*
X420626Y299401D01*
X420806Y299296D01*
X420975Y299179D01*
X421155Y299042D01*
X421313Y298883D01*
X421324Y298873D01*
X421345Y298841D01*
X421387Y298788D01*
X421440Y298725D01*
X421514Y298630D01*
X421577Y298524D01*
X421662Y298397D01*
X421736Y298260D01*
X421810Y298102D01*
X421894Y297922D01*
X421958Y297732D01*
X422021Y297531D01*
X422085Y297309D01*
X422127Y297077D01*
X422148Y296823D01*
X422158Y296559D01*
Y296495D01*
X422148Y296422D01*
Y296316D01*
X422137Y296200D01*
X422116Y296052D01*
X422085Y295893D01*
X422053Y295724D01*
X422010Y295544D01*
X421947Y295354D01*
X421884Y295164D01*
X421799Y294963D01*
X421704Y294773D01*
X421588Y294583D01*
X421461Y294393D01*
X421313Y294224D01*
X421303Y294213D01*
X421271Y294181D01*
X421229Y294139D01*
X421155Y294086D01*
X421070Y294023D01*
X420975Y293949D01*
X420859Y293864D01*
X420721Y293790D01*
X420574Y293706D01*
X420415Y293621D01*
X420235Y293547D01*
X420056Y293484D01*
X419855Y293431D01*
X419633Y293389D01*
X419411Y293357D01*
X419179Y293347D01*
X419168D01*
X419136D01*
X419084D01*
X419020Y293357D01*
X418936D01*
X418841Y293368D01*
X418735Y293389D01*
X418619Y293410D01*
X418376Y293463D01*
X418111Y293547D01*
X417847Y293664D01*
X417721Y293738D01*
X417594Y293822D01*
X417583Y293833D01*
X417562Y293843D01*
X417530Y293875D01*
X417488Y293917D01*
X417435Y293960D01*
X417382Y294023D01*
X417309Y294097D01*
X417245Y294181D01*
X417097Y294372D01*
X416949Y294604D01*
X416822Y294879D01*
X416717Y295196D01*
Y295185D01*
X416706Y295164D01*
X416685Y295122D01*
X416664Y295080D01*
X416643Y295016D01*
X416600Y294942D01*
X416516Y294784D01*
X416410Y294604D01*
X416273Y294424D01*
X416125Y294245D01*
X415945Y294097D01*
X415935D01*
X415924Y294086D01*
X415893Y294065D01*
X415850Y294044D01*
X415745Y293981D01*
X415607Y293917D01*
X415428Y293854D01*
X415216Y293790D01*
X414984Y293748D01*
X414730Y293738D01*
X414720D01*
X414688D01*
X414625Y293748D01*
X414551D01*
X414466Y293759D01*
X414360Y293780D01*
X414244Y293801D01*
X414107Y293833D01*
X413969Y293875D01*
X413832Y293928D01*
X413684Y293981D01*
X413526Y294055D01*
X413378Y294150D01*
X413230Y294245D01*
X413082Y294361D01*
X412944Y294498D01*
X412934Y294509D01*
X412913Y294530D01*
X412881Y294572D01*
X412828Y294636D01*
X412775Y294710D01*
X412712Y294805D01*
X412649Y294911D01*
X412575Y295037D01*
X412511Y295175D01*
X412448Y295333D01*
X412384Y295492D01*
X412332Y295671D01*
X412279Y295872D01*
X412247Y296073D01*
X412226Y296295D01*
X412215Y296527D01*
Y296654D01*
X412226Y296738D01*
X412237Y296844D01*
X412258Y296971D01*
X412279Y297108D01*
X412311Y297267D01*
X412353Y297425D01*
X412395Y297594D01*
X412458Y297764D01*
X412532Y297932D01*
X412617Y298112D01*
X412723Y298271D01*
X412828Y298440D01*
X412966Y298588D01*
X412976Y298598D01*
X412997Y298619D01*
X413040Y298662D01*
X413092Y298714D01*
X413166Y298767D01*
X413251Y298831D01*
X413357Y298905D01*
X413462Y298979D01*
X413589Y299053D01*
X413727Y299126D01*
X413874Y299190D01*
X414033Y299243D01*
X414202Y299296D01*
X414382Y299338D01*
X414572Y299359D01*
X414762Y299370D01*
X414772D01*
X414794D01*
X414825D01*
X414878D01*
X414931Y299359D01*
X415005Y299348D01*
X415163Y299327D01*
X415343Y299285D01*
X415544Y299222D01*
X415745Y299126D01*
X415945Y299010D01*
X415956D01*
X415966Y298989D01*
X416030Y298947D01*
X416115Y298862D01*
X416231Y298746D01*
X416347Y298588D01*
X416484Y298408D01*
X416600Y298186D01*
X416717Y297932D01*
Y297943D01*
X416727Y297975D01*
X416748Y298017D01*
X416770Y298081D01*
X416801Y298154D01*
X416843Y298239D01*
X416949Y298440D01*
X417076Y298662D01*
X417245Y298883D01*
X417435Y299105D01*
X417668Y299296D01*
X417678Y299306D01*
X417699Y299317D01*
X417731Y299338D01*
X417784Y299370D01*
X417847Y299401D01*
X417921Y299443D01*
X418006Y299486D01*
X418101Y299539D01*
X418323Y299623D01*
X418587Y299697D01*
X418883Y299750D01*
X419041Y299771D01*
X419210D01*
X419221D01*
X419263D01*
X419327Y299760D01*
D02*
G37*
G36*
X422000Y285623D02*
X421979D01*
X421926D01*
X421841D01*
X421736Y285633D01*
X421609Y285644D01*
X421472Y285676D01*
X421324Y285707D01*
X421176Y285760D01*
X421165D01*
X421144Y285771D01*
X421112Y285781D01*
X421059Y285802D01*
X421007Y285834D01*
X420933Y285866D01*
X420764Y285950D01*
X420563Y286056D01*
X420341Y286193D01*
X420109Y286352D01*
X419876Y286542D01*
X419865Y286553D01*
X419844Y286563D01*
X419813Y286595D01*
X419760Y286648D01*
X419707Y286700D01*
X419633Y286774D01*
X419548Y286848D01*
X419453Y286943D01*
X419348Y287049D01*
X419242Y287165D01*
X419115Y287292D01*
X418988Y287440D01*
X418851Y287588D01*
X418714Y287757D01*
X418566Y287926D01*
X418407Y288116D01*
X418397Y288137D01*
X418344Y288190D01*
X418281Y288264D01*
X418186Y288370D01*
X418080Y288497D01*
X417953Y288645D01*
X417816Y288814D01*
X417657Y288983D01*
X417330Y289342D01*
X416981Y289691D01*
X416812Y289860D01*
X416643Y290018D01*
X416484Y290156D01*
X416336Y290272D01*
X416326Y290282D01*
X416305Y290293D01*
X416262Y290325D01*
X416210Y290356D01*
X416136Y290409D01*
X416062Y290452D01*
X415871Y290557D01*
X415649Y290663D01*
X415406Y290758D01*
X415153Y290821D01*
X415026Y290832D01*
X414899Y290842D01*
X414889D01*
X414868D01*
X414825D01*
X414783Y290832D01*
X414720D01*
X414646Y290811D01*
X414487Y290779D01*
X414297Y290716D01*
X414096Y290621D01*
X413991Y290568D01*
X413895Y290494D01*
X413800Y290420D01*
X413705Y290325D01*
X413695Y290314D01*
X413684Y290304D01*
X413663Y290272D01*
X413631Y290230D01*
X413589Y290177D01*
X413547Y290113D01*
X413452Y289965D01*
X413367Y289765D01*
X413283Y289543D01*
X413230Y289279D01*
X413209Y289131D01*
Y288898D01*
X413219Y288835D01*
Y288761D01*
X413240Y288676D01*
X413272Y288486D01*
X413335Y288264D01*
X413431Y288032D01*
X413494Y287916D01*
X413557Y287799D01*
X413642Y287694D01*
X413737Y287588D01*
X413748Y287577D01*
X413758Y287567D01*
X413790Y287546D01*
X413832Y287504D01*
X413885Y287472D01*
X413948Y287430D01*
X414022Y287377D01*
X414107Y287334D01*
X414202Y287282D01*
X414308Y287239D01*
X414561Y287155D01*
X414836Y287091D01*
X414994Y287081D01*
X415163Y287070D01*
X415037Y285845D01*
X415016D01*
X414973Y285855D01*
X414910Y285866D01*
X414815Y285876D01*
X414699Y285897D01*
X414561Y285929D01*
X414413Y285961D01*
X414255Y286014D01*
X414096Y286066D01*
X413917Y286130D01*
X413748Y286214D01*
X413578Y286299D01*
X413399Y286405D01*
X413240Y286521D01*
X413082Y286648D01*
X412944Y286796D01*
X412934Y286806D01*
X412913Y286838D01*
X412881Y286880D01*
X412828Y286943D01*
X412775Y287028D01*
X412712Y287134D01*
X412649Y287250D01*
X412575Y287387D01*
X412511Y287535D01*
X412448Y287704D01*
X412384Y287884D01*
X412332Y288085D01*
X412279Y288296D01*
X412247Y288518D01*
X412226Y288761D01*
X412215Y289014D01*
Y289152D01*
X412226Y289247D01*
X412237Y289363D01*
X412258Y289501D01*
X412279Y289659D01*
X412311Y289818D01*
X412353Y289997D01*
X412406Y290177D01*
X412469Y290367D01*
X412543Y290547D01*
X412638Y290737D01*
X412744Y290916D01*
X412860Y291085D01*
X412997Y291244D01*
X413008Y291255D01*
X413029Y291276D01*
X413082Y291318D01*
X413135Y291371D01*
X413209Y291434D01*
X413304Y291508D01*
X413410Y291582D01*
X413536Y291656D01*
X413663Y291730D01*
X413811Y291804D01*
X413969Y291878D01*
X414138Y291941D01*
X414329Y291994D01*
X414519Y292036D01*
X414720Y292058D01*
X414931Y292068D01*
X414942D01*
X414952D01*
X414984D01*
X415026D01*
X415142Y292058D01*
X415290Y292036D01*
X415470Y292005D01*
X415660Y291963D01*
X415871Y291910D01*
X416083Y291825D01*
X416093D01*
X416104Y291815D01*
X416136Y291804D01*
X416178Y291783D01*
X416294Y291719D01*
X416442Y291635D01*
X416622Y291519D01*
X416822Y291381D01*
X417034Y291223D01*
X417266Y291022D01*
X417277Y291012D01*
X417298Y291001D01*
X417330Y290959D01*
X417382Y290916D01*
X417446Y290853D01*
X417520Y290779D01*
X417615Y290695D01*
X417710Y290589D01*
X417826Y290462D01*
X417953Y290325D01*
X418101Y290177D01*
X418249Y290008D01*
X418418Y289828D01*
X418587Y289627D01*
X418777Y289405D01*
X418978Y289173D01*
X418988Y289162D01*
X419020Y289131D01*
X419062Y289067D01*
X419126Y289004D01*
X419200Y288909D01*
X419284Y288814D01*
X419475Y288592D01*
X419675Y288359D01*
X419887Y288137D01*
X419982Y288032D01*
X420066Y287937D01*
X420151Y287852D01*
X420214Y287789D01*
X420225Y287778D01*
X420267Y287736D01*
X420331Y287683D01*
X420415Y287609D01*
X420510Y287525D01*
X420616Y287440D01*
X420848Y287271D01*
Y292079D01*
X422000D01*
Y285623D01*
D02*
G37*
G36*
X413325Y284587D02*
X413357Y284555D01*
X413420Y284503D01*
X413494Y284439D01*
X413600Y284355D01*
X413716Y284249D01*
X413853Y284143D01*
X414012Y284017D01*
X414191Y283879D01*
X414392Y283731D01*
X414614Y283573D01*
X414846Y283414D01*
X415089Y283256D01*
X415364Y283087D01*
X415649Y282907D01*
X415945Y282738D01*
X415966Y282728D01*
X416019Y282696D01*
X416104Y282654D01*
X416231Y282590D01*
X416379Y282516D01*
X416558Y282421D01*
X416759Y282326D01*
X416981Y282220D01*
X417224Y282115D01*
X417488Y281998D01*
X417773Y281882D01*
X418059Y281766D01*
X418365Y281650D01*
X418682Y281534D01*
X419327Y281333D01*
X419337D01*
X419380Y281322D01*
X419453Y281301D01*
X419538Y281280D01*
X419654Y281248D01*
X419792Y281217D01*
X419950Y281174D01*
X420119Y281143D01*
X420309Y281100D01*
X420521Y281069D01*
X420742Y281026D01*
X420975Y280995D01*
X421218Y280952D01*
X421472Y280921D01*
X422000Y280878D01*
Y279653D01*
X421989D01*
X421947D01*
X421884D01*
X421799Y279663D01*
X421683Y279674D01*
X421556Y279684D01*
X421398Y279695D01*
X421229Y279716D01*
X421028Y279737D01*
X420827Y279769D01*
X420595Y279801D01*
X420352Y279843D01*
X420087Y279896D01*
X419813Y279949D01*
X419527Y280023D01*
X419231Y280096D01*
X419210Y280107D01*
X419158Y280118D01*
X419073Y280139D01*
X418957Y280181D01*
X418809Y280223D01*
X418629Y280276D01*
X418439Y280340D01*
X418228Y280413D01*
X417995Y280498D01*
X417742Y280593D01*
X417477Y280688D01*
X417213Y280804D01*
X416653Y281047D01*
X416083Y281333D01*
X416062Y281343D01*
X416019Y281375D01*
X415935Y281417D01*
X415829Y281470D01*
X415702Y281555D01*
X415554Y281639D01*
X415385Y281745D01*
X415195Y281850D01*
X415005Y281977D01*
X414794Y282115D01*
X414371Y282411D01*
X413938Y282728D01*
X413727Y282896D01*
X413526Y283066D01*
Y278290D01*
X412374D01*
Y284598D01*
X413314D01*
X413325Y284587D01*
D02*
G37*
G36*
X419327Y277032D02*
X419422D01*
X419527Y277011D01*
X419654Y277001D01*
X419792Y276969D01*
X419939Y276937D01*
X420109Y276884D01*
X420278Y276831D01*
X420447Y276758D01*
X420626Y276673D01*
X420806Y276567D01*
X420975Y276451D01*
X421155Y276314D01*
X421313Y276155D01*
X421324Y276145D01*
X421345Y276113D01*
X421387Y276060D01*
X421440Y275997D01*
X421514Y275902D01*
X421577Y275796D01*
X421662Y275669D01*
X421736Y275532D01*
X421810Y275373D01*
X421894Y275194D01*
X421958Y275003D01*
X422021Y274803D01*
X422085Y274581D01*
X422127Y274348D01*
X422148Y274095D01*
X422158Y273831D01*
Y273767D01*
X422148Y273693D01*
Y273587D01*
X422137Y273471D01*
X422116Y273323D01*
X422085Y273165D01*
X422053Y272996D01*
X422010Y272816D01*
X421947Y272626D01*
X421884Y272436D01*
X421799Y272235D01*
X421704Y272045D01*
X421588Y271855D01*
X421461Y271665D01*
X421313Y271495D01*
X421303Y271485D01*
X421271Y271453D01*
X421229Y271411D01*
X421155Y271358D01*
X421070Y271295D01*
X420975Y271221D01*
X420859Y271136D01*
X420721Y271062D01*
X420574Y270978D01*
X420415Y270893D01*
X420235Y270819D01*
X420056Y270756D01*
X419855Y270703D01*
X419633Y270661D01*
X419411Y270629D01*
X419179Y270618D01*
X419168D01*
X419136D01*
X419084D01*
X419020Y270629D01*
X418936D01*
X418841Y270639D01*
X418735Y270661D01*
X418619Y270682D01*
X418376Y270735D01*
X418111Y270819D01*
X417847Y270935D01*
X417721Y271009D01*
X417594Y271094D01*
X417583Y271104D01*
X417562Y271115D01*
X417530Y271147D01*
X417488Y271189D01*
X417435Y271231D01*
X417382Y271295D01*
X417309Y271369D01*
X417245Y271453D01*
X417097Y271643D01*
X416949Y271876D01*
X416822Y272150D01*
X416717Y272467D01*
Y272457D01*
X416706Y272436D01*
X416685Y272393D01*
X416664Y272351D01*
X416643Y272288D01*
X416600Y272214D01*
X416516Y272055D01*
X416410Y271876D01*
X416273Y271696D01*
X416125Y271516D01*
X415945Y271369D01*
X415935D01*
X415924Y271358D01*
X415893Y271337D01*
X415850Y271316D01*
X415745Y271252D01*
X415607Y271189D01*
X415428Y271126D01*
X415216Y271062D01*
X414984Y271020D01*
X414730Y271009D01*
X414720D01*
X414688D01*
X414625Y271020D01*
X414551D01*
X414466Y271031D01*
X414360Y271052D01*
X414244Y271073D01*
X414107Y271104D01*
X413969Y271147D01*
X413832Y271199D01*
X413684Y271252D01*
X413526Y271326D01*
X413378Y271421D01*
X413230Y271516D01*
X413082Y271633D01*
X412944Y271770D01*
X412934Y271781D01*
X412913Y271802D01*
X412881Y271844D01*
X412828Y271908D01*
X412775Y271981D01*
X412712Y272076D01*
X412649Y272182D01*
X412575Y272309D01*
X412511Y272446D01*
X412448Y272605D01*
X412384Y272763D01*
X412332Y272943D01*
X412279Y273144D01*
X412247Y273344D01*
X412226Y273566D01*
X412215Y273799D01*
Y273926D01*
X412226Y274010D01*
X412237Y274116D01*
X412258Y274243D01*
X412279Y274380D01*
X412311Y274538D01*
X412353Y274697D01*
X412395Y274866D01*
X412458Y275035D01*
X412532Y275204D01*
X412617Y275384D01*
X412723Y275542D01*
X412828Y275711D01*
X412966Y275859D01*
X412976Y275870D01*
X412997Y275891D01*
X413040Y275933D01*
X413092Y275986D01*
X413166Y276039D01*
X413251Y276102D01*
X413357Y276176D01*
X413462Y276250D01*
X413589Y276324D01*
X413727Y276398D01*
X413874Y276462D01*
X414033Y276514D01*
X414202Y276567D01*
X414382Y276609D01*
X414572Y276631D01*
X414762Y276641D01*
X414772D01*
X414794D01*
X414825D01*
X414878D01*
X414931Y276631D01*
X415005Y276620D01*
X415163Y276599D01*
X415343Y276557D01*
X415544Y276493D01*
X415745Y276398D01*
X415945Y276282D01*
X415956D01*
X415966Y276261D01*
X416030Y276219D01*
X416115Y276134D01*
X416231Y276018D01*
X416347Y275859D01*
X416484Y275680D01*
X416600Y275458D01*
X416717Y275204D01*
Y275215D01*
X416727Y275247D01*
X416748Y275289D01*
X416770Y275352D01*
X416801Y275426D01*
X416843Y275511D01*
X416949Y275711D01*
X417076Y275933D01*
X417245Y276155D01*
X417435Y276377D01*
X417668Y276567D01*
X417678Y276578D01*
X417699Y276588D01*
X417731Y276609D01*
X417784Y276641D01*
X417847Y276673D01*
X417921Y276715D01*
X418006Y276758D01*
X418101Y276810D01*
X418323Y276895D01*
X418587Y276969D01*
X418883Y277022D01*
X419041Y277043D01*
X419210D01*
X419221D01*
X419263D01*
X419327Y277032D01*
D02*
G37*
G36*
X418988Y269435D02*
X419062D01*
X419158Y269424D01*
X419274Y269414D01*
X419390Y269393D01*
X419654Y269350D01*
X419939Y269276D01*
X420235Y269181D01*
X420542Y269044D01*
X420552D01*
X420574Y269023D01*
X420616Y269002D01*
X420669Y268970D01*
X420732Y268928D01*
X420806Y268885D01*
X420986Y268759D01*
X421176Y268611D01*
X421376Y268421D01*
X421577Y268199D01*
X421746Y267956D01*
Y267945D01*
X421768Y267924D01*
X421789Y267882D01*
X421810Y267829D01*
X421841Y267766D01*
X421873Y267691D01*
X421915Y267596D01*
X421947Y267501D01*
X422032Y267269D01*
X422095Y266994D01*
X422137Y266698D01*
X422158Y266381D01*
Y266318D01*
X422148Y266233D01*
X422137Y266128D01*
X422127Y266001D01*
X422095Y265853D01*
X422063Y265694D01*
X422021Y265515D01*
X421958Y265325D01*
X421894Y265124D01*
X421799Y264923D01*
X421693Y264722D01*
X421567Y264511D01*
X421419Y264321D01*
X421250Y264120D01*
X421059Y263940D01*
X421049Y263930D01*
X421007Y263898D01*
X420943Y263856D01*
X420848Y263792D01*
X420732Y263718D01*
X420584Y263645D01*
X420404Y263560D01*
X420193Y263475D01*
X419961Y263380D01*
X419697Y263296D01*
X419401Y263222D01*
X419073Y263148D01*
X418714Y263085D01*
X418323Y263042D01*
X417900Y263011D01*
X417446Y263000D01*
X417435D01*
X417414D01*
X417372D01*
X417319D01*
X417256D01*
X417171Y263011D01*
X417087D01*
X416981Y263021D01*
X416748Y263032D01*
X416484Y263053D01*
X416188Y263085D01*
X415871Y263127D01*
X415533Y263190D01*
X415195Y263254D01*
X414857Y263338D01*
X414519Y263444D01*
X414191Y263560D01*
X413874Y263697D01*
X413589Y263867D01*
X413335Y264046D01*
X413325Y264057D01*
X413283Y264088D01*
X413230Y264141D01*
X413156Y264215D01*
X413071Y264300D01*
X412976Y264416D01*
X412881Y264543D01*
X412775Y264691D01*
X412670Y264860D01*
X412575Y265050D01*
X412480Y265251D01*
X412395Y265473D01*
X412321Y265705D01*
X412268Y265959D01*
X412226Y266223D01*
X412215Y266508D01*
Y266624D01*
X412226Y266698D01*
X412237Y266793D01*
X412247Y266910D01*
X412268Y267036D01*
X412300Y267174D01*
X412374Y267480D01*
X412427Y267628D01*
X412490Y267797D01*
X412564Y267956D01*
X412659Y268104D01*
X412754Y268251D01*
X412871Y268399D01*
X412881Y268410D01*
X412902Y268431D01*
X412934Y268473D01*
X412987Y268516D01*
X413050Y268579D01*
X413135Y268643D01*
X413230Y268716D01*
X413335Y268790D01*
X413452Y268864D01*
X413589Y268938D01*
X413737Y269012D01*
X413895Y269086D01*
X414065Y269150D01*
X414244Y269202D01*
X414434Y269255D01*
X414646Y269287D01*
X414741Y268093D01*
X414730D01*
X414709Y268082D01*
X414677Y268072D01*
X414625Y268061D01*
X414498Y268030D01*
X414350Y267977D01*
X414181Y267913D01*
X414012Y267829D01*
X413853Y267744D01*
X413716Y267639D01*
X413705Y267628D01*
X413695Y267617D01*
X413663Y267586D01*
X413631Y267554D01*
X413547Y267449D01*
X413452Y267300D01*
X413357Y267132D01*
X413283Y266920D01*
X413219Y266688D01*
X413209Y266561D01*
X413198Y266434D01*
Y266339D01*
X413219Y266223D01*
X413240Y266085D01*
X413283Y265927D01*
X413335Y265758D01*
X413420Y265589D01*
X413526Y265420D01*
Y265409D01*
X413547Y265399D01*
X413568Y265367D01*
X413600Y265325D01*
X413695Y265229D01*
X413832Y265103D01*
X414001Y264955D01*
X414212Y264807D01*
X414455Y264669D01*
X414730Y264532D01*
X414741D01*
X414762Y264522D01*
X414815Y264500D01*
X414878Y264479D01*
X414952Y264458D01*
X415058Y264426D01*
X415174Y264395D01*
X415301Y264363D01*
X415449Y264331D01*
X415618Y264310D01*
X415808Y264279D01*
X416009Y264247D01*
X416220Y264226D01*
X416453Y264215D01*
X416706Y264205D01*
X416959Y264194D01*
X416939Y264215D01*
X416907Y264236D01*
X416865Y264268D01*
X416748Y264363D01*
X416600Y264479D01*
X416442Y264638D01*
X416283Y264817D01*
X416136Y265018D01*
X415998Y265240D01*
Y265251D01*
X415988Y265272D01*
X415966Y265303D01*
X415945Y265346D01*
X415924Y265409D01*
X415893Y265473D01*
X415829Y265642D01*
X415776Y265842D01*
X415723Y266064D01*
X415681Y266307D01*
X415671Y266561D01*
Y266614D01*
X415681Y266677D01*
Y266762D01*
X415702Y266867D01*
X415713Y266984D01*
X415745Y267121D01*
X415776Y267269D01*
X415829Y267417D01*
X415882Y267586D01*
X415956Y267755D01*
X416040Y267924D01*
X416146Y268104D01*
X416262Y268273D01*
X416400Y268442D01*
X416558Y268600D01*
X416569Y268611D01*
X416600Y268632D01*
X416643Y268674D01*
X416717Y268738D01*
X416801Y268801D01*
X416907Y268864D01*
X417034Y268949D01*
X417171Y269023D01*
X417330Y269097D01*
X417499Y269181D01*
X417689Y269245D01*
X417890Y269319D01*
X418101Y269371D01*
X418333Y269414D01*
X418576Y269435D01*
X418830Y269445D01*
X418841D01*
X418872D01*
X418915D01*
X418988Y269435D01*
D02*
G37*
%LPC*%
G36*
X415449Y332527D02*
X415438D01*
X415406D01*
X415354D01*
X415280Y332516D01*
X415195Y332506D01*
X415089Y332495D01*
X414984Y332485D01*
X414857Y332463D01*
X414604Y332390D01*
X414329Y332295D01*
X414191Y332231D01*
X414065Y332157D01*
X413938Y332073D01*
X413821Y331978D01*
X413811Y331967D01*
X413790Y331956D01*
X413769Y331925D01*
X413727Y331882D01*
X413684Y331829D01*
X413631Y331766D01*
X413515Y331608D01*
X413399Y331417D01*
X413304Y331185D01*
X413261Y331069D01*
X413230Y330931D01*
X413219Y330794D01*
X413209Y330657D01*
Y330583D01*
X413219Y330519D01*
X413230Y330456D01*
X413240Y330371D01*
X413293Y330181D01*
X413367Y329959D01*
X413420Y329843D01*
X413483Y329727D01*
X413557Y329611D01*
X413652Y329494D01*
X413748Y329378D01*
X413864Y329262D01*
X413874Y329251D01*
X413895Y329241D01*
X413927Y329209D01*
X413980Y329167D01*
X414043Y329124D01*
X414128Y329082D01*
X414212Y329029D01*
X414318Y328977D01*
X414434Y328913D01*
X414561Y328860D01*
X414699Y328818D01*
X414857Y328776D01*
X415185Y328702D01*
X415364Y328691D01*
X415554Y328681D01*
X415565D01*
X415597D01*
X415639D01*
X415713Y328691D01*
X415787Y328702D01*
X415882Y328712D01*
X416093Y328755D01*
X416336Y328818D01*
X416579Y328913D01*
X416706Y328977D01*
X416833Y329051D01*
X416949Y329135D01*
X417065Y329230D01*
X417076Y329241D01*
X417087Y329251D01*
X417118Y329283D01*
X417150Y329336D01*
X417192Y329389D01*
X417245Y329452D01*
X417298Y329526D01*
X417351Y329611D01*
X417456Y329822D01*
X417551Y330054D01*
X417615Y330329D01*
X417626Y330477D01*
X417636Y330625D01*
Y330709D01*
X417626Y330762D01*
X417615Y330836D01*
X417604Y330910D01*
X417562Y331101D01*
X417499Y331322D01*
X417393Y331544D01*
X417330Y331660D01*
X417256Y331777D01*
X417160Y331882D01*
X417065Y331988D01*
X417055Y331999D01*
X417034Y332009D01*
X417002Y332041D01*
X416960Y332073D01*
X416896Y332115D01*
X416822Y332157D01*
X416738Y332210D01*
X416643Y332263D01*
X416537Y332305D01*
X416410Y332358D01*
X416283Y332400D01*
X416136Y332442D01*
X415977Y332474D01*
X415819Y332506D01*
X415639Y332516D01*
X415449Y332527D01*
D02*
G37*
G36*
Y324951D02*
X415438D01*
X415406D01*
X415354D01*
X415280Y324940D01*
X415195Y324930D01*
X415089Y324919D01*
X414984Y324908D01*
X414857Y324887D01*
X414604Y324813D01*
X414329Y324718D01*
X414191Y324655D01*
X414065Y324581D01*
X413938Y324496D01*
X413821Y324401D01*
X413811Y324391D01*
X413790Y324380D01*
X413769Y324348D01*
X413727Y324306D01*
X413684Y324253D01*
X413631Y324190D01*
X413515Y324031D01*
X413399Y323841D01*
X413304Y323609D01*
X413261Y323493D01*
X413230Y323355D01*
X413219Y323218D01*
X413209Y323081D01*
Y323007D01*
X413219Y322943D01*
X413230Y322880D01*
X413240Y322795D01*
X413293Y322605D01*
X413367Y322383D01*
X413420Y322267D01*
X413483Y322151D01*
X413557Y322034D01*
X413652Y321918D01*
X413748Y321802D01*
X413864Y321686D01*
X413874Y321675D01*
X413895Y321665D01*
X413927Y321633D01*
X413980Y321591D01*
X414043Y321548D01*
X414128Y321506D01*
X414212Y321453D01*
X414318Y321400D01*
X414434Y321337D01*
X414561Y321284D01*
X414699Y321242D01*
X414857Y321200D01*
X415185Y321126D01*
X415364Y321115D01*
X415554Y321105D01*
X415565D01*
X415597D01*
X415639D01*
X415713Y321115D01*
X415787Y321126D01*
X415882Y321136D01*
X416093Y321179D01*
X416336Y321242D01*
X416579Y321337D01*
X416706Y321400D01*
X416833Y321474D01*
X416949Y321559D01*
X417065Y321654D01*
X417076Y321665D01*
X417087Y321675D01*
X417118Y321707D01*
X417150Y321760D01*
X417192Y321813D01*
X417245Y321876D01*
X417298Y321950D01*
X417351Y322034D01*
X417456Y322246D01*
X417551Y322478D01*
X417615Y322753D01*
X417626Y322901D01*
X417636Y323049D01*
Y323133D01*
X417626Y323186D01*
X417615Y323260D01*
X417604Y323334D01*
X417562Y323524D01*
X417499Y323746D01*
X417393Y323968D01*
X417330Y324084D01*
X417256Y324201D01*
X417160Y324306D01*
X417065Y324412D01*
X417055Y324422D01*
X417034Y324433D01*
X417002Y324465D01*
X416960Y324496D01*
X416896Y324539D01*
X416822Y324581D01*
X416738Y324634D01*
X416643Y324687D01*
X416537Y324729D01*
X416410Y324782D01*
X416283Y324824D01*
X416136Y324866D01*
X415977Y324898D01*
X415819Y324930D01*
X415639Y324940D01*
X415449Y324951D01*
D02*
G37*
G36*
X417192Y317428D02*
X417182D01*
X417160D01*
X417129D01*
X417087D01*
X417034D01*
X416970D01*
X416801Y317417D01*
X416611Y317406D01*
X416389Y317396D01*
X416146Y317385D01*
X415893Y317354D01*
X415354Y317290D01*
X415089Y317237D01*
X414836Y317185D01*
X414593Y317121D01*
X414360Y317047D01*
X414170Y316963D01*
X414001Y316857D01*
X413991Y316846D01*
X413969Y316836D01*
X413927Y316804D01*
X413874Y316762D01*
X413821Y316698D01*
X413748Y316635D01*
X413674Y316561D01*
X413600Y316477D01*
X413462Y316276D01*
X413335Y316033D01*
X413283Y315906D01*
X413240Y315758D01*
X413219Y315621D01*
X413209Y315462D01*
Y315388D01*
X413219Y315325D01*
X413230Y315261D01*
X413240Y315177D01*
X413293Y314987D01*
X413378Y314775D01*
X413431Y314670D01*
X413505Y314554D01*
X413578Y314448D01*
X413674Y314342D01*
X413779Y314237D01*
X413906Y314141D01*
X413917Y314131D01*
X413948Y314120D01*
X414001Y314089D01*
X414086Y314046D01*
X414191Y314004D01*
X414318Y313951D01*
X414466Y313888D01*
X414656Y313835D01*
X414868Y313782D01*
X415100Y313719D01*
X415375Y313666D01*
X415671Y313624D01*
X415998Y313581D01*
X416368Y313560D01*
X416759Y313539D01*
X417192Y313528D01*
X417203D01*
X417224D01*
X417256D01*
X417298D01*
X417351D01*
X417425D01*
X417583Y313539D01*
X417773Y313550D01*
X417995Y313560D01*
X418238Y313571D01*
X418492Y313603D01*
X419031Y313666D01*
X419295Y313708D01*
X419559Y313761D01*
X419802Y313824D01*
X420024Y313909D01*
X420225Y313993D01*
X420394Y314089D01*
X420404Y314099D01*
X420425Y314110D01*
X420468Y314141D01*
X420521Y314194D01*
X420574Y314247D01*
X420637Y314310D01*
X420785Y314469D01*
X420933Y314670D01*
X421049Y314913D01*
X421102Y315040D01*
X421144Y315177D01*
X421165Y315325D01*
X421176Y315473D01*
Y315504D01*
X421165Y315557D01*
Y315610D01*
X421155Y315684D01*
X421133Y315769D01*
X421081Y315959D01*
X421038Y316064D01*
X420986Y316170D01*
X420922Y316286D01*
X420838Y316403D01*
X420753Y316519D01*
X420647Y316635D01*
X420521Y316751D01*
X420383Y316857D01*
X420373Y316868D01*
X420341Y316878D01*
X420299Y316910D01*
X420225Y316942D01*
X420130Y316994D01*
X420003Y317037D01*
X419855Y317089D01*
X419686Y317142D01*
X419485Y317195D01*
X419253Y317248D01*
X418999Y317301D01*
X418703Y317343D01*
X418376Y317375D01*
X418016Y317406D01*
X417626Y317417D01*
X417192Y317428D01*
D02*
G37*
G36*
X414762Y298144D02*
X414751D01*
X414730D01*
X414699D01*
X414646Y298133D01*
X414529Y298123D01*
X414371Y298091D01*
X414202Y298038D01*
X414012Y297954D01*
X413832Y297837D01*
X413737Y297774D01*
X413652Y297689D01*
X413642D01*
X413631Y297668D01*
X413578Y297605D01*
X413505Y297510D01*
X413420Y297372D01*
X413346Y297214D01*
X413272Y297013D01*
X413219Y296791D01*
X413198Y296675D01*
Y296485D01*
X413209Y296432D01*
Y296379D01*
X413219Y296305D01*
X413251Y296147D01*
X413304Y295967D01*
X413388Y295777D01*
X413494Y295587D01*
X413642Y295407D01*
X413663Y295386D01*
X413716Y295333D01*
X413811Y295270D01*
X413938Y295185D01*
X414086Y295101D01*
X414265Y295037D01*
X414466Y294984D01*
X414688Y294963D01*
X414699D01*
X414720D01*
X414751D01*
X414804Y294974D01*
X414868D01*
X414931Y294984D01*
X415089Y295016D01*
X415269Y295069D01*
X415459Y295143D01*
X415649Y295249D01*
X415819Y295397D01*
X415840Y295418D01*
X415882Y295481D01*
X415956Y295576D01*
X416030Y295714D01*
X416115Y295872D01*
X416188Y296073D01*
X416231Y296305D01*
X416252Y296559D01*
Y296622D01*
X416241Y296675D01*
Y296738D01*
X416231Y296802D01*
X416199Y296960D01*
X416146Y297140D01*
X416072Y297330D01*
X415966Y297520D01*
X415819Y297700D01*
X415798Y297721D01*
X415745Y297774D01*
X415649Y297837D01*
X415523Y297922D01*
X415375Y298006D01*
X415185Y298070D01*
X414984Y298123D01*
X414762Y298144D01*
D02*
G37*
G36*
X419231Y298545D02*
X419221D01*
X419189D01*
X419147D01*
X419084Y298535D01*
X419010Y298524D01*
X418925Y298514D01*
X418724Y298471D01*
X418503Y298408D01*
X418259Y298302D01*
X418143Y298239D01*
X418027Y298154D01*
X417911Y298070D01*
X417805Y297964D01*
X417794Y297954D01*
X417784Y297943D01*
X417752Y297911D01*
X417721Y297859D01*
X417668Y297806D01*
X417626Y297742D01*
X417573Y297658D01*
X417520Y297573D01*
X417414Y297362D01*
X417319Y297119D01*
X417256Y296834D01*
X417245Y296686D01*
X417234Y296527D01*
Y296443D01*
X417245Y296390D01*
X417256Y296316D01*
X417266Y296231D01*
X417309Y296031D01*
X417372Y295809D01*
X417467Y295576D01*
X417530Y295460D01*
X417604Y295344D01*
X417699Y295228D01*
X417794Y295122D01*
X417805Y295111D01*
X417816Y295101D01*
X417847Y295069D01*
X417890Y295037D01*
X417953Y294995D01*
X418016Y294953D01*
X418090Y294900D01*
X418175Y294847D01*
X418376Y294741D01*
X418619Y294657D01*
X418893Y294594D01*
X419031Y294583D01*
X419189Y294572D01*
X419200D01*
X419210D01*
X419274D01*
X419380Y294583D01*
X419506Y294604D01*
X419654Y294625D01*
X419823Y294667D01*
X420003Y294731D01*
X420182Y294805D01*
X420204Y294815D01*
X420257Y294847D01*
X420352Y294911D01*
X420457Y294984D01*
X420574Y295090D01*
X420690Y295206D01*
X420816Y295354D01*
X420922Y295523D01*
Y295534D01*
X420933Y295544D01*
X420964Y295608D01*
X421007Y295703D01*
X421049Y295840D01*
X421091Y295988D01*
X421133Y296168D01*
X421165Y296358D01*
X421176Y296559D01*
Y296643D01*
X421165Y296707D01*
X421155Y296781D01*
X421144Y296865D01*
X421102Y297066D01*
X421038Y297288D01*
X420943Y297531D01*
X420880Y297647D01*
X420806Y297764D01*
X420721Y297880D01*
X420626Y297985D01*
X420616Y297996D01*
X420605Y298006D01*
X420574Y298038D01*
X420531Y298070D01*
X420468Y298112D01*
X420404Y298165D01*
X420331Y298218D01*
X420246Y298271D01*
X420045Y298366D01*
X419802Y298461D01*
X419538Y298524D01*
X419390Y298535D01*
X419231Y298545D01*
D02*
G37*
G36*
X414762Y275415D02*
X414751D01*
X414730D01*
X414699D01*
X414646Y275405D01*
X414529Y275394D01*
X414371Y275363D01*
X414202Y275310D01*
X414012Y275225D01*
X413832Y275109D01*
X413737Y275046D01*
X413652Y274961D01*
X413642D01*
X413631Y274940D01*
X413578Y274877D01*
X413505Y274781D01*
X413420Y274644D01*
X413346Y274486D01*
X413272Y274285D01*
X413219Y274063D01*
X413198Y273947D01*
Y273757D01*
X413209Y273704D01*
Y273651D01*
X413219Y273577D01*
X413251Y273419D01*
X413304Y273239D01*
X413388Y273049D01*
X413494Y272859D01*
X413642Y272679D01*
X413663Y272658D01*
X413716Y272605D01*
X413811Y272542D01*
X413938Y272457D01*
X414086Y272372D01*
X414265Y272309D01*
X414466Y272256D01*
X414688Y272235D01*
X414699D01*
X414720D01*
X414751D01*
X414804Y272246D01*
X414868D01*
X414931Y272256D01*
X415089Y272288D01*
X415269Y272341D01*
X415459Y272415D01*
X415649Y272520D01*
X415819Y272668D01*
X415840Y272689D01*
X415882Y272753D01*
X415956Y272848D01*
X416030Y272985D01*
X416115Y273144D01*
X416188Y273344D01*
X416231Y273577D01*
X416252Y273831D01*
Y273894D01*
X416241Y273947D01*
Y274010D01*
X416231Y274074D01*
X416199Y274232D01*
X416146Y274412D01*
X416072Y274602D01*
X415966Y274792D01*
X415819Y274972D01*
X415798Y274993D01*
X415745Y275046D01*
X415649Y275109D01*
X415523Y275194D01*
X415375Y275278D01*
X415185Y275342D01*
X414984Y275394D01*
X414762Y275415D01*
D02*
G37*
G36*
X419231Y275817D02*
X419221D01*
X419189D01*
X419147D01*
X419084Y275807D01*
X419010Y275796D01*
X418925Y275785D01*
X418724Y275743D01*
X418503Y275680D01*
X418259Y275574D01*
X418143Y275511D01*
X418027Y275426D01*
X417911Y275342D01*
X417805Y275236D01*
X417794Y275225D01*
X417784Y275215D01*
X417752Y275183D01*
X417721Y275130D01*
X417668Y275077D01*
X417626Y275014D01*
X417573Y274930D01*
X417520Y274845D01*
X417414Y274634D01*
X417319Y274391D01*
X417256Y274105D01*
X417245Y273957D01*
X417234Y273799D01*
Y273714D01*
X417245Y273661D01*
X417256Y273587D01*
X417266Y273503D01*
X417309Y273302D01*
X417372Y273080D01*
X417467Y272848D01*
X417530Y272732D01*
X417604Y272615D01*
X417699Y272499D01*
X417794Y272393D01*
X417805Y272383D01*
X417816Y272372D01*
X417847Y272341D01*
X417890Y272309D01*
X417953Y272267D01*
X418016Y272225D01*
X418090Y272172D01*
X418175Y272119D01*
X418376Y272013D01*
X418619Y271929D01*
X418893Y271865D01*
X419031Y271855D01*
X419189Y271844D01*
X419200D01*
X419210D01*
X419274D01*
X419380Y271855D01*
X419506Y271876D01*
X419654Y271897D01*
X419823Y271939D01*
X420003Y272003D01*
X420182Y272076D01*
X420204Y272087D01*
X420257Y272119D01*
X420352Y272182D01*
X420457Y272256D01*
X420574Y272362D01*
X420690Y272478D01*
X420816Y272626D01*
X420922Y272795D01*
Y272806D01*
X420933Y272816D01*
X420964Y272880D01*
X421007Y272975D01*
X421049Y273112D01*
X421091Y273260D01*
X421133Y273440D01*
X421165Y273630D01*
X421176Y273831D01*
Y273915D01*
X421165Y273979D01*
X421155Y274053D01*
X421144Y274137D01*
X421102Y274338D01*
X421038Y274560D01*
X420943Y274803D01*
X420880Y274919D01*
X420806Y275035D01*
X420721Y275151D01*
X420626Y275257D01*
X420616Y275268D01*
X420605Y275278D01*
X420574Y275310D01*
X420531Y275342D01*
X420468Y275384D01*
X420404Y275437D01*
X420331Y275490D01*
X420246Y275542D01*
X420045Y275637D01*
X419802Y275732D01*
X419538Y275796D01*
X419390Y275807D01*
X419231Y275817D01*
D02*
G37*
G36*
X418904Y268220D02*
X418893D01*
X418862D01*
X418809D01*
X418735Y268209D01*
X418650Y268199D01*
X418555Y268188D01*
X418450Y268178D01*
X418333Y268156D01*
X418080Y268093D01*
X417816Y267998D01*
X417678Y267934D01*
X417551Y267861D01*
X417435Y267776D01*
X417319Y267681D01*
X417309Y267670D01*
X417298Y267660D01*
X417266Y267628D01*
X417224Y267586D01*
X417182Y267533D01*
X417129Y267470D01*
X417023Y267311D01*
X416917Y267110D01*
X416822Y266878D01*
X416748Y266614D01*
X416738Y266466D01*
X416727Y266318D01*
Y266244D01*
X416738Y266180D01*
X416748Y266117D01*
X416759Y266033D01*
X416801Y265842D01*
X416875Y265620D01*
X416981Y265388D01*
X417044Y265272D01*
X417118Y265156D01*
X417213Y265039D01*
X417319Y264934D01*
X417330Y264923D01*
X417351Y264912D01*
X417382Y264881D01*
X417425Y264849D01*
X417477Y264807D01*
X417551Y264754D01*
X417636Y264701D01*
X417731Y264659D01*
X417826Y264606D01*
X417942Y264553D01*
X418207Y264458D01*
X418503Y264395D01*
X418671Y264384D01*
X418841Y264374D01*
X418851D01*
X418872D01*
X418904D01*
X418946D01*
X418999Y264384D01*
X419062D01*
X419221Y264405D01*
X419401Y264437D01*
X419601Y264479D01*
X419813Y264543D01*
X420024Y264627D01*
X420035D01*
X420045Y264638D01*
X420077Y264659D01*
X420119Y264680D01*
X420214Y264733D01*
X420341Y264817D01*
X420478Y264923D01*
X420616Y265050D01*
X420753Y265187D01*
X420880Y265356D01*
Y265367D01*
X420891Y265377D01*
X420922Y265441D01*
X420975Y265536D01*
X421028Y265663D01*
X421081Y265811D01*
X421133Y265980D01*
X421165Y266170D01*
X421176Y266360D01*
Y266434D01*
X421165Y266487D01*
X421155Y266561D01*
X421144Y266635D01*
X421102Y266814D01*
X421028Y267015D01*
X420975Y267132D01*
X420922Y267237D01*
X420848Y267353D01*
X420774Y267459D01*
X420679Y267565D01*
X420574Y267670D01*
X420563Y267681D01*
X420542Y267691D01*
X420510Y267723D01*
X420457Y267755D01*
X420394Y267797D01*
X420320Y267839D01*
X420235Y267892D01*
X420130Y267945D01*
X420024Y267998D01*
X419897Y268051D01*
X419760Y268093D01*
X419612Y268135D01*
X419453Y268167D01*
X419274Y268199D01*
X419094Y268209D01*
X418904Y268220D01*
D02*
G37*
G36*
X416959Y264194D02*
X416960Y264194D01*
X416970D01*
X416959Y264194D01*
D02*
G37*
%LPD*%
D10*
X847000Y441000D02*
G03*
X847000Y441000I-3000J0D01*
G01*
D11*
X824250Y452000D02*
G03*
X824250Y452000I-1250J0D01*
G01*
D12*
X1177900Y832500D02*
G03*
X1137900Y832500I-20000J15000D01*
G01*
X505000Y44000D02*
G03*
X505000Y44000I-1000J0D01*
G01*
X1355750Y651000D02*
G03*
X1355750Y651000I-750J0D01*
G01*
Y84000D02*
G03*
X1355750Y84000I-750J0D01*
G01*
X988600Y1212000D02*
G03*
X988600Y1212000I-1000J0D01*
G01*
X1355750Y385600D02*
G03*
X1355750Y385600I-750J0D01*
G01*
X1085200Y832500D02*
G03*
X1045200Y832500I-20000J15000D01*
G01*
X434000Y1164600D02*
G03*
X434000Y1164600I-1000J0D01*
G01*
X680284Y1075000D02*
G03*
X680284Y1075000I-28284J0D01*
G01*
X968000Y1034000D02*
G03*
X968000Y1034000I-80000J0D01*
G01*
X430750Y594400D02*
G03*
X430750Y594400I-750J0D01*
G01*
X434000Y969600D02*
G03*
X434000Y969600I-1000J0D01*
G01*
X498000Y650800D02*
G03*
X498000Y650800I-1000J0D01*
G01*
X725879Y163000D02*
X741879D01*
X709879D02*
X725879D01*
X1032000Y1220000D02*
X1132000D01*
X1032000D02*
X1132000D01*
X1032000Y1120000D02*
X1232000D01*
Y1220000D01*
X1032000D02*
X1232000D01*
X1032000Y1120000D02*
Y1220000D01*
X842400Y109000D02*
X962400D01*
X992400D02*
X1112400D01*
X962400Y99000D02*
Y109000D01*
Y99000D02*
X992400D01*
Y109000D01*
X500000Y40000D02*
X715000D01*
X500000Y80000D02*
X715000D01*
X500000Y40000D02*
Y80000D01*
X715000Y40000D02*
Y80000D01*
X1320000Y646200D02*
X1360000D01*
Y700000D01*
X1320000Y646200D02*
Y700000D01*
X1360000D01*
X1274000Y645000D02*
Y695000D01*
X1195000Y645000D02*
Y695000D01*
Y645000D02*
X1274000D01*
X1195000Y695000D02*
X1274000D01*
X1360000Y79200D02*
Y338000D01*
X1320000Y79200D02*
X1360000D01*
X1320000D02*
Y338000D01*
X1360000D01*
X660500Y371350D02*
Y382650D01*
X685500D01*
Y371350D02*
Y382650D01*
X660500Y371350D02*
X685500D01*
X673000Y368240D02*
Y371350D01*
Y382650D02*
Y386020D01*
X648000Y328000D02*
Y378000D01*
Y428000D01*
X698000D01*
Y328000D02*
Y428000D01*
X648000Y328000D02*
X698000D01*
X1200350Y572500D02*
X1211650D01*
Y547500D02*
Y572500D01*
X1200350Y547500D02*
X1211650D01*
X1200350D02*
Y572500D01*
X1197240Y560000D02*
X1200350D01*
X1211650D02*
X1215020D01*
X1157000Y585000D02*
X1207000D01*
X1257000D01*
Y535000D02*
Y585000D01*
X1157000Y535000D02*
X1257000D01*
X1157000D02*
Y585000D01*
X997600Y1140000D02*
Y1180000D01*
X856451Y1140000D02*
X997600D01*
X856451D02*
Y1151149D01*
Y1220000D01*
X997600D01*
Y1180000D02*
Y1220000D01*
X1320000Y485800D02*
X1360000D01*
X1320000Y380800D02*
Y485800D01*
Y380800D02*
X1360000D01*
Y485800D01*
X1088000Y1070000D02*
X1178000D01*
X1088000D02*
Y1130000D01*
X1178000D01*
Y1070000D02*
Y1130000D01*
X1088000Y1120000D02*
X1178000D01*
X465000Y1174600D02*
X505000D01*
Y1033451D02*
Y1174600D01*
X493851Y1033451D02*
X505000D01*
X425000D02*
X493851D01*
X425000D02*
Y1174600D01*
X465000D01*
X557000Y985000D02*
X747000D01*
Y1175000D01*
X557000Y1155000D02*
X577000Y1175000D01*
X557000Y985000D02*
Y1155000D01*
X577000Y1175000D01*
X747000D01*
X858000Y1064000D02*
Y1084000D01*
X848000Y1074000D02*
X868000D01*
X905000Y669600D02*
Y759600D01*
X965000D01*
Y669600D02*
Y759600D01*
X905000Y669600D02*
X965000D01*
X955000D02*
Y759600D01*
X715000Y759200D02*
X815000D01*
X715000Y539200D02*
Y759200D01*
X815000Y539200D02*
Y759200D01*
X715000Y539200D02*
X815000D01*
X425000Y599200D02*
X465000D01*
X425000Y545400D02*
Y599200D01*
X465000Y545400D02*
Y599200D01*
X425000Y545400D02*
X465000D01*
Y979600D02*
X505000D01*
Y838451D02*
Y979600D01*
X493851Y838451D02*
X505000D01*
X425000D02*
X493851D01*
X425000D02*
Y979600D01*
X465000D01*
X590000Y759200D02*
X690000D01*
X590000Y539200D02*
Y759200D01*
X690000Y539200D02*
Y759200D01*
X590000Y539200D02*
X690000D01*
X425000Y640800D02*
X465000D01*
X425000D02*
Y781949D01*
X436149D01*
X505000D01*
Y640800D02*
Y781949D01*
X465000Y640800D02*
X505000D01*
X666763Y1250287D02*
X663431Y1248621D01*
X660098Y1245288D01*
Y1241956D01*
X661765Y1240290D01*
X665097D01*
X666763Y1241956D01*
Y1243622D01*
X665097Y1245288D01*
X660098D01*
X670095Y1248621D02*
X671761Y1250287D01*
X675094D01*
X676760Y1248621D01*
Y1246954D01*
X675094Y1245288D01*
X676760Y1243622D01*
Y1241956D01*
X675094Y1240290D01*
X671761D01*
X670095Y1241956D01*
Y1243622D01*
X671761Y1245288D01*
X670095Y1246954D01*
Y1248621D01*
X671761Y1245288D02*
X675094D01*
X680092Y1250287D02*
X686756D01*
Y1248621D01*
X680092Y1241956D01*
Y1240290D01*
X696753D02*
X690089D01*
X696753Y1246954D01*
Y1248621D01*
X695087Y1250287D01*
X691755D01*
X690089Y1248621D01*
X700086D02*
X701752Y1250287D01*
X705084D01*
X706750Y1248621D01*
Y1246954D01*
X705084Y1245288D01*
X706750Y1243622D01*
Y1241956D01*
X705084Y1240290D01*
X701752D01*
X700086Y1241956D01*
Y1243622D01*
X701752Y1245288D01*
X700086Y1246954D01*
Y1248621D01*
X701752Y1245288D02*
X705084D01*
X710082Y1240290D02*
X713415D01*
X711748D01*
Y1250287D01*
X710082Y1248621D01*
X718413Y1240290D02*
Y1241956D01*
X720079D01*
Y1240290D01*
X718413D01*
X726744Y1248621D02*
X728410Y1250287D01*
X731742D01*
X733408Y1248621D01*
Y1241956D01*
X731742Y1240290D01*
X728410D01*
X726744Y1241956D01*
Y1248621D01*
X736740Y1241956D02*
X738407Y1240290D01*
X741739D01*
X743405Y1241956D01*
Y1248621D01*
X741739Y1250287D01*
X738407D01*
X736740Y1248621D01*
Y1246954D01*
X738407Y1245288D01*
X743405D01*
X746737Y1241956D02*
X748403Y1240290D01*
X751736D01*
X753402Y1241956D01*
Y1248621D01*
X751736Y1250287D01*
X748403D01*
X746737Y1248621D01*
Y1246954D01*
X748403Y1245288D01*
X753402D01*
X852669Y279002D02*
Y288998D01*
X857668D01*
X859334Y287332D01*
Y284000D01*
X857668Y282334D01*
X852669D01*
X856002D02*
X859334Y279002D01*
X862666Y288998D02*
X869331D01*
Y287332D01*
X862666Y280668D01*
Y279002D01*
X1158240Y609087D02*
X1168397D01*
Y606548D01*
X1158240Y596391D01*
Y593852D01*
X1168397D01*
X1183632Y596391D02*
Y606548D01*
X1181093Y609087D01*
X1176014D01*
X1173475Y606548D01*
Y596391D01*
X1176014Y593852D01*
X1181093D01*
X1178553Y598930D02*
X1183632Y593852D01*
X1181093D02*
X1183632Y596391D01*
X1198867Y593852D02*
X1188710D01*
X1198867Y604009D01*
Y606548D01*
X1196328Y609087D01*
X1191249D01*
X1188710Y606548D01*
X649224Y452115D02*
X659381D01*
Y449576D01*
X649224Y439419D01*
Y436880D01*
X659381D01*
X674616Y439419D02*
Y449576D01*
X672077Y452115D01*
X666998D01*
X664459Y449576D01*
Y439419D01*
X666998Y436880D01*
X672077D01*
X669537Y441958D02*
X674616Y436880D01*
X672077D02*
X674616Y439419D01*
X679694Y436880D02*
X684772D01*
X682233D01*
Y452115D01*
X679694Y449576D01*
X426212Y806191D02*
X436369Y790956D01*
Y806191D02*
X426212Y790956D01*
X441447Y793495D02*
X443986Y790956D01*
X449065D01*
X451604Y793495D01*
Y803652D01*
X449065Y806191D01*
X443986D01*
X441447Y803652D01*
Y801113D01*
X443986Y798574D01*
X451604D01*
X426212Y623311D02*
X436369Y608076D01*
Y623311D02*
X426212Y608076D01*
X441447Y620772D02*
X443986Y623311D01*
X449065D01*
X451604Y620772D01*
Y618233D01*
X449065Y615694D01*
X451604Y613154D01*
Y610615D01*
X449065Y608076D01*
X443986D01*
X441447Y610615D01*
Y613154D01*
X443986Y615694D01*
X441447Y618233D01*
Y620772D01*
X443986Y615694D02*
X449065D01*
X426212Y1003803D02*
X436369Y988568D01*
Y1003803D02*
X426212Y988568D01*
X441447Y1003803D02*
X451604D01*
Y1001264D01*
X441447Y991107D01*
Y988568D01*
X426212Y1198621D02*
X436369Y1183386D01*
Y1198621D02*
X426212Y1183386D01*
X451604Y1198621D02*
X446525Y1196082D01*
X441447Y1191003D01*
Y1185925D01*
X443986Y1183386D01*
X449065D01*
X451604Y1185925D01*
Y1188464D01*
X449065Y1191003D01*
X441447D01*
X1321308Y510027D02*
X1331465Y494792D01*
Y510027D02*
X1321308Y494792D01*
X1346700Y510027D02*
X1336543D01*
Y502410D01*
X1341621Y504949D01*
X1344161D01*
X1346700Y502410D01*
Y497331D01*
X1344161Y494792D01*
X1339082D01*
X1336543Y497331D01*
X857758Y1244087D02*
X867915Y1228852D01*
Y1244087D02*
X857758Y1228852D01*
X880611D02*
Y1244087D01*
X872993Y1236469D01*
X883150D01*
X1321308Y362199D02*
X1331465Y346964D01*
Y362199D02*
X1321308Y346964D01*
X1336543Y359660D02*
X1339082Y362199D01*
X1344161D01*
X1346700Y359660D01*
Y357121D01*
X1344161Y354581D01*
X1341621D01*
X1344161D01*
X1346700Y352042D01*
Y349503D01*
X1344161Y346964D01*
X1339082D01*
X1336543Y349503D01*
X1321308Y724149D02*
X1331465Y708914D01*
Y724149D02*
X1321308Y708914D01*
X1346700D02*
X1336543D01*
X1346700Y719071D01*
Y721610D01*
X1344161Y724149D01*
X1339082D01*
X1336543Y721610D01*
X843788Y133091D02*
X853945Y117856D01*
Y133091D02*
X843788Y117856D01*
X859023D02*
X864101D01*
X861562D01*
Y133091D01*
X859023Y130552D01*
X1182687Y880618D02*
Y870461D01*
X1187765Y865383D01*
X1192843Y870461D01*
Y880618D01*
X1197922D02*
X1208078D01*
X1203000D01*
Y865383D01*
X1213157Y878078D02*
X1215696Y880618D01*
X1220774D01*
X1223314Y878078D01*
Y875539D01*
X1220774Y873000D01*
X1218235D01*
X1220774D01*
X1223314Y870461D01*
Y867922D01*
X1220774Y865383D01*
X1215696D01*
X1213157Y867922D01*
X1041400Y896615D02*
Y886458D01*
X1046478Y881380D01*
X1051557Y886458D01*
Y896615D01*
X1056635D02*
X1066792D01*
X1061713D01*
Y881380D01*
X1082027D02*
X1071870D01*
X1082027Y891537D01*
Y894076D01*
X1079488Y896615D01*
X1074409D01*
X1071870Y894076D01*
X1089152Y1154171D02*
Y1144014D01*
X1094230Y1138936D01*
X1099309Y1144014D01*
Y1154171D01*
X1104387D02*
X1114544D01*
X1109465D01*
Y1138936D01*
X1119622D02*
X1124700D01*
X1122161D01*
Y1154171D01*
X1119622Y1151632D01*
X558292Y1199129D02*
Y1188972D01*
X563370Y1183894D01*
X568449Y1188972D01*
Y1199129D01*
X573527D02*
Y1183894D01*
X581145D01*
X583684Y1186433D01*
Y1196590D01*
X581145Y1199129D01*
X573527D01*
X588762Y1183894D02*
X593840D01*
X591301D01*
Y1199129D01*
X588762Y1196590D01*
X883920Y886963D02*
Y874267D01*
X886459Y871728D01*
X891537D01*
X894077Y874267D01*
Y886963D01*
X899155Y871728D02*
X904233D01*
X901694D01*
Y886963D01*
X899155Y884424D01*
X847852Y754888D02*
Y764885D01*
X852850D01*
X854517Y763219D01*
Y759886D01*
X852850Y758220D01*
X847852D01*
X851184D02*
X854517Y754888D01*
X857849Y763219D02*
X859515Y764885D01*
X862847D01*
X864513Y763219D01*
Y761553D01*
X862847Y759886D01*
X861181D01*
X862847D01*
X864513Y758220D01*
Y756554D01*
X862847Y754888D01*
X859515D01*
X857849Y756554D01*
X867846Y754888D02*
X871178D01*
X869512D01*
Y764885D01*
X867846Y763219D01*
X992378Y753364D02*
Y763361D01*
X997376D01*
X999043Y761695D01*
Y758362D01*
X997376Y756696D01*
X992378D01*
X995710D02*
X999043Y753364D01*
X1002375Y761695D02*
X1004041Y763361D01*
X1007373D01*
X1009039Y761695D01*
Y760029D01*
X1007373Y758362D01*
X1005707D01*
X1007373D01*
X1009039Y756696D01*
Y755030D01*
X1007373Y753364D01*
X1004041D01*
X1002375Y755030D01*
X1012372Y761695D02*
X1014038Y763361D01*
X1017370D01*
X1019036Y761695D01*
Y755030D01*
X1017370Y753364D01*
X1014038D01*
X1012372Y755030D01*
Y761695D01*
X1287526Y1212596D02*
Y1227831D01*
X1295143D01*
X1297683Y1225292D01*
Y1220213D01*
X1295143Y1217674D01*
X1287526D01*
X1292604D02*
X1297683Y1212596D01*
X1312918D02*
X1302761D01*
X1312918Y1222753D01*
Y1225292D01*
X1310379Y1227831D01*
X1305300D01*
X1302761Y1225292D01*
X1317996Y1215135D02*
X1320535Y1212596D01*
X1325614D01*
X1328153Y1215135D01*
Y1225292D01*
X1325614Y1227831D01*
X1320535D01*
X1317996Y1225292D01*
Y1222753D01*
X1320535Y1220213D01*
X1328153D01*
X1182878Y917956D02*
Y927953D01*
X1187876D01*
X1189542Y926287D01*
Y922954D01*
X1187876Y921288D01*
X1182878D01*
X1186210D02*
X1189542Y917956D01*
X1199539D02*
X1192875D01*
X1199539Y924621D01*
Y926287D01*
X1197873Y927953D01*
X1194541D01*
X1192875Y926287D01*
X1202872D02*
X1204538Y927953D01*
X1207870D01*
X1209536Y926287D01*
Y924621D01*
X1207870Y922954D01*
X1209536Y921288D01*
Y919622D01*
X1207870Y917956D01*
X1204538D01*
X1202872Y919622D01*
Y921288D01*
X1204538Y922954D01*
X1202872Y924621D01*
Y926287D01*
X1204538Y922954D02*
X1207870D01*
X1062736Y799846D02*
Y809843D01*
X1067734D01*
X1069400Y808177D01*
Y804844D01*
X1067734Y803178D01*
X1062736D01*
X1066068D02*
X1069400Y799846D01*
X1079397D02*
X1072733D01*
X1079397Y806510D01*
Y808177D01*
X1077731Y809843D01*
X1074399D01*
X1072733Y808177D01*
X1082730Y809843D02*
X1089394D01*
Y808177D01*
X1082730Y801512D01*
Y799846D01*
X1134872D02*
Y809843D01*
X1139870D01*
X1141536Y808177D01*
Y804844D01*
X1139870Y803178D01*
X1134872D01*
X1138204D02*
X1141536Y799846D01*
X1151533D02*
X1144869D01*
X1151533Y806510D01*
Y808177D01*
X1149867Y809843D01*
X1146535D01*
X1144869Y808177D01*
X1161530Y809843D02*
X1158198Y808177D01*
X1154866Y804844D01*
Y801512D01*
X1156532Y799846D01*
X1159864D01*
X1161530Y801512D01*
Y803178D01*
X1159864Y804844D01*
X1154866D01*
X707171Y328502D02*
Y338498D01*
X712169D01*
X713836Y336832D01*
Y333500D01*
X712169Y331834D01*
X707171D01*
X710503D02*
X713836Y328502D01*
X723832D02*
X717168D01*
X723832Y335166D01*
Y336832D01*
X722166Y338498D01*
X718834D01*
X717168Y336832D01*
X733829Y338498D02*
X727165D01*
Y333500D01*
X730497Y335166D01*
X732163D01*
X733829Y333500D01*
Y330168D01*
X732163Y328502D01*
X728831D01*
X727165Y330168D01*
X865378Y527304D02*
Y537301D01*
X870376D01*
X872042Y535635D01*
Y532302D01*
X870376Y530636D01*
X865378D01*
X868710D02*
X872042Y527304D01*
X882039D02*
X875375D01*
X882039Y533969D01*
Y535635D01*
X880373Y537301D01*
X877041D01*
X875375Y535635D01*
X890370Y527304D02*
Y537301D01*
X885372Y532302D01*
X892036D01*
X1122680Y917956D02*
Y927953D01*
X1127678D01*
X1129344Y926287D01*
Y922954D01*
X1127678Y921288D01*
X1122680D01*
X1126012D02*
X1129344Y917956D01*
X1139341D02*
X1132677D01*
X1139341Y924621D01*
Y926287D01*
X1137675Y927953D01*
X1134343D01*
X1132677Y926287D01*
X1142674D02*
X1144340Y927953D01*
X1147672D01*
X1149338Y926287D01*
Y924621D01*
X1147672Y922954D01*
X1146006D01*
X1147672D01*
X1149338Y921288D01*
Y919622D01*
X1147672Y917956D01*
X1144340D01*
X1142674Y919622D01*
X1015238Y917448D02*
Y927445D01*
X1020236D01*
X1021902Y925779D01*
Y922446D01*
X1020236Y920780D01*
X1015238D01*
X1018570D02*
X1021902Y917448D01*
X1031899D02*
X1025235D01*
X1031899Y924112D01*
Y925779D01*
X1030233Y927445D01*
X1026901D01*
X1025235Y925779D01*
X1041896Y917448D02*
X1035232D01*
X1041896Y924112D01*
Y925779D01*
X1040230Y927445D01*
X1036898D01*
X1035232Y925779D01*
X970280Y916686D02*
Y926683D01*
X975278D01*
X976945Y925017D01*
Y921684D01*
X975278Y920018D01*
X970280D01*
X973612D02*
X976945Y916686D01*
X986941D02*
X980277D01*
X986941Y923351D01*
Y925017D01*
X985275Y926683D01*
X981943D01*
X980277Y925017D01*
X990274Y916686D02*
X993606D01*
X991940D01*
Y926683D01*
X990274Y925017D01*
X640671Y191002D02*
Y200998D01*
X645669D01*
X647336Y199332D01*
Y196000D01*
X645669Y194334D01*
X640671D01*
X644003D02*
X647336Y191002D01*
X657332D02*
X650668D01*
X657332Y197666D01*
Y199332D01*
X655666Y200998D01*
X652334D01*
X650668Y199332D01*
X660665D02*
X662331Y200998D01*
X665663D01*
X667329Y199332D01*
Y192668D01*
X665663Y191002D01*
X662331D01*
X660665Y192668D01*
Y199332D01*
X612504Y397002D02*
Y406998D01*
X617502D01*
X619169Y405332D01*
Y402000D01*
X617502Y400334D01*
X612504D01*
X615836D02*
X619169Y397002D01*
X622501D02*
X625833D01*
X624167D01*
Y406998D01*
X622501Y405332D01*
X630831Y398668D02*
X632498Y397002D01*
X635830D01*
X637496Y398668D01*
Y405332D01*
X635830Y406998D01*
X632498D01*
X630831Y405332D01*
Y403666D01*
X632498Y402000D01*
X637496D01*
X587504Y143002D02*
Y152998D01*
X592502D01*
X594169Y151332D01*
Y148000D01*
X592502Y146334D01*
X587504D01*
X590836D02*
X594169Y143002D01*
X597501D02*
X600833D01*
X599167D01*
Y152998D01*
X597501Y151332D01*
X605831D02*
X607498Y152998D01*
X610830D01*
X612496Y151332D01*
Y149666D01*
X610830Y148000D01*
X612496Y146334D01*
Y144668D01*
X610830Y143002D01*
X607498D01*
X605831Y144668D01*
Y146334D01*
X607498Y148000D01*
X605831Y149666D01*
Y151332D01*
X607498Y148000D02*
X610830D01*
X618504Y143002D02*
Y152998D01*
X623502D01*
X625168Y151332D01*
Y148000D01*
X623502Y146334D01*
X618504D01*
X621836D02*
X625168Y143002D01*
X628501D02*
X631833D01*
X630167D01*
Y152998D01*
X628501Y151332D01*
X636832Y152998D02*
X643496D01*
Y151332D01*
X636832Y144668D01*
Y143002D01*
X1247648Y132842D02*
Y142839D01*
X1252646D01*
X1254313Y141173D01*
Y137840D01*
X1252646Y136174D01*
X1247648D01*
X1250980D02*
X1254313Y132842D01*
X1257645D02*
X1260977D01*
X1259311D01*
Y142839D01*
X1257645Y141173D01*
X1272640Y142839D02*
X1269308Y141173D01*
X1265975Y137840D01*
Y134508D01*
X1267642Y132842D01*
X1270974D01*
X1272640Y134508D01*
Y136174D01*
X1270974Y137840D01*
X1265975D01*
X605790Y177800D02*
Y187797D01*
X610788D01*
X612454Y186131D01*
Y182798D01*
X610788Y181132D01*
X605790D01*
X609122D02*
X612454Y177800D01*
X615787D02*
X619119D01*
X617453D01*
Y187797D01*
X615787Y186131D01*
X630782Y187797D02*
X624117D01*
Y182798D01*
X627450Y184464D01*
X629116D01*
X630782Y182798D01*
Y179466D01*
X629116Y177800D01*
X625784D01*
X624117Y179466D01*
X557784Y177800D02*
Y187797D01*
X562782D01*
X564449Y186131D01*
Y182798D01*
X562782Y181132D01*
X557784D01*
X561116D02*
X564449Y177800D01*
X567781D02*
X571113D01*
X569447D01*
Y187797D01*
X567781Y186131D01*
X581110Y177800D02*
Y187797D01*
X576111Y182798D01*
X582776D01*
X1247648Y183896D02*
Y193893D01*
X1252646D01*
X1254313Y192227D01*
Y188894D01*
X1252646Y187228D01*
X1247648D01*
X1250980D02*
X1254313Y183896D01*
X1257645D02*
X1260977D01*
X1259311D01*
Y193893D01*
X1257645Y192227D01*
X1265975D02*
X1267642Y193893D01*
X1270974D01*
X1272640Y192227D01*
Y190560D01*
X1270974Y188894D01*
X1269308D01*
X1270974D01*
X1272640Y187228D01*
Y185562D01*
X1270974Y183896D01*
X1267642D01*
X1265975Y185562D01*
X462788Y177800D02*
Y187797D01*
X467786D01*
X469453Y186131D01*
Y182798D01*
X467786Y181132D01*
X462788D01*
X466120D02*
X469453Y177800D01*
X472785D02*
X476117D01*
X474451D01*
Y187797D01*
X472785Y186131D01*
X487780Y177800D02*
X481115D01*
X487780Y184464D01*
Y186131D01*
X486114Y187797D01*
X482782D01*
X481115Y186131D01*
X1247648Y234950D02*
Y244947D01*
X1252646D01*
X1254313Y243281D01*
Y239948D01*
X1252646Y238282D01*
X1247648D01*
X1250980D02*
X1254313Y234950D01*
X1257645D02*
X1260977D01*
X1259311D01*
Y244947D01*
X1257645Y243281D01*
X1265975Y234950D02*
X1269308D01*
X1267642D01*
Y244947D01*
X1265975Y243281D01*
X1247648Y286004D02*
Y296001D01*
X1252646D01*
X1254313Y294335D01*
Y291002D01*
X1252646Y289336D01*
X1247648D01*
X1250980D02*
X1254313Y286004D01*
X1257645D02*
X1260977D01*
X1259311D01*
Y296001D01*
X1257645Y294335D01*
X1265975D02*
X1267642Y296001D01*
X1270974D01*
X1272640Y294335D01*
Y287670D01*
X1270974Y286004D01*
X1267642D01*
X1265975Y287670D01*
Y294335D01*
X945998Y168669D02*
X936002D01*
Y173668D01*
X937668Y175334D01*
X941000D01*
X942666Y173668D01*
Y168669D01*
Y172002D02*
X945998Y175334D01*
X944332Y178666D02*
X945998Y180332D01*
Y183664D01*
X944332Y185331D01*
X937668D01*
X936002Y183664D01*
Y180332D01*
X937668Y178666D01*
X939334D01*
X941000Y180332D01*
Y185331D01*
X1247648Y336804D02*
Y346801D01*
X1252646D01*
X1254313Y345135D01*
Y341802D01*
X1252646Y340136D01*
X1247648D01*
X1250980D02*
X1254313Y336804D01*
X1257645Y345135D02*
X1259311Y346801D01*
X1262643D01*
X1264309Y345135D01*
Y343469D01*
X1262643Y341802D01*
X1264309Y340136D01*
Y338470D01*
X1262643Y336804D01*
X1259311D01*
X1257645Y338470D01*
Y340136D01*
X1259311Y341802D01*
X1257645Y343469D01*
Y345135D01*
X1259311Y341802D02*
X1262643D01*
X971669Y150002D02*
Y159998D01*
X976668D01*
X978334Y158332D01*
Y155000D01*
X976668Y153334D01*
X971669D01*
X975002D02*
X978334Y150002D01*
X988331Y159998D02*
X984998Y158332D01*
X981666Y155000D01*
Y151668D01*
X983332Y150002D01*
X986665D01*
X988331Y151668D01*
Y153334D01*
X986665Y155000D01*
X981666D01*
X1020998Y170669D02*
X1011002D01*
Y175668D01*
X1012668Y177334D01*
X1016000D01*
X1017666Y175668D01*
Y170669D01*
Y174002D02*
X1020998Y177334D01*
X1011002Y187331D02*
Y180666D01*
X1016000D01*
X1014334Y183998D01*
Y185665D01*
X1016000Y187331D01*
X1019332D01*
X1020998Y185665D01*
Y182332D01*
X1019332Y180666D01*
X1196340Y703834D02*
Y719069D01*
X1203958D01*
X1206497Y716530D01*
Y711451D01*
X1203958Y708912D01*
X1196340D01*
X1201418D02*
X1206497Y703834D01*
X1219193D02*
Y719069D01*
X1211575Y711451D01*
X1221732D01*
X896669Y280002D02*
Y289998D01*
X901668D01*
X903334Y288332D01*
Y285000D01*
X901668Y283334D01*
X896669D01*
X900002D02*
X903334Y280002D01*
X906666Y288332D02*
X908332Y289998D01*
X911665D01*
X913331Y288332D01*
Y286666D01*
X911665Y285000D01*
X909998D01*
X911665D01*
X913331Y283334D01*
Y281668D01*
X911665Y280002D01*
X908332D01*
X906666Y281668D01*
X1045998Y170669D02*
X1036002D01*
Y175668D01*
X1037668Y177334D01*
X1041000D01*
X1042666Y175668D01*
Y170669D01*
Y174002D02*
X1045998Y177334D01*
Y187331D02*
Y180666D01*
X1039334Y187331D01*
X1037668D01*
X1036002Y185665D01*
Y182332D01*
X1037668Y180666D01*
X1072998Y172335D02*
X1063002D01*
Y177334D01*
X1064668Y179000D01*
X1068000D01*
X1069666Y177334D01*
Y172335D01*
Y175668D02*
X1072998Y179000D01*
Y182332D02*
Y185665D01*
Y183998D01*
X1063002D01*
X1064668Y182332D01*
X591312Y783331D02*
Y768096D01*
X598929D01*
X601469Y770635D01*
Y780792D01*
X598929Y783331D01*
X591312D01*
X616704D02*
X611625Y780792D01*
X606547Y775714D01*
Y770635D01*
X609086Y768096D01*
X614165D01*
X616704Y770635D01*
Y773174D01*
X614165Y775714D01*
X606547D01*
X906272Y783839D02*
Y768604D01*
X913889D01*
X916429Y771143D01*
Y781300D01*
X913889Y783839D01*
X906272D01*
X931664D02*
X921507D01*
Y776221D01*
X926585Y778761D01*
X929125D01*
X931664Y776221D01*
Y771143D01*
X929125Y768604D01*
X924046D01*
X921507Y771143D01*
X716280Y783331D02*
Y768096D01*
X723897D01*
X726437Y770635D01*
Y780792D01*
X723897Y783331D01*
X716280D01*
X739133Y768096D02*
Y783331D01*
X731515Y775714D01*
X741672D01*
X1156970Y515869D02*
Y500634D01*
X1164587D01*
X1167127Y503173D01*
Y513330D01*
X1164587Y515869D01*
X1156970D01*
X1172205Y513330D02*
X1174744Y515869D01*
X1179823D01*
X1182362Y513330D01*
Y510791D01*
X1179823Y508251D01*
X1177283D01*
X1179823D01*
X1182362Y505712D01*
Y503173D01*
X1179823Y500634D01*
X1174744D01*
X1172205Y503173D01*
X782304Y487617D02*
Y472383D01*
X789922D01*
X792461Y474922D01*
Y485078D01*
X789922Y487617D01*
X782304D01*
X807696Y472383D02*
X797539D01*
X807696Y482539D01*
Y485078D01*
X805157Y487617D01*
X800078D01*
X797539Y485078D01*
X746668Y304169D02*
X745002Y302502D01*
Y299170D01*
X746668Y297504D01*
X753332D01*
X754998Y299170D01*
Y302502D01*
X753332Y304169D01*
X754998Y307501D02*
Y310833D01*
Y309167D01*
X745002D01*
X746668Y307501D01*
X745002Y322496D02*
X746668Y319164D01*
X750000Y315832D01*
X753332D01*
X754998Y317498D01*
Y320830D01*
X753332Y322496D01*
X751666D01*
X750000Y320830D01*
Y315832D01*
X1021902Y493217D02*
X1020236Y494883D01*
X1016904D01*
X1015238Y493217D01*
Y486552D01*
X1016904Y484886D01*
X1020236D01*
X1021902Y486552D01*
X1025235Y484886D02*
X1028567D01*
X1026901D01*
Y494883D01*
X1025235Y493217D01*
X1040230Y494883D02*
X1033565D01*
Y489884D01*
X1036898Y491550D01*
X1038564D01*
X1040230Y489884D01*
Y486552D01*
X1038564Y484886D01*
X1035232D01*
X1033565Y486552D01*
X764169Y383332D02*
X762502Y384998D01*
X759170D01*
X757504Y383332D01*
Y376668D01*
X759170Y375002D01*
X762502D01*
X764169Y376668D01*
X767501Y375002D02*
X770833D01*
X769167D01*
Y384998D01*
X767501Y383332D01*
X780830Y375002D02*
Y384998D01*
X775832Y380000D01*
X782496D01*
X757211Y167831D02*
X758877Y169498D01*
Y172830D01*
X757211Y174496D01*
X750546D01*
X748880Y172830D01*
Y169498D01*
X750546Y167831D01*
X748880Y164499D02*
Y161167D01*
Y162833D01*
X758877D01*
X757211Y164499D01*
Y156168D02*
X758877Y154502D01*
Y151170D01*
X757211Y149504D01*
X755545D01*
X753879Y151170D01*
Y152836D01*
Y151170D01*
X752213Y149504D01*
X750546D01*
X748880Y151170D01*
Y154502D01*
X750546Y156168D01*
X684168Y199332D02*
X682502Y200998D01*
X679170D01*
X677504Y199332D01*
Y192668D01*
X679170Y191002D01*
X682502D01*
X684168Y192668D01*
X687501Y191002D02*
X690833D01*
X689167D01*
Y200998D01*
X687501Y199332D01*
X702496Y191002D02*
X695832D01*
X702496Y197666D01*
Y199332D01*
X700830Y200998D01*
X697498D01*
X695832Y199332D01*
X808835Y253832D02*
X807169Y255498D01*
X803836D01*
X802170Y253832D01*
Y247168D01*
X803836Y245502D01*
X807169D01*
X808835Y247168D01*
X812167Y245502D02*
X815499D01*
X813833D01*
Y255498D01*
X812167Y253832D01*
X820498Y245502D02*
X823830D01*
X822164D01*
Y255498D01*
X820498Y253832D01*
X829370Y520903D02*
X827704Y522569D01*
X824372D01*
X822706Y520903D01*
Y514238D01*
X824372Y512572D01*
X827704D01*
X829370Y514238D01*
X832703Y512572D02*
X836035D01*
X834369D01*
Y522569D01*
X832703Y520903D01*
X841033D02*
X842700Y522569D01*
X846032D01*
X847698Y520903D01*
Y514238D01*
X846032Y512572D01*
X842700D01*
X841033Y514238D01*
Y520903D01*
X1301810Y580593D02*
X1300144Y582259D01*
X1296812D01*
X1295146Y580593D01*
Y573928D01*
X1296812Y572262D01*
X1300144D01*
X1301810Y573928D01*
X1305143D02*
X1306809Y572262D01*
X1310141D01*
X1311807Y573928D01*
Y580593D01*
X1310141Y582259D01*
X1306809D01*
X1305143Y580593D01*
Y578927D01*
X1306809Y577260D01*
X1311807D01*
X1111818Y580593D02*
X1110152Y582259D01*
X1106820D01*
X1105154Y580593D01*
Y573928D01*
X1106820Y572262D01*
X1110152D01*
X1111818Y573928D01*
X1115151Y580593D02*
X1116817Y582259D01*
X1120149D01*
X1121815Y580593D01*
Y578927D01*
X1120149Y577260D01*
X1121815Y575594D01*
Y573928D01*
X1120149Y572262D01*
X1116817D01*
X1115151Y573928D01*
Y575594D01*
X1116817Y577260D01*
X1115151Y578927D01*
Y580593D01*
X1116817Y577260D02*
X1120149D01*
X730334Y400332D02*
X728668Y401998D01*
X725335D01*
X723669Y400332D01*
Y393668D01*
X725335Y392002D01*
X728668D01*
X730334Y393668D01*
X733666Y401998D02*
X740331D01*
Y400332D01*
X733666Y393668D01*
Y392002D01*
X730334Y443332D02*
X728668Y444998D01*
X725335D01*
X723669Y443332D01*
Y436668D01*
X725335Y435002D01*
X728668D01*
X730334Y436668D01*
X740331Y444998D02*
X736998Y443332D01*
X733666Y440000D01*
Y436668D01*
X735332Y435002D01*
X738664D01*
X740331Y436668D01*
Y438334D01*
X738664Y440000D01*
X733666D01*
X1055832Y436666D02*
X1057498Y438332D01*
Y441665D01*
X1055832Y443331D01*
X1049168D01*
X1047502Y441665D01*
Y438332D01*
X1049168Y436666D01*
X1057498Y426669D02*
Y433334D01*
X1052500D01*
X1054166Y430002D01*
Y428335D01*
X1052500Y426669D01*
X1049168D01*
X1047502Y428335D01*
Y431668D01*
X1049168Y433334D01*
X975834Y265832D02*
X974168Y267498D01*
X970835D01*
X969169Y265832D01*
Y259168D01*
X970835Y257502D01*
X974168D01*
X975834Y259168D01*
X984165Y257502D02*
Y267498D01*
X979166Y262500D01*
X985831D01*
X515426Y186385D02*
X513760Y188051D01*
X510428D01*
X508762Y186385D01*
Y179720D01*
X510428Y178054D01*
X513760D01*
X515426Y179720D01*
X518759Y186385D02*
X520425Y188051D01*
X523757D01*
X525423Y186385D01*
Y184718D01*
X523757Y183052D01*
X522091D01*
X523757D01*
X525423Y181386D01*
Y179720D01*
X523757Y178054D01*
X520425D01*
X518759Y179720D01*
X514411Y143205D02*
X512744Y144871D01*
X509412D01*
X507746Y143205D01*
Y136540D01*
X509412Y134874D01*
X512744D01*
X514411Y136540D01*
X524407Y134874D02*
X517743D01*
X524407Y141538D01*
Y143205D01*
X522741Y144871D01*
X519409D01*
X517743Y143205D01*
X469453D02*
X467786Y144871D01*
X464454D01*
X462788Y143205D01*
Y136540D01*
X464454Y134874D01*
X467786D01*
X469453Y136540D01*
X472785Y134874D02*
X476117D01*
X474451D01*
Y144871D01*
X472785Y143205D01*
X819401Y1135630D02*
X816861Y1138169D01*
X811783D01*
X809244Y1135630D01*
Y1125473D01*
X811783Y1122934D01*
X816861D01*
X819401Y1125473D01*
X824479Y1122934D02*
X829557D01*
X827018D01*
Y1138169D01*
X824479Y1135630D01*
X837175Y1138169D02*
X847332D01*
Y1135630D01*
X837175Y1125473D01*
Y1122934D01*
D13*
X1257150Y454175D02*
G03*
X1257150Y447825I0J-3175D01*
G01*
X928650Y863100D02*
G03*
X941350Y863100I6350J0D01*
G01*
X714750Y309000D02*
Y311000D01*
X725250Y309000D02*
Y311000D01*
X861000Y273250D02*
X863000D01*
X861000Y262750D02*
X863000D01*
X903000Y273250D02*
X905000D01*
X903000Y262750D02*
X905000D01*
X725650Y371000D02*
X738350D01*
X763650Y350000D02*
X776350D01*
X813000Y261650D02*
Y274350D01*
X763650Y310000D02*
X776350D01*
X834000Y319000D02*
X966000D01*
X834000Y451000D02*
X966000D01*
Y319000D02*
Y451000D01*
X834000Y319000D02*
Y451000D01*
X1027500Y428650D02*
Y441350D01*
X948650Y262500D02*
X961350D01*
X618750Y376000D02*
Y378000D01*
X629250Y376000D02*
Y378000D01*
X725650Y414000D02*
X738350D01*
X683650Y170000D02*
X696350D01*
X661250Y169000D02*
Y171000D01*
X650750Y169000D02*
Y171000D01*
X600250Y124000D02*
Y126000D01*
X589750Y124000D02*
Y126000D01*
X635250Y124000D02*
Y126000D01*
X624750Y124000D02*
Y126000D01*
X945250Y143000D02*
Y145000D01*
X934750Y143000D02*
Y145000D01*
X1072250Y143000D02*
Y145000D01*
X1061750Y143000D02*
Y145000D01*
X979000Y140250D02*
X981000D01*
X979000Y129750D02*
X981000D01*
X1046250Y143000D02*
Y145000D01*
X1035750Y143000D02*
Y145000D01*
X1021250Y143000D02*
Y145000D01*
X1010750Y143000D02*
Y145000D01*
X569000Y168250D02*
X571000D01*
X569000Y157750D02*
X571000D01*
X1138650Y832200D02*
X1176750D01*
X1112400Y34000D02*
Y109000D01*
Y72250D02*
Y104000D01*
X842400Y34000D02*
Y109000D01*
Y34000D02*
X1112400D01*
X475000Y113650D02*
Y126350D01*
X520000Y113650D02*
Y126350D01*
X1259000Y316750D02*
X1261000D01*
X1259000Y327250D02*
X1261000D01*
X1259000Y265750D02*
X1261000D01*
X1259000Y276250D02*
X1261000D01*
X1259000Y214750D02*
X1261000D01*
X1259000Y225250D02*
X1261000D01*
X521000Y156650D02*
Y169350D01*
X474000Y168250D02*
X476000D01*
X474000Y157750D02*
X476000D01*
X1259000Y163750D02*
X1261000D01*
X1259000Y174250D02*
X1261000D01*
X617000Y157750D02*
X619000D01*
X617000Y168250D02*
X619000D01*
X1259000Y112750D02*
X1261000D01*
X1259000Y123250D02*
X1261000D01*
X685500Y371350D02*
Y382650D01*
X660500Y371350D02*
X685500D01*
X660500Y382650D02*
X685500D01*
X1293650Y550000D02*
X1306350D01*
X1103650D02*
X1116350D01*
X835000Y491150D02*
Y503850D01*
X1200350Y547500D02*
X1211650D01*
X1200350D02*
Y572500D01*
X1211650Y547500D02*
Y572500D01*
X980250Y893250D02*
Y895250D01*
X969750Y893250D02*
Y895250D01*
X1155550Y467300D02*
X1257150D01*
X1155550Y434700D02*
Y467300D01*
Y434700D02*
X1257150D01*
Y447825D01*
Y454175D02*
Y467300D01*
X1134000Y908250D02*
X1136000D01*
X1134000Y897750D02*
X1136000D01*
X1025250Y894000D02*
Y896000D01*
X1014750Y894000D02*
Y896000D01*
X915850Y863100D02*
X928650D01*
X941350D02*
X954150D01*
Y812300D02*
Y863100D01*
X915850Y812300D02*
X954150D01*
X915850D02*
Y863100D01*
X864750Y504000D02*
Y506000D01*
X875250Y504000D02*
Y506000D01*
X1146000Y790250D02*
X1148000D01*
X1146000Y779750D02*
X1148000D01*
X1027500Y463650D02*
Y476350D01*
X1045950Y832200D02*
X1084050D01*
X1336000Y899000D02*
Y915750D01*
Y1142250D02*
Y1159000D01*
Y915750D02*
X1386000D01*
Y1142250D01*
X1286000D02*
X1386000D01*
X1286000Y915750D02*
Y1142250D01*
Y915750D02*
X1336000D01*
X1194000Y908250D02*
X1196000D01*
X1194000Y897750D02*
X1196000D01*
X1074000Y790250D02*
X1076000D01*
X1074000Y779750D02*
X1076000D01*
X991750Y730000D02*
Y732000D01*
X1002250Y730000D02*
Y732000D01*
X859000Y734750D02*
X861000D01*
X859000Y745250D02*
X861000D01*
M02*
